<?xml version="1.0" encoding="UTF-8"?> <svg xmlns="http://www.w3.org/2000/svg" width="20" height="21" viewBox="0 0 20 21" fill="none"><path d="M7.16943 2.42529C6.54053 2.64404 6.2124 2.96045 5.7749 3.76514C5.62256 4.04248 5.37646 4.29639 5.13428 4.41748C5.05225 4.46045 4.76709 4.54248 4.50146 4.59717C4.23975 4.64795 3.91553 4.74561 3.78271 4.80811C3.23584 5.06592 2.81787 5.55029 2.63428 6.13623C2.53662 6.44873 2.53662 6.48389 2.56396 6.97607C2.61865 7.84717 2.61084 8.01514 2.49756 8.26123C2.43506 8.39404 2.271 8.6167 2.06396 8.83936C1.53271 9.40967 1.3335 9.87061 1.3335 10.519C1.3335 11.2104 1.52881 11.6323 2.16162 12.3042C2.28662 12.437 2.43506 12.6479 2.49365 12.769C2.60693 13.0229 2.61475 13.1597 2.56396 14.0542C2.53662 14.5854 2.53662 14.6089 2.63818 14.9136C2.84131 15.5112 3.23193 15.9604 3.78271 16.2222C3.91943 16.2886 4.22412 16.3823 4.49365 16.437C4.75146 16.4878 5.04834 16.5737 5.1499 16.6284C5.3999 16.7534 5.66943 17.0503 5.84131 17.3784C6.0249 17.7417 6.09912 17.8433 6.35693 18.105C6.75928 18.5073 7.29053 18.7222 7.896 18.7222C8.31396 18.7222 8.56787 18.6558 9.07959 18.4214C9.46631 18.2378 9.48975 18.2339 9.84912 18.2339C10.2085 18.2339 10.2319 18.2378 10.6108 18.4175C11.1421 18.6675 11.3608 18.7222 11.7827 18.7222C12.7202 18.7222 13.3687 18.3042 13.8726 17.3667C14.1851 16.7847 14.4546 16.5933 15.1929 16.4409C15.4585 16.3862 15.7827 16.2925 15.9155 16.23C16.4624 15.9722 16.8804 15.4878 17.064 14.9019C17.1616 14.5894 17.1616 14.5542 17.1343 14.062C17.0796 13.1909 17.0874 13.0229 17.2007 12.7769C17.2632 12.644 17.4272 12.4214 17.6343 12.1987C18.1655 11.6284 18.3647 11.1675 18.3647 10.519C18.3647 9.82764 18.1694 9.40576 17.5366 8.73389C17.4116 8.60107 17.2593 8.39014 17.2007 8.26514C17.1069 8.05811 17.0991 8.00732 17.1108 7.66748C17.1655 6.30029 17.1343 6.07764 16.7905 5.56982C16.4312 5.02686 15.978 4.75342 15.1968 4.59717C14.4546 4.44873 14.1929 4.26514 13.853 3.64404C13.4976 2.99561 13.1694 2.6792 12.6108 2.45654C12.3765 2.35889 12.2593 2.33936 11.896 2.32373C11.3882 2.3042 11.2085 2.34717 10.6108 2.62061C10.2319 2.80029 10.2085 2.8042 9.84912 2.8042C9.48975 2.8042 9.46631 2.80029 9.0874 2.62061C8.54053 2.3667 8.34131 2.31592 7.88037 2.31592C7.54834 2.31592 7.43506 2.33545 7.16943 2.42529ZM8.67725 3.3667C9.5874 3.79248 10.1187 3.79248 11.0327 3.35889C11.4546 3.16357 11.4819 3.15576 11.8022 3.15576C12.4038 3.15576 12.7554 3.40186 13.1343 4.09326C13.5796 4.90576 14.0288 5.22998 14.9468 5.40576C15.6304 5.53467 15.978 5.77295 16.2085 6.26123C16.3257 6.50342 16.3335 6.68701 16.2749 7.53467C16.2241 8.31982 16.3804 8.7417 16.9585 9.3667C17.3257 9.76123 17.4429 9.95654 17.5132 10.3003C17.5483 10.4683 17.5483 10.5698 17.5132 10.7378C17.4429 11.0815 17.3257 11.2769 16.9624 11.6714C16.5913 12.0698 16.4116 12.3745 16.3101 12.7847C16.2554 12.9917 16.2515 13.1245 16.2749 13.5073C16.3335 14.3511 16.3218 14.5386 16.2085 14.7769C15.978 15.2651 15.6304 15.5034 14.9468 15.6323C14.0288 15.8081 13.5796 16.1323 13.1343 16.9448C12.8843 17.4019 12.6851 17.6128 12.3647 17.769C12.1655 17.8667 12.0913 17.8823 11.8022 17.8823C11.4819 17.8823 11.4546 17.8745 11.0327 17.6792C10.5366 17.4448 10.2124 17.355 9.84912 17.355C9.48584 17.355 9.16162 17.4448 8.66553 17.6792C8.24365 17.8745 8.21631 17.8823 7.896 17.8823C7.29443 17.8784 6.94678 17.6362 6.56787 16.9487C6.11865 16.1323 5.66943 15.8081 4.75146 15.6323C4.06787 15.5034 3.72021 15.2651 3.48975 14.7769C3.37256 14.5347 3.36475 14.3237 3.42334 13.5386C3.48193 12.7417 3.31787 12.2964 2.73975 11.6714C2.28271 11.1792 2.17725 10.9644 2.17725 10.519C2.17725 10.0737 2.28271 9.85889 2.73584 9.37061C3.10693 8.96826 3.28662 8.66748 3.38818 8.25342C3.44287 8.04639 3.44678 7.91357 3.42334 7.53076C3.36475 6.68701 3.37646 6.49951 3.48975 6.26123C3.72021 5.77295 4.06787 5.53467 4.75146 5.40576C5.66943 5.22998 6.11865 4.90576 6.56787 4.08936C6.9624 3.37061 7.34912 3.1167 7.98584 3.15576C8.20459 3.16748 8.32959 3.20654 8.67725 3.3667Z" fill="#701515"></path><path d="M7.97396 6.06595C7.03646 6.19095 6.36849 7.09329 6.52864 8.0347C6.61849 8.58548 6.99349 9.08548 7.49349 9.31985C7.72005 9.42532 7.8138 9.44485 8.13802 9.45657C8.44661 9.4722 8.55989 9.45657 8.76693 9.39017C9.29036 9.21439 9.69661 8.80032 9.85677 8.28079C9.97786 7.87064 9.94661 7.39017 9.77083 7.02298C9.44271 6.33939 8.74349 5.96829 7.97396 6.06595ZM8.69271 7.03079C9.10677 7.32376 9.21224 7.81204 8.95052 8.2261C8.72396 8.58157 8.27864 8.7261 7.90364 8.56595C7.18099 8.25345 7.16536 7.29642 7.8763 6.95657C8.10677 6.8472 8.47786 6.87845 8.69271 7.03079Z" fill="#701515"></path><path d="M12.5248 7.26895C12.4623 7.31192 11.0952 8.66348 9.48969 10.2689C7.51313 12.2494 6.56391 13.2299 6.54829 13.3002C6.47016 13.6244 6.76704 13.9135 7.08344 13.8197C7.20063 13.7846 13.0756 7.92129 13.1342 7.77676C13.1928 7.63223 13.1498 7.4252 13.0366 7.31973C12.9038 7.19473 12.6733 7.1752 12.5248 7.26895Z" fill="#701515"></path><path d="M10.8803 11.6637C10.3725 11.859 9.99359 12.2574 9.84124 12.7574C9.72015 13.1676 9.7514 13.648 9.92718 14.0152C10.5717 15.3551 12.5287 15.2926 13.0678 13.9176C13.3998 13.0738 13.017 12.1012 12.2045 11.7184C11.9662 11.609 11.8959 11.5934 11.5287 11.5855C11.1772 11.5738 11.0834 11.5855 10.8803 11.6637ZM11.8256 12.4879C12.4155 12.7613 12.5287 13.4879 12.0444 13.9254C11.4858 14.4293 10.6186 14.0348 10.6108 13.273C10.6108 12.8941 10.8373 12.5816 11.2123 12.4488C11.4233 12.3746 11.603 12.3824 11.8256 12.4879Z" fill="#701515"></path></svg> 