<?xml version="1.0" encoding="UTF-8"?> <svg xmlns="http://www.w3.org/2000/svg" width="60" height="60" viewBox="0 0 60 60" fill="none"><path d="M35.6836 0.398419C35.5195 0.515607 35.4492 0.738263 35.4258 1.24217C35.3672 2.16795 35.543 2.50779 36.1289 2.55467C36.7969 2.61326 36.914 2.4492 36.914 1.45311C36.914 0.832013 36.8672 0.550763 36.7265 0.421857C36.5039 0.187482 35.9765 0.175763 35.6836 0.398419Z" fill="#AD8865"></path><path d="M24.5742 5.01566C24.2227 5.40238 24.3281 5.88284 24.8789 6.42191C25.4414 6.97269 25.957 7.07816 26.2852 6.70316C26.6367 6.31644 26.5313 5.89456 25.957 5.33206C25.3828 4.74613 24.9141 4.64066 24.5742 5.01566Z" fill="#AD8865"></path><path d="M46.4531 5.32033C45.8906 5.87111 45.7734 6.38674 46.125 6.72658C46.4648 7.07814 46.9922 6.96096 47.543 6.42189C48.1055 5.87111 48.2109 5.34377 47.8359 5.00393C47.4492 4.65236 47.0039 4.75783 46.4531 5.32033Z" fill="#AD8865"></path><path d="M28.2188 9.39844C28.125 9.48047 27.1758 10.793 26.1328 12.3047C24.7031 14.3555 24.2109 15.1523 24.2109 15.4102C24.2109 15.6914 25.3008 17.168 29.9883 23.2852C35.5781 30.5625 35.7891 30.8203 36.1641 30.8203C36.375 30.8203 36.6211 30.7383 36.7266 30.6445C37.0078 30.3633 47.9883 16.0195 48.1406 15.7383C48.2461 15.5625 48.2461 15.3867 48.1641 15.1758C48.0469 14.8594 45.1289 10.6172 44.4492 9.75L44.0508 9.25781H36.2227C30.1406 9.25781 28.3594 9.29297 28.2188 9.39844ZM33.6211 12.3633C33.0234 13.2305 32.4961 13.9453 32.4492 13.9453C32.3906 13.9453 30.5742 11.4023 30.3047 10.9219C30.2344 10.8164 30.7031 10.7812 32.4609 10.7812H34.6992L33.6211 12.3633ZM42.0469 11.0391C41.3086 12.1641 40.043 13.8867 39.9609 13.8867C39.8672 13.8867 38.6367 12.1992 37.875 11.0391L37.7109 10.7812H39.9609H42.2109L42.0469 11.0391ZM30 13.2656L30.9492 14.6484H28.7109C27.4688 14.6484 26.4844 14.6016 26.5078 14.543C26.5312 14.4961 27.0234 13.7578 27.5977 12.9141C28.6406 11.4023 28.6523 11.3906 28.8516 11.6367C28.9688 11.7773 29.4844 12.5156 30 13.2656ZM37.3828 13.0664L38.4492 14.5898L37.3242 14.625C36.7148 14.6367 35.707 14.6367 35.0977 14.625L33.9727 14.5898L35.0508 13.0312C35.6484 12.1758 36.1758 11.4961 36.2227 11.5078C36.2695 11.5312 36.7969 12.2227 37.3828 13.0664ZM44.8711 13.0312L45.9492 14.5898L44.8242 14.625C44.2148 14.6367 43.207 14.6367 42.5977 14.625L41.4844 14.5898L42.5625 13.0312C43.1602 12.1875 43.6758 11.4844 43.7227 11.4844C43.7578 11.4844 44.2852 12.1875 44.8711 13.0312ZM31.875 16.2422C31.875 16.2773 32.4609 18.5859 33.1641 21.3516C33.8789 24.1289 34.4531 26.4141 34.4297 26.4258C34.4062 26.4492 32.6133 24.1523 30.4453 21.3164L26.4961 16.1719H29.1797C30.668 16.1719 31.875 16.207 31.875 16.2422ZM38.9062 16.3008C38.9062 16.4531 36.3633 26.4492 36.2461 26.7188C36.2109 26.8125 35.9531 25.9922 35.6719 24.9023C35.3906 23.8008 34.7695 21.3984 34.3008 19.5352L33.4336 16.1719H36.1641C38.1445 16.1719 38.9062 16.207 38.9062 16.3008ZM45.8203 16.2305C45.8203 16.2891 38.2148 26.2383 37.9453 26.543C37.8984 26.6016 37.9219 26.3906 38.0156 26.0742C38.1094 25.7461 38.6719 23.5898 39.2578 21.2695C39.8438 18.9492 40.3828 16.8516 40.4414 16.6055L40.5586 16.1719H43.1836C44.6367 16.1719 45.8203 16.1953 45.8203 16.2305Z" fill="#AD8865"></path><path d="M20.0039 16.0781C19.8984 16.1602 19.7813 16.3711 19.7461 16.5469C19.6875 16.793 19.7344 16.9336 19.9688 17.1562C20.2148 17.4141 20.3672 17.4609 20.9766 17.4609C21.5273 17.4609 21.7266 17.4141 21.9141 17.2266C22.207 16.9336 22.2188 16.3828 21.9375 16.1367C21.668 15.8906 20.2969 15.8555 20.0039 16.0781Z" fill="#AD8865"></path><path d="M50.4727 16.1484C50.3555 16.2656 50.2734 16.5352 50.2734 16.7344C50.2734 17.2383 50.6367 17.4609 51.4453 17.4609C52.2773 17.4609 52.6172 17.2383 52.6172 16.6992C52.6172 16.1016 52.3711 15.9375 51.457 15.9375C50.8359 15.9375 50.6133 15.9844 50.4727 16.1484Z" fill="#AD8865"></path><path d="M24.8906 26.8828C24.4805 27.293 24.375 27.4688 24.375 27.7969C24.375 28.6758 25.1719 28.7813 25.957 28.0078C26.5547 27.4219 26.6367 26.9883 26.25 26.6016C25.875 26.2266 25.4648 26.3086 24.8906 26.8828Z" fill="#AD8865"></path><path d="M46.1953 26.5547C46.0195 26.6719 45.9375 26.8477 45.9375 27.1172C45.9375 27.4336 46.0547 27.6094 46.5352 28.0664C47.0273 28.5235 47.168 28.6055 47.4375 28.5352C47.8477 28.4414 48.0469 28.1719 48.0469 27.7266C48.0469 27.4688 47.918 27.2578 47.5195 26.8711C46.957 26.3321 46.6289 26.25 46.1953 26.5547Z" fill="#AD8865"></path><path d="M53.9648 27.9258C53.707 28.0195 53.3086 28.1836 53.0859 28.2891C52.8633 28.4062 50.7187 30.457 48.3164 32.8477L43.957 37.1953L43.3594 36.6328C42.6445 35.9648 41.7539 35.5312 40.7578 35.3672C40.1133 35.2734 39.6445 35.3086 37.0898 35.6953C32.5312 36.375 31.5352 36.3164 29.0508 35.1562C27.457 34.418 26.3555 34.1133 24.9023 34.0312C22.7227 33.9023 20.5312 34.4883 18.7969 35.6719C18.3164 36 16.3594 37.4648 14.4258 38.9297C11.168 41.4023 10.9102 41.5781 10.6875 41.4141C10.2656 41.1211 9.1289 40.8867 8.49609 40.9688C7.33594 41.1094 7.01953 41.3438 4.24219 44.0977C1.92187 46.418 1.6289 46.7461 1.61719 47.0977C1.60547 47.4609 2.02734 47.9062 7.74609 53.625C13.1484 59.0391 13.9336 59.7656 14.2383 59.7656C14.5547 59.7656 14.9531 59.4023 17.2969 57.0469C19.5703 54.75 20.0391 54.2227 20.2266 53.7305C20.5078 52.9805 20.5078 51.9023 20.2266 51.1758L20.0156 50.6016L20.4023 50.1914C20.625 49.9688 21.0117 49.6758 21.2578 49.5469C22.0898 49.125 22.5352 49.207 25.7227 50.3555C29.6836 51.7969 29.7305 51.8086 31.3594 51.8789C33.5625 51.9844 34.6289 51.7266 38.6133 50.1328C39.9023 49.6055 41.7773 48.9023 42.7734 48.5508C45.1172 47.7305 46.0664 47.1914 47.3672 45.9375C48.8906 44.4609 57.9492 33.1523 58.1953 32.4258C58.7578 30.7266 58.0664 28.9219 56.543 28.1719C55.7812 27.8086 54.668 27.7031 53.9648 27.9258ZM55.6289 29.4727C56.1562 29.6953 56.4492 29.9531 56.6836 30.3984C56.8945 30.8086 56.9062 31.6406 56.707 32.0156C56.4727 32.4609 46.9805 44.1914 46.3711 44.7891C45.2812 45.8672 44.2969 46.4062 42.0703 47.1797C40.875 47.5781 37.0078 49.0664 35.5195 49.6992C34.7344 50.0273 32.8125 50.3906 31.8516 50.3906C30.4453 50.3906 30.0469 50.2852 26.3789 48.9609C23.4375 47.8945 23.0742 47.7891 22.3242 47.7891C21.2344 47.7891 20.3789 48.1172 19.5586 48.8555L18.9023 49.4414L15.5156 46.043C13.3594 43.8867 12.1758 42.6211 12.2461 42.5508C12.3164 42.4922 14.0508 41.168 16.1016 39.6094C21.0234 35.9062 21.7148 35.5664 24.4336 35.5781C25.9805 35.5781 26.5664 35.7422 28.8867 36.7617C31.2539 37.8164 32.6836 37.8984 37.2187 37.2305C40.5352 36.7383 40.8398 36.75 41.8594 37.3945C42.4102 37.7461 43.0781 38.6016 43.1953 39.1055C43.3008 39.4922 43.0312 40.1719 42.6914 40.4062C42.5273 40.5117 40.0898 41.2148 37.2773 41.9531C32.3789 43.2422 32.168 43.3125 32.0156 43.6289C31.8281 44.0273 31.9219 44.3672 32.2852 44.6016C32.543 44.7773 32.8711 44.707 37.582 43.4766C40.3359 42.7617 42.8789 42.0469 43.2187 41.8828C44.1914 41.4141 44.8945 40.125 44.7305 39.0938C44.6719 38.7188 44.7773 38.6016 49.1953 34.1836C52.0078 31.3828 53.8828 29.5898 54.1406 29.4844C54.668 29.25 55.1016 29.25 55.6289 29.4727ZM9.66797 42.6445C9.97265 42.7969 11.5898 44.3203 14.4375 47.1797C18.1875 50.9648 18.75 51.5625 18.8672 51.9961C19.1133 52.957 18.9844 53.1562 16.5 55.6289L14.2383 57.8906L8.84765 52.5L3.45703 47.1094L5.5664 44.9883C8.15625 42.3867 8.57812 42.1406 9.66797 42.6445Z" fill="#AD8865"></path></svg> 