<?xml version="1.0" encoding="UTF-8"?> <svg xmlns="http://www.w3.org/2000/svg" width="20" height="21" viewBox="0 0 20 21" fill="none"><g clip-path="url(#clip0_917_6160)"><path d="M10.5662 0.527399C10.2576 0.593805 9.83964 0.769587 9.58964 0.933649C9.30058 1.12115 9.29667 1.12115 9.09746 1.08599C8.2498 0.925837 7.30449 1.20709 6.70683 1.80084C6.55058 1.95709 6.38652 2.12896 6.34355 2.18365C6.27324 2.26959 6.21855 2.28912 5.98417 2.30865C5.65996 2.33599 5.23808 2.47271 4.92949 2.65631C4.80839 2.72662 4.56621 2.92584 4.39042 3.10162C4.12089 3.36724 4.03886 3.47662 3.88261 3.80474L3.69121 4.19537L3.30449 4.38287C2.97636 4.53912 2.87089 4.61724 2.60136 4.88677C2.11699 5.37896 1.88261 5.84771 1.80058 6.48834C1.76933 6.74615 1.7498 6.80865 1.67167 6.85552C1.6248 6.89068 1.45683 7.04693 1.30058 7.20318C0.972455 7.53912 0.699017 8.04693 0.605267 8.48834C0.538861 8.80474 0.531049 9.30865 0.585736 9.59771C0.620892 9.79693 0.620892 9.80083 0.433392 10.0899C0.14433 10.5313 0.0349548 10.8868 0.0115173 11.4649C-0.0119202 12.0235 0.0505798 12.3711 0.245892 12.7852L0.374799 13.0508L0.273236 13.3282C0.187299 13.5743 0.17558 13.668 0.17558 14.1524C0.17558 14.6211 0.187299 14.7383 0.265424 14.9688C0.409955 15.4024 0.601361 15.7383 0.890424 16.0547C1.01933 16.1954 1.01933 16.2032 1.03105 16.6211C1.05449 17.3946 1.29667 17.9688 1.8123 18.4922C1.98808 18.668 2.22636 18.8672 2.34746 18.9336C2.54667 19.043 2.57011 19.0704 2.59355 19.2188C2.65996 19.6368 3.01152 20.3008 3.23417 20.4297C3.37871 20.5157 3.71074 20.5235 3.85917 20.4454C3.98808 20.3751 19.8943 4.46099 19.9568 4.3399C20.0232 4.20709 20.0076 3.86724 19.9334 3.73443C19.8006 3.51568 18.9451 3.07818 18.6404 3.07818C18.5857 3.07818 18.5232 3.00787 18.4373 2.85162C18.367 2.73052 18.1678 2.48834 17.992 2.31256C17.4685 1.79302 16.8943 1.55865 16.1209 1.53521C15.7068 1.52349 15.7029 1.52349 15.5545 1.39068C15.2381 1.10162 14.9061 0.910212 14.4686 0.76568C14.2381 0.687555 14.1209 0.675837 13.6521 0.675837C13.1678 0.675837 13.074 0.687555 12.8279 0.773493L12.5506 0.871149L12.2811 0.746149C11.8904 0.566462 11.5584 0.500055 11.0662 0.503962C10.8357 0.507868 10.6092 0.51568 10.5662 0.527399ZM11.6365 1.17974C11.7498 1.21099 11.8553 1.24615 11.867 1.25787C11.8787 1.26959 11.7928 1.38287 11.6756 1.50396C11.367 1.83209 11.2889 1.95709 11.2889 2.12506C11.2889 2.32818 11.3787 2.41412 11.5857 2.41412C11.7459 2.41412 11.7654 2.4024 11.91 2.20709C12.574 1.30474 13.66 1.03131 14.6404 1.52349C14.9998 1.70318 14.9998 1.7149 14.7068 1.89068C14.5623 1.97271 14.3787 2.09771 14.2928 2.17193C14.1639 2.28131 14.1404 2.32427 14.1404 2.45709C14.1404 2.64849 14.2459 2.76568 14.4256 2.76568C14.5154 2.76568 14.6287 2.71099 14.8162 2.57037C15.6834 1.94146 16.7928 2.0274 17.5584 2.78131L17.8318 3.04693L17.5584 3.10552C16.9725 3.22662 16.7146 3.41802 16.781 3.67974C16.8396 3.91802 17.0428 3.94537 17.4803 3.78131C17.7967 3.66412 18.2615 3.63677 18.6053 3.71881C18.8553 3.7774 19.3084 3.97662 19.3514 4.04693C19.3631 4.06646 19.0037 4.44537 18.5545 4.89459L17.742 5.70709L17.5389 5.5274C16.3592 4.4649 14.7107 3.70709 13.0076 3.44537C12.3826 3.34771 11.0545 3.34771 10.4295 3.44537C8.34746 3.76568 6.60136 4.69927 5.15996 6.26177C3.53886 8.01177 2.69121 10.4883 2.88652 12.8829C3.04277 14.7579 3.6873 16.3751 4.85917 17.8204L5.20292 18.2422L4.39042 19.0586C3.94511 19.504 3.56621 19.8633 3.54667 19.8516C3.50761 19.8243 3.28105 19.3829 3.28105 19.3282C3.28105 19.3086 3.33964 19.2891 3.41386 19.2891C3.65996 19.2891 3.80058 18.9727 3.64433 18.7891C3.60136 18.7422 3.46855 18.6836 3.32011 18.6485C2.70683 18.4961 2.15214 18.0665 1.88261 17.5313C1.76933 17.3008 1.60527 16.6915 1.65214 16.6485C1.65996 16.6407 1.74589 16.6641 1.83964 16.7032C1.9373 16.7461 2.14042 16.8086 2.29667 16.8438C2.53496 16.8985 2.60136 16.8985 2.6873 16.8594C2.89824 16.7579 2.9373 16.4571 2.75761 16.3399C2.71464 16.3126 2.5623 16.2618 2.42167 16.2266C1.62871 16.0313 1.03495 15.4376 0.835736 14.6407C0.773236 14.3946 0.773236 13.6993 0.83183 13.6407C0.843549 13.6251 0.92558 13.6758 1.01542 13.754C1.23027 13.9376 1.60527 14.1329 1.74589 14.1329C1.91386 14.1329 2.03105 14.004 2.03105 13.8243C2.03105 13.6563 1.9998 13.6251 1.66777 13.4258C1.53886 13.3516 1.32792 13.1758 1.1912 13.0352C0.796674 12.6172 0.624799 12.1836 0.624799 11.5938C0.624799 11.2266 0.659955 11.0586 0.808392 10.7266L0.906049 10.504L1.07402 10.7266C1.35527 11.1055 1.53105 11.2501 1.70292 11.2501C1.81621 11.2501 1.8748 11.2266 1.94511 11.1407C2.07792 10.9883 2.03886 10.8555 1.75371 10.5469C0.999799 9.72271 0.976361 8.52349 1.69121 7.70709L1.85917 7.51959L1.90996 7.69146C1.97636 7.9063 2.20292 8.35943 2.27714 8.42193C2.30449 8.44927 2.38652 8.48052 2.45292 8.49224C2.55449 8.51177 2.59355 8.49615 2.69511 8.39849C2.75761 8.33209 2.8123 8.25005 2.8123 8.21099C2.8123 8.17193 2.75371 8.0274 2.67949 7.88677C2.49199 7.51959 2.40996 7.21099 2.40996 6.84771C2.40605 6.35162 2.59746 5.83209 2.91386 5.4649C3.05449 5.30084 3.49199 4.95318 3.55449 4.95318C3.57011 4.95318 3.59355 5.0899 3.60527 5.25396C3.63652 5.63677 3.73027 5.95709 3.82792 6.00787C3.92167 6.05865 4.08574 6.05865 4.18339 6.00396C4.3123 5.93755 4.33964 5.79693 4.27714 5.5274C4.01542 4.42584 4.67558 3.30865 5.77324 2.98443L5.98027 2.92584L5.95292 3.01177C5.88261 3.22662 5.85917 3.39068 5.85917 3.67193C5.85917 3.92584 5.87089 3.98834 5.9373 4.05474C6.02324 4.14068 6.20683 4.15631 6.32792 4.09381C6.41777 4.04693 6.48417 3.82818 6.48417 3.58599C6.48808 3.35943 6.6248 2.96099 6.79667 2.67193C7.15605 2.07427 7.87871 1.67193 8.59355 1.67193H8.82402L8.71464 1.85943C8.57402 2.09771 8.4373 2.4649 8.4373 2.60162C8.4373 2.76568 8.56621 2.88287 8.74589 2.88287C8.92558 2.88287 8.98808 2.82037 9.10136 2.5274C9.33964 1.88677 9.83964 1.41412 10.5076 1.19927C10.7732 1.11334 11.3435 1.10552 11.6365 1.17974ZM12.4842 4.01959C13.6717 4.13287 14.8162 4.49615 15.8123 5.07818C16.2537 5.33209 16.781 5.70709 17.0701 5.9649L17.285 6.16021L11.4842 11.961C8.29277 15.1524 5.67167 17.7657 5.65605 17.7657C5.64433 17.7657 5.4998 17.6016 5.33964 17.4024C4.50371 16.3711 3.91386 15.129 3.65214 13.8555C3.1873 11.5586 3.73417 9.14849 5.14433 7.26568C5.42558 6.89459 6.09355 6.19537 6.48417 5.87115C8.12871 4.50005 10.3592 3.81256 12.4842 4.01959Z" fill="#8F5633"></path></g><defs><clipPath id="clip0_917_6160"><rect width="20" height="20" fill="white" transform="translate(0 0.5)"></rect></clipPath></defs></svg> 