<?xml version="1.0" encoding="UTF-8"?> <svg xmlns="http://www.w3.org/2000/svg" width="45" height="46" viewBox="0 0 45 46" fill="none"><g clip-path="url(#clip0_401_353)"><path d="M23.7744 0.561554C23.0801 0.710968 22.1397 1.10648 21.5772 1.47562C20.9268 1.89749 20.918 1.89749 20.4697 1.81839C18.5625 1.45804 16.4356 2.09085 15.0908 3.42679C14.7393 3.77835 14.3701 4.16507 14.2734 4.28812C14.1152 4.48148 13.9922 4.52542 13.4649 4.56937C12.7354 4.63089 11.7861 4.93851 11.0918 5.35159C10.8193 5.5098 10.2744 5.95804 9.87891 6.35355C9.27247 6.9512 9.0879 7.1973 8.73633 7.93558L8.30567 8.81448L7.43555 9.23636C6.69727 9.58792 6.45997 9.7637 5.85352 10.3701C4.76368 11.4776 4.23633 12.5323 4.05176 13.9737C3.98145 14.5537 3.9375 14.6944 3.76172 14.7998C3.65625 14.8789 3.27833 15.2305 2.92676 15.5821C2.18848 16.3379 1.57325 17.4805 1.36231 18.4737C1.2129 19.1856 1.19532 20.3194 1.31836 20.9698C1.39747 21.418 1.39747 21.4268 0.975591 22.0772C0.3252 23.0703 0.079106 23.8701 0.0263717 25.1709C-0.0263627 26.4278 0.114262 27.21 0.553715 28.1416L0.843755 28.7393L0.615239 29.3633C0.42188 29.917 0.395512 30.128 0.395512 31.2178C0.395512 32.2725 0.42188 32.5362 0.597661 33.0547C0.922856 34.0303 1.35352 34.7862 2.00391 35.4981C2.29395 35.8145 2.29395 35.8321 2.32032 36.7725C2.37305 38.5127 2.91797 39.8047 4.07813 40.9824C4.47364 41.378 5.00977 41.8262 5.28223 41.9756C5.73047 42.2217 5.78321 42.2832 5.83594 42.6172C5.98536 43.5576 6.77637 45.0518 7.27735 45.3418C7.60254 45.5352 8.34962 45.5528 8.6836 45.377C8.97364 45.2188 44.7627 9.41214 44.9033 9.13968C45.0527 8.84085 45.0176 8.0762 44.8506 7.77737C44.5518 7.28519 42.627 6.30081 41.9414 6.30081C41.8184 6.30081 41.6777 6.14261 41.4844 5.79105C41.3262 5.51859 40.8779 4.97366 40.4824 4.57816C39.3047 3.40921 38.0127 2.88187 36.2725 2.82913C35.3408 2.80276 35.332 2.80276 34.9981 2.50394C34.2861 1.85355 33.5391 1.42288 32.5547 1.09769C32.0361 0.921906 31.7725 0.895538 30.7178 0.895538C29.6279 0.895538 29.417 0.921906 28.8633 1.11526L28.2393 1.33499L27.6328 1.05374C26.7539 0.649445 26.0068 0.500031 24.8994 0.50882C24.3809 0.517609 23.8711 0.535187 23.7744 0.561554ZM26.1826 2.02933C26.4375 2.09964 26.6748 2.17874 26.7012 2.20511C26.7275 2.23148 26.5342 2.48636 26.2705 2.75882C25.5762 3.4971 25.4004 3.77835 25.4004 4.15628C25.4004 4.61331 25.6025 4.80667 26.0684 4.80667C26.4287 4.80667 26.4727 4.7803 26.7979 4.34085C28.292 2.31058 30.7354 1.69534 32.9414 2.80276C33.75 3.20706 33.75 3.23343 33.0908 3.62894C32.7656 3.81351 32.3525 4.09476 32.1592 4.26175C31.8691 4.50784 31.8164 4.60452 31.8164 4.90335C31.8164 5.33401 32.0537 5.59769 32.458 5.59769C32.6602 5.59769 32.915 5.47464 33.3369 5.15823C35.2881 3.74319 37.7842 3.93655 39.5068 5.63284L40.1221 6.2305L39.5068 6.36234C38.1885 6.6348 37.6084 7.06546 37.7578 7.65433C37.8897 8.19046 38.3467 8.25198 39.3311 7.88284C40.043 7.61917 41.0889 7.55765 41.8623 7.74222C42.4248 7.87405 43.4443 8.3223 43.541 8.4805C43.5674 8.52444 42.7588 9.37698 41.7481 10.3877L39.9199 12.2158L39.4629 11.8116C36.8086 9.42093 33.0996 7.71585 29.2676 7.12698C27.8613 6.90726 24.8731 6.90726 23.4668 7.12698C18.7822 7.84769 14.8535 9.94827 11.6104 13.4639C7.9629 17.4014 6.05567 22.9737 6.49512 28.3614C6.84668 32.5801 8.29688 36.2188 10.9336 39.4707L11.707 40.4199L9.87891 42.2569C8.87696 43.2588 8.02442 44.0674 7.98047 44.041C7.89258 43.9795 7.38282 42.9864 7.38282 42.8633C7.38282 42.8194 7.51465 42.7754 7.68165 42.7754C8.23536 42.7754 8.55176 42.0635 8.2002 41.6504C8.10352 41.5449 7.80469 41.4131 7.47071 41.334C6.09083 40.9912 4.84278 40.0244 4.23633 38.8203C3.98145 38.3018 3.61231 36.9307 3.71778 36.834C3.73536 36.8164 3.92872 36.8692 4.13965 36.9571C4.35938 37.0537 4.81641 37.1944 5.16797 37.2735C5.70411 37.3965 5.85352 37.3965 6.04688 37.3086C6.52149 37.0801 6.60938 36.4033 6.20508 36.1397C6.1084 36.0782 5.76563 35.9639 5.44922 35.8848C3.66504 35.4453 2.32911 34.1094 1.88086 32.3164C1.74024 31.7627 1.74024 30.1983 1.87207 30.0664C1.89844 30.0313 2.08301 30.1455 2.28516 30.3213C2.76856 30.7344 3.61231 31.1739 3.92872 31.1739C4.30665 31.1739 4.57032 30.8838 4.57032 30.4795C4.57032 30.1016 4.5 30.0313 3.75293 29.583C3.4629 29.416 2.98829 29.0205 2.68067 28.7041C1.79297 27.7637 1.40625 26.7881 1.40625 25.461C1.40625 24.6348 1.48536 24.2569 1.81934 23.5098L2.03907 23.0088L2.417 23.5098C3.04981 24.3623 3.44532 24.6875 3.83204 24.6875C4.08692 24.6875 4.21875 24.6348 4.37696 24.4414C4.67579 24.0987 4.5879 23.7998 3.94629 23.1055C2.25 21.251 2.19727 18.5528 3.80567 16.7158L4.1836 16.294L4.29786 16.6807C4.44727 17.1641 4.95704 18.1836 5.12403 18.3242C5.18555 18.3858 5.37012 18.4561 5.51954 18.4824C5.74805 18.5264 5.83594 18.4912 6.06446 18.2715C6.20508 18.1221 6.32813 17.9375 6.32813 17.8496C6.32813 17.7617 6.19629 17.4366 6.0293 17.1201C5.60743 16.294 5.42286 15.5996 5.42286 14.7823C5.41407 13.666 5.84473 12.4971 6.55665 11.6709C6.87305 11.3018 7.85743 10.5196 7.99805 10.5196C8.03321 10.5196 8.08594 10.8272 8.11231 11.1963C8.18262 12.0576 8.39356 12.7783 8.61329 12.8926C8.82422 13.0069 9.19337 13.0069 9.41309 12.8838C9.70313 12.7344 9.76465 12.418 9.62403 11.8116C9.03516 9.33303 10.5205 6.81937 12.9902 6.08987L13.4561 5.95804L13.3945 6.1514C13.2363 6.6348 13.1836 7.00394 13.1836 7.63675C13.1836 8.20804 13.21 8.34866 13.3594 8.49808C13.5527 8.69144 13.9658 8.72659 14.2383 8.58597C14.4404 8.4805 14.5899 7.98831 14.5899 7.44339C14.5986 6.93362 14.9063 6.03714 15.293 5.38675C16.1016 4.04202 17.7275 3.13675 19.3359 3.13675H19.8545L19.6084 3.55862C19.292 4.09476 18.9844 4.92093 18.9844 5.22855C18.9844 5.59769 19.2744 5.86136 19.6787 5.86136C20.083 5.86136 20.2236 5.72073 20.4785 5.06155C21.0147 3.62015 22.1397 2.55667 23.6426 2.07327C24.2402 1.87991 25.5234 1.86234 26.1826 2.02933ZM28.0899 8.41898C30.7617 8.67386 33.3369 9.49124 35.5781 10.8008C36.5713 11.3721 37.7578 12.2158 38.4082 12.7959L38.8916 13.2354L25.8399 26.2871C18.6592 33.4678 12.7617 39.3477 12.7266 39.3477C12.7002 39.3477 12.375 38.9785 12.0147 38.5303C10.1338 36.21 8.80665 33.4151 8.21778 30.5498C7.17188 25.3819 8.40235 19.959 11.5752 15.7227C12.208 14.8877 13.7109 13.3145 14.5899 12.585C18.29 9.50003 23.3086 7.95316 28.0899 8.41898Z" fill="white"></path></g><defs><clipPath id="clip0_401_353"><rect width="45" height="45" fill="white" transform="translate(0 0.5)"></rect></clipPath></defs></svg> 