<?xml version="1.0" encoding="UTF-8"?> <svg xmlns="http://www.w3.org/2000/svg" width="45" height="45" viewBox="0 0 45 45" fill="none"><path d="M21.0013 3.28164C18.9713 3.59699 17.0989 4.56276 15.6502 6.02126C15.2659 6.41545 14.783 6.95747 14.5957 7.22355C14.4085 7.48963 14.241 7.71629 14.2213 7.736C14.2114 7.75571 13.8665 7.67687 13.4624 7.56847C8.52519 6.26764 3.41055 8.68206 1.23264 13.3532C0.138763 15.6691 -0.0386237 18.6058 0.749759 21.0005C1.29177 22.6167 1.99146 23.7796 3.18389 25.0311C4.55371 26.4601 6.56408 27.6032 8.4562 28.0171L8.73214 28.0763V33.6935C8.73214 40.109 8.63359 39.4487 9.68805 39.9907C12.5459 41.4295 20.8831 42.1391 27.8012 41.5281C31.5755 41.193 33.8816 40.72 35.3893 39.971C36.4241 39.4586 36.3255 40.1484 36.3255 33.7428V28.1058L36.9957 27.9285C38.6611 27.485 40.2379 26.5981 41.5092 25.3958C42.5439 24.4103 43.1451 23.5924 43.7659 22.3112C44.505 20.8133 44.7218 19.8968 44.7711 18.1229C44.8105 16.9207 44.781 16.5265 44.6036 15.6592C43.3816 9.72667 37.4391 6.03112 31.5952 7.56847C31.1912 7.67687 30.8561 7.75571 30.8463 7.74585C30.8364 7.736 30.6295 7.46006 30.393 7.13486C28.2348 4.19813 24.6279 2.71991 21.0013 3.28164ZM23.9578 4.67116C27.1704 5.23288 29.8017 7.65716 30.6689 10.8304C30.866 11.5498 30.9251 13.777 30.7674 14.8216C30.6985 15.3537 30.7083 15.4326 30.8857 15.5903C31.1813 15.8563 31.8022 15.7874 31.9599 15.4622C32.4723 14.3781 32.3639 11.3823 31.7529 9.68724C31.6248 9.33247 31.5558 9.03683 31.5952 9.00727C31.6347 8.9777 31.95 8.89886 32.2949 8.82002C36.365 7.87397 40.5828 9.91391 42.5242 13.7573C43.0662 14.8512 43.3422 15.9549 43.3914 17.374C43.4308 18.1919 43.4013 18.8916 43.3224 19.3351C42.7312 22.6463 40.3759 25.4155 37.2322 26.4897C36.2566 26.8149 36.3255 26.9134 36.3255 25.1494C36.3255 23.8486 36.296 23.5825 36.158 23.4248C35.9412 23.1784 35.4189 23.1982 35.1824 23.4544C35.005 23.6515 34.9951 23.9373 34.9656 30.7371L34.9459 37.8227L34.4039 37.6354C33.2804 37.2511 31.1025 36.8569 28.7374 36.6105C22.6668 35.97 14.6549 36.4036 10.8608 37.5763L10.1118 37.8128V30.8159C10.1118 22.9814 10.1414 23.2573 9.38255 23.2474C8.78141 23.2474 8.73214 23.4051 8.73214 25.1494V26.7262L8.44635 26.667C7.80579 26.5389 6.56408 25.9871 5.82498 25.4943C3.76532 24.1442 2.35609 22.0944 1.81408 19.6701C1.55785 18.5073 1.60713 16.5955 1.92248 15.4523C2.81926 12.1707 5.39136 9.65768 8.69272 8.83973C10.0822 8.50467 12.2602 8.5638 13.3245 8.96785C13.5413 9.04668 13.5413 9.05654 13.3836 9.5C13.2358 9.8942 13.2358 9.97303 13.3639 10.2095C13.4427 10.3475 13.6398 10.515 13.7975 10.5643C14.2015 10.7023 14.507 10.4264 14.8421 9.62812C15.2462 8.65249 15.9261 7.70643 16.7934 6.86878C18.7545 4.99637 21.3167 4.20798 23.9578 4.67116ZM27.6533 37.8916C30.3338 38.1183 33.172 38.6012 33.783 38.9264C33.9702 39.0249 33.9702 39.0545 33.8323 39.1235C33.5859 39.2615 31.6642 39.6754 30.4619 39.8429C25.298 40.582 18.7643 40.5426 13.9552 39.7443C12.9401 39.5768 11.5309 39.2418 11.3042 39.1136C10.8312 38.8476 13.6891 38.2464 16.8623 37.9311C20.0257 37.6157 24.352 37.6059 27.6533 37.8916Z" fill="white"></path><path d="M19.4743 19.2167C18.1439 19.3449 15.5718 19.7883 15.0002 19.9756C14.4188 20.1727 14.2512 20.4979 14.468 20.9512C14.5863 21.2074 14.6454 21.2271 15.1382 21.2173C15.4338 21.2173 16.3207 21.099 17.1091 20.961C19.0998 20.5964 20.4006 20.488 22.5292 20.488C24.6579 20.488 25.9489 20.5964 27.9494 20.9512C30.0682 21.3355 30.3539 21.3454 30.551 21.0694C30.758 20.7738 30.7481 20.4584 30.5412 20.2022C30.3441 19.9756 28.8757 19.6405 26.7668 19.3449C25.4068 19.1576 20.8539 19.0788 19.4743 19.2167Z" fill="white"></path></svg> 