<?xml version="1.0" encoding="UTF-8"?> <svg xmlns="http://www.w3.org/2000/svg" width="45" height="46" viewBox="0 0 45 46" fill="none"><g clip-path="url(#clip0_401_995)"><path d="M23.1473 0.948505C22.7323 1.14657 22.3173 1.72191 21.8269 2.77826C21.0252 4.47597 20.4781 6.45663 20.4687 7.62617C20.4687 7.75822 20.3461 7.72992 19.7236 7.46583C19.3086 7.28663 18.488 7.02254 17.9033 6.88107C16.9412 6.6547 16.6583 6.63584 14.9511 6.62641C13.2629 6.62641 12.9893 6.64527 12.3291 6.84334C10.5937 7.34322 9.71653 8.10719 9.42414 9.37104L9.3204 9.84263L8.68847 9.95581C6.90587 10.2859 4.69885 11.9648 3.92544 13.5776C3.17091 15.1621 2.8125 17.3974 2.8125 20.6325C2.8125 23.0188 2.91625 24.4618 3.26522 26.848C4.30271 34.0822 6.58519 39.845 9.20721 41.8162C10.6314 42.882 12.282 42.9103 13.6967 41.9011L14.14 41.5804L14.4324 42.0426C15.1398 43.1461 16.6111 44.2213 18.1108 44.7306C19.5727 45.2305 21.6665 45.2871 23.1096 44.8721C24.0999 44.5891 26.0429 44.5042 26.8634 44.7212C27.816 44.9664 28.3725 44.9287 28.8912 44.5797C29.3251 44.2873 30.023 43.363 30.2777 42.7311C30.3437 42.5613 30.4003 42.4198 30.4192 42.4198C30.4286 42.4198 30.5701 42.4859 30.721 42.5613C31.2869 42.8443 32.4659 43.0801 33.3053 43.0801C35.2671 43.0801 36.6347 42.1369 37.5967 40.1091C38.521 38.1567 40.5866 30.0171 41.4449 24.9051C42.4069 19.2272 42.3126 16.1525 41.1431 14.351C40.247 12.9834 39.0492 12.2289 37.2666 11.8893L36.4083 11.729V11.2385C36.4083 10.2293 35.8613 9.07866 35.1162 8.48446C34.0976 7.68276 33.0601 7.39038 31.2209 7.38095C29.3534 7.38095 27.7877 7.72049 26.3164 8.4656L25.7316 8.75798L25.7976 8.16378C25.8259 7.83367 25.9014 7.43754 25.9485 7.26777C26.1277 6.71129 27.3727 5.74926 28.8158 5.06074C29.9948 4.49483 30.2588 3.97609 29.7684 3.1461C29.1553 2.08974 26.4861 0.967369 24.3829 0.863621C23.6944 0.835323 23.3642 0.854187 23.1473 0.948505ZM25.6184 2.47644C26.4767 2.69337 28.297 3.47621 28.297 3.63655C28.297 3.67427 27.9858 3.86291 27.6085 4.05154C26.7125 4.5137 25.3355 5.56062 24.9865 6.04164C24.6187 6.55095 24.4583 7.15458 24.3451 8.53162C24.1188 11.0405 24.2603 12.4081 24.8262 13.5682L25.1374 14.1907L24.5715 14.285C24.2603 14.3416 23.5623 14.5396 23.0153 14.7377C21.3459 15.3508 20.4498 15.313 18.7616 14.5679L18.2711 14.351L18.9125 13.8888C20.6762 12.5967 21.5439 10.6915 21.9212 7.35265C22.0249 6.4755 22.1476 5.89073 22.4022 5.16449C22.7983 4.04211 23.4208 2.66508 23.6472 2.41042C23.8641 2.17463 24.4961 2.19349 25.6184 2.47644ZM16.9129 8.13548C18.0165 8.32412 19.1011 8.68253 19.6576 9.0315C20.0914 9.31445 20.1103 9.34275 20.0631 9.65399C19.9783 10.1822 19.2897 11.4837 18.8182 12.0214C18.3183 12.5873 17.4128 13.2098 16.7715 13.4267L16.3282 13.5682L15.3567 12.5873C14.008 11.2197 12.6687 10.3802 11.3199 10.0407C11.037 9.96524 10.8012 9.86149 10.8106 9.79547C10.82 9.73888 10.8295 9.6257 10.8389 9.55024C10.8578 9.30502 11.4331 8.73912 11.9141 8.49389C12.1782 8.37128 12.6404 8.20151 12.961 8.13548C13.7533 7.96571 15.9226 7.96571 16.9129 8.13548ZM32.3998 8.85229C33.0789 8.97491 33.8052 9.29559 34.2296 9.65399C34.6446 10.003 34.9936 10.7481 34.9936 11.2951V11.729L34.0315 11.8422C32.0603 12.0779 29.7495 12.8513 27.882 13.9171C27.2596 14.2661 27.1181 14.3133 27.0332 14.2001C26.9766 14.1246 26.7785 13.8794 26.5899 13.6436C25.958 12.8702 25.6562 12.0214 25.6562 10.9839V10.484L26.156 10.1916C28.0424 9.04093 30.5512 8.51275 32.3998 8.85229ZM11.0464 11.446C11.7444 11.6535 12.48 12.0402 13.1591 12.5495C13.8476 13.0588 14.5267 13.6908 14.5267 13.8134C14.5267 13.8605 14.3475 13.9832 14.1306 14.0963C12.5555 14.8603 10.9049 17.1711 10.0089 19.8874C9.40528 21.6983 9.2921 22.566 9.2921 25.3956C9.30153 28.1213 9.39585 29.0834 9.858 31.1489C10.3202 33.1956 10.8766 34.6481 12.5083 38.1284C13.3949 40.0147 13.5458 40.4014 13.4138 40.4297C13.3289 40.4486 13.0837 40.5806 12.8762 40.7221C11.9047 41.3729 11.1596 41.3918 10.2164 40.7693C7.1228 38.7226 4.24612 29.0928 4.22726 20.7268C4.21783 17.8973 4.45362 16.1525 5.06668 14.5491C5.28361 13.9832 5.43452 13.7757 6.1702 13.04C7.02848 12.1911 7.79245 11.6912 8.62245 11.4272C9.16949 11.2574 10.4333 11.2668 11.0464 11.446ZM37.5496 13.3984C39.1624 13.9266 40.0773 14.898 40.5111 16.5297C40.8412 17.7841 40.6809 20.774 40.0867 24.4052C39.2756 29.3097 37.1817 37.6662 36.2952 39.4866C35.8707 40.3637 35.2011 41.1183 34.5691 41.4295C33.9938 41.7125 32.6451 41.6936 31.6359 41.3823L30.8813 41.156L31.2397 40.0147C31.7585 38.4019 31.9377 37.6379 32.1546 36.1949C32.5696 33.3937 32.8243 29.7907 32.8243 26.6122C32.8243 22.1888 32.3904 19.4913 31.4284 17.9916C30.9851 17.2937 29.9004 16.1808 29.127 15.6337L28.4951 15.1904L29.5986 14.6622C31.0322 13.9832 32.4093 13.5493 34.1447 13.2381C34.6635 13.1437 37.1251 13.2569 37.5496 13.3984ZM18.3183 15.9355C19.6198 16.4637 19.8273 16.5109 20.6102 16.558C21.7043 16.6146 22.5343 16.4731 23.6755 16.0298C24.4678 15.7186 24.6658 15.6809 25.3732 15.6903C25.9768 15.6903 26.3069 15.7469 26.7125 15.9072C28.0518 16.426 29.759 17.8879 30.3532 19.0103C30.5229 19.3309 30.7682 19.9912 30.8813 20.4628C31.2775 22.0284 31.3624 23.1602 31.3624 26.8575C31.3529 30.4604 31.2303 32.4976 30.8342 35.346C30.5701 37.2607 30.4475 37.7889 29.7967 39.8261C29.2119 41.6559 28.6554 42.882 28.2499 43.2687C28.0235 43.4856 28.0047 43.4856 27.335 43.3536C26.9106 43.2687 26.09 43.2215 25.1846 43.231C23.9301 43.2404 23.5812 43.2687 22.7323 43.4856C20.0537 44.1647 17.2808 43.3724 15.8472 41.5238C15.4887 41.0522 13.2912 36.5344 12.48 34.5915C11.6878 32.6957 11.2067 30.9791 10.8861 28.9325C10.754 28.093 10.7163 27.2913 10.7069 25.3956C10.7069 22.7264 10.8012 22.0001 11.3765 20.3024C12.1593 17.9822 12.8667 17.0768 15.0738 15.6054L15.8566 15.0867L16.3753 15.2281C16.6677 15.3036 17.5354 15.6148 18.3183 15.9355Z" fill="white"></path><path d="M36.1247 14.8131C36.0021 14.8791 35.8606 15.0583 35.804 15.2281C35.6908 15.6337 35.8889 15.9261 36.4454 16.1901C36.9453 16.4354 37.115 16.6806 37.3037 17.3974C37.4829 18.0954 37.4829 20.1137 37.3037 21.6228C37.1245 23.1413 37.1245 23.33 37.3603 23.5658C37.6244 23.8299 38.1714 23.7827 38.3978 23.462C38.6618 23.0942 38.8882 20.5853 38.8316 18.699C38.7845 16.9258 38.6147 16.2939 37.9922 15.5865C37.398 14.9169 36.5869 14.5773 36.1247 14.8131Z" fill="white"></path><path d="M25.7784 17.8221C25.4954 17.9635 25.3445 18.3691 25.4577 18.6804C25.5143 18.8124 25.7784 19.0671 26.0708 19.2557C26.9762 19.831 27.4195 20.6044 27.7213 22.1229C28.0137 23.5566 28.1269 25.5372 28.0986 28.3573L28.0609 30.9416L28.3155 31.1302C28.523 31.2906 28.6268 31.3 28.8814 31.234C29.3908 31.0831 29.4285 30.8944 29.4945 28.2536C29.5794 24.7072 29.3342 22.0852 28.7777 20.4912C28.391 19.3783 27.5233 18.3691 26.5329 17.8598C26.1934 17.69 26.0708 17.6806 25.7784 17.8221Z" fill="white"></path></g><defs><clipPath id="clip0_401_995"><rect width="45" height="45" fill="white" transform="translate(0 0.5)"></rect></clipPath></defs></svg> 