<?xml version="1.0" encoding="UTF-8"?> <svg xmlns="http://www.w3.org/2000/svg" width="20" height="21" viewBox="0 0 20 21" fill="none"><g clip-path="url(#clip0_917_6168)"><path d="M10.2877 0.699335C10.1033 0.787365 9.91881 1.04307 9.70083 1.51256C9.34452 2.2671 9.10139 3.14739 9.0972 3.66719C9.0972 3.72587 9.04271 3.7133 8.76604 3.59592C8.5816 3.51628 8.21691 3.39891 7.95701 3.33603C7.52944 3.23542 7.40368 3.22704 6.64495 3.22285C5.8946 3.22285 5.77304 3.23123 5.47961 3.31926C4.7083 3.54143 4.31846 3.88097 4.18851 4.44268L4.1424 4.65228L3.86154 4.70258C3.06928 4.8493 2.08838 5.59545 1.74464 6.31226C1.40929 7.0165 1.25 8.00998 1.25 9.44779C1.25 10.5083 1.29611 11.1497 1.45121 12.2102C1.91232 15.4254 2.92675 17.9867 4.0921 18.8628C4.72507 19.3364 5.45865 19.349 6.08743 18.9005L6.28445 18.758L6.4144 18.9634C6.72879 19.4538 7.38272 19.9317 8.04923 20.158C8.69897 20.3802 9.62957 20.4054 10.2709 20.2209C10.7111 20.0952 11.5746 20.0574 11.9393 20.1539C12.3627 20.2628 12.61 20.2461 12.8406 20.091C13.0334 19.961 13.3436 19.5502 13.4568 19.2694C13.4861 19.1939 13.5113 19.131 13.5196 19.131C13.5238 19.131 13.5867 19.1604 13.6538 19.1939C13.9053 19.3197 14.4293 19.4245 14.8024 19.4245C15.6743 19.4245 16.2821 19.0053 16.7097 18.104C17.1205 17.2363 18.0385 13.6187 18.4199 11.3467C18.8475 8.8232 18.8056 7.45665 18.2858 6.656C17.8876 6.04817 17.3552 5.71282 16.5629 5.56192L16.1815 5.49065V5.27268C16.1815 4.82415 15.9384 4.31274 15.6072 4.04865C15.1545 3.69234 14.6934 3.56239 13.8759 3.5582C13.046 3.5582 12.3501 3.7091 11.6962 4.04026L11.4363 4.17021L11.4656 3.90612C11.4782 3.75941 11.5117 3.58335 11.5327 3.50789C11.6123 3.26057 12.1657 2.833 12.807 2.52699C13.331 2.27548 13.4484 2.04493 13.2304 1.67604C12.9579 1.20655 11.7716 0.707718 10.8368 0.661608C10.5308 0.649033 10.3841 0.657415 10.2877 0.699335ZM11.386 1.37842C11.7674 1.47483 12.5765 1.82276 12.5765 1.89402C12.5765 1.91079 12.4381 1.99463 12.2705 2.07846C11.8722 2.28386 11.2602 2.74916 11.1051 2.96295C10.9416 3.18931 10.8704 3.45759 10.8201 4.06961C10.7195 5.18465 10.7823 5.79247 11.0339 6.30807L11.1722 6.58474L10.9207 6.62665C10.7823 6.65181 10.4721 6.73983 10.229 6.82786C9.48705 7.10034 9.08882 7.08357 8.33847 6.75241L8.12049 6.656L8.40554 6.45059C9.18942 5.87631 9.57508 5.02955 9.74275 3.54562C9.78886 3.15578 9.84336 2.89588 9.95654 2.5731C10.1326 2.07427 10.4093 1.46226 10.5099 1.34908C10.6063 1.24428 10.8871 1.25266 11.386 1.37842ZM7.51686 3.89355C8.00731 3.97739 8.48938 4.13668 8.7367 4.29178C8.92953 4.41753 8.93791 4.43011 8.91695 4.56844C8.87922 4.80319 8.57322 5.38167 8.36362 5.6206C8.14145 5.87212 7.73903 6.14878 7.45398 6.24519L7.25697 6.30807L6.8252 5.87212C6.22576 5.26429 5.63052 4.89122 5.03108 4.74031C4.90532 4.70677 4.80052 4.66066 4.80472 4.63132C4.80891 4.60617 4.8131 4.55587 4.81729 4.52233C4.82567 4.41334 5.08138 4.16183 5.29517 4.05284C5.41254 3.99834 5.61794 3.92289 5.76046 3.89355C6.11258 3.81809 7.07671 3.81809 7.51686 3.89355ZM14.3999 4.21213C14.7017 4.26662 15.0245 4.40915 15.2132 4.56844C15.3976 4.72354 15.5527 5.0547 15.5527 5.29783V5.49065L15.1251 5.54096C14.249 5.64575 13.222 5.98949 12.392 6.46317C12.1154 6.61827 12.0525 6.63923 12.0148 6.58893C11.9896 6.55539 11.9016 6.4464 11.8177 6.34161C11.5369 5.99787 11.4027 5.6206 11.4027 5.1595V4.93733L11.6249 4.80738C12.4633 4.29597 13.5783 4.06122 14.3999 4.21213ZM4.90951 5.3649C5.21971 5.45712 5.54668 5.62899 5.84849 5.85535C6.1545 6.08171 6.45632 6.36257 6.45632 6.41706C6.45632 6.43802 6.37667 6.49251 6.28026 6.54282C5.58021 6.88236 4.84663 7.90937 4.44841 9.11663C4.18012 9.92147 4.12982 10.3071 4.12982 11.5647C4.13401 12.7761 4.17593 13.2037 4.38134 14.1217C4.58674 15.0314 4.83406 15.6769 5.55925 17.2237C5.95329 18.0621 6.02036 18.234 5.96167 18.2465C5.92395 18.2549 5.81496 18.3136 5.72274 18.3765C5.29097 18.6657 4.95981 18.6741 4.54063 18.3975C3.16569 17.4878 1.88717 13.2079 1.87878 9.48971C1.87459 8.23214 1.97939 7.45665 2.25186 6.74403C2.34827 6.49251 2.41534 6.40029 2.74231 6.07333C3.12377 5.69606 3.46331 5.47389 3.8322 5.35651C4.07533 5.28106 4.63704 5.28525 4.90951 5.3649ZM16.6887 6.23262C17.4055 6.46736 17.8121 6.89913 18.0049 7.62432C18.1517 8.18184 18.0804 9.51067 17.8163 11.1245C17.4558 13.3043 16.5252 17.0183 16.1312 17.8274C15.9425 18.2172 15.6449 18.5526 15.3641 18.6909C15.1084 18.8166 14.5089 18.8083 14.0604 18.6699L13.725 18.5693L13.8843 18.0621C14.1149 17.3453 14.1945 17.0058 14.2909 16.3644C14.4754 15.1194 14.5886 13.5181 14.5886 12.1054C14.5886 10.1395 14.3957 8.94057 13.9682 8.27406C13.7711 7.96386 13.2891 7.46922 12.9453 7.22609L12.6645 7.02907L13.1549 6.79433C13.7921 6.49251 14.4041 6.29969 15.1754 6.16136C15.406 6.11944 16.5001 6.16974 16.6887 6.23262ZM8.14145 7.36023C8.71993 7.59498 8.81215 7.61594 9.16008 7.6369C9.64634 7.66205 10.0152 7.59917 10.5224 7.40215C10.8746 7.26382 10.9626 7.24705 11.277 7.25124C11.5453 7.25124 11.692 7.2764 11.8722 7.34766C12.4675 7.57821 13.2262 8.22795 13.4903 8.72679C13.5657 8.86931 13.6747 9.16274 13.725 9.37234C13.9011 10.0682 13.9388 10.5712 13.9388 12.2144C13.9346 13.8157 13.8801 14.7212 13.7041 15.9871C13.5867 16.8381 13.5322 17.0728 13.243 17.9783C12.9831 18.7915 12.7358 19.3364 12.5555 19.5083C12.4549 19.6047 12.4465 19.6047 12.1489 19.546C11.9603 19.5083 11.5956 19.4873 11.1931 19.4915C10.6356 19.4957 10.4805 19.5083 10.1033 19.6047C8.91276 19.9065 7.68035 19.5544 7.04318 18.7328C6.88389 18.5232 5.90718 16.5153 5.54668 15.6518C5.19456 14.8092 4.98077 14.0463 4.83825 13.1366C4.77956 12.7636 4.7628 12.4073 4.7586 11.5647C4.7586 10.3784 4.80052 10.0556 5.05623 9.30107C5.40415 8.26987 5.71854 7.86745 6.69945 7.21352L7.04737 6.98296L7.27793 7.04584C7.40787 7.07938 7.79353 7.21771 8.14145 7.36023Z" fill="#8F5633"></path><path d="M16.0555 6.86143C16.001 6.89077 15.9382 6.97041 15.913 7.04587C15.8627 7.22612 15.9507 7.35607 16.1981 7.47344C16.4202 7.58243 16.4957 7.69142 16.5795 8.01C16.6592 8.3202 16.6592 9.21726 16.5795 9.88796C16.4999 10.5629 16.4999 10.6467 16.6047 10.7515C16.722 10.8689 16.9652 10.8479 17.0658 10.7054C17.1831 10.5419 17.2838 9.42686 17.2586 8.58848C17.2376 7.80041 17.1622 7.51955 16.8855 7.20516C16.6214 6.90754 16.2609 6.75663 16.0555 6.86143Z" fill="#8F5633"></path><path d="M11.4572 8.19868C11.3314 8.26156 11.2643 8.44181 11.3146 8.58014C11.3398 8.63883 11.4572 8.75201 11.5871 8.83585C11.9895 9.09155 12.1866 9.43529 12.3207 10.1102C12.4506 10.7473 12.501 11.6276 12.4884 12.881L12.4716 14.0296L12.5848 14.1134C12.677 14.1847 12.7231 14.1889 12.8363 14.1595C13.0627 14.0925 13.0794 14.0086 13.1088 12.8349C13.1465 11.2588 13.0375 10.0934 12.7902 9.38498C12.6183 8.89034 12.2327 8.44181 11.7925 8.21545C11.6416 8.14 11.5871 8.1358 11.4572 8.19868Z" fill="#8F5633"></path></g><defs><clipPath id="clip0_917_6168"><rect width="20" height="20" fill="white" transform="translate(0 0.5)"></rect></clipPath></defs></svg> 