<?xml version="1.0" encoding="UTF-8"?> <svg xmlns="http://www.w3.org/2000/svg" width="35" height="35" viewBox="0 0 35 35" fill="none"><path d="M9.11498 31.1552C9.11498 30.0765 9.11263 28.9982 9.11795 27.9198C9.11795 27.7992 9.08151 27.7562 8.97048 27.7243C7.70628 27.3608 6.55085 26.7837 5.53161 25.9331C4.55022 25.1128 3.81735 24.099 3.27243 22.9396C2.7786 21.8889 2.47695 20.7789 2.2781 19.6364C2.14549 18.8638 2.04607 18.0877 2.03051 17.3044C2.00762 16.2734 2.00367 15.2417 2 14.2101C2 13.7784 2.00663 13.3457 2.03314 12.9148C2.08222 12.083 2.12561 11.2505 2.20914 10.4221C2.33907 9.13985 2.61586 7.8882 3.07391 6.68219C3.46634 5.64951 3.99006 4.69211 4.69801 3.84658C5.44545 2.95469 6.38181 2.3154 7.41294 1.81185C8.62544 1.21993 9.9012 0.81748 11.2184 0.553772C11.9101 0.415033 12.6075 0.302165 13.3066 0.205067C13.8037 0.135888 14.3092 0.0965816 14.812 0.070711C15.5846 0.0330724 16.3582 0.00353332 17.1322 0.000484119C17.8186 -0.00351796 18.5064 0.0176362 19.1922 0.0512251C19.8882 0.0848139 20.5876 0.129171 21.2803 0.200732C23.3353 0.412032 25.3443 0.824865 27.2544 1.64824C27.9664 1.95531 28.6724 2.27776 29.2952 2.75449C30.2199 3.46228 30.8862 4.38105 31.4039 5.42078C31.9216 6.46046 32.2478 7.57342 32.4977 8.70853C32.6718 9.53082 32.7981 10.3628 32.8758 11.2002C33.0022 12.4626 33.0157 13.7287 32.9879 14.9962C32.9717 15.7457 32.9216 16.4948 32.8659 17.2425C32.7758 18.4361 32.6544 19.6277 32.374 20.793C32.0174 22.2775 31.4317 23.6484 30.4566 24.833C29.4331 26.0759 28.148 26.9218 26.6296 27.3974C25.3873 27.7854 24.1255 28.1069 22.8388 28.3055C22.0433 28.4291 21.2457 28.5358 20.446 28.6256C19.9044 28.6861 19.3582 28.7093 18.8133 28.7341C18.2594 28.7593 17.7046 28.7825 17.1504 28.7778C16.5097 28.7724 15.8687 28.7375 15.228 28.7106C15.1199 28.7063 15.0387 28.7187 14.9588 28.8147C13.8706 30.1236 12.7784 31.4291 11.6824 32.7314C11.1488 33.3619 10.5929 33.9743 10.0444 34.5901C9.87069 34.7852 9.67777 34.9534 9.40564 34.9953C9.30621 35.0111 9.24821 34.9901 9.20515 34.8862C9.12824 34.7061 9.08857 34.5117 9.08847 34.3153C9.09176 33.2621 9.08847 32.209 9.08847 31.1575L9.11498 31.1552ZM19.1249 19.5588C18.9671 19.5316 18.8047 19.5195 18.6519 19.4748C17.3985 19.1126 16.2491 18.4512 15.2999 17.5459C14.0569 16.3701 13.1942 14.9424 12.643 13.3175C12.5104 12.9228 12.6005 12.5499 12.8617 12.2509C13.0672 12.0158 13.3314 11.8307 13.5773 11.6335C13.8548 11.4111 14.1362 11.1914 14.2734 10.8484C14.5054 10.2693 14.4059 9.72172 14.1077 9.19259C13.4245 7.98863 12.5939 6.89449 11.7106 5.83599C11.2983 5.3415 10.6437 5.14263 10.0056 5.44598C9.49848 5.68749 9.06059 6.02947 8.64067 6.39766C8.25421 6.7366 7.90254 7.10813 7.63139 7.55093C7.23365 8.19827 7.11435 8.88186 7.37882 9.61152C7.51373 9.98372 7.64399 10.36 7.80175 10.7221C8.57039 12.469 9.44776 14.1574 10.4988 15.7497C11.7792 17.69 13.3055 19.3976 15.1494 20.8051C17.2707 22.425 19.5909 23.6887 22.0463 24.7043C22.3913 24.8471 22.7477 24.9525 23.1215 24.973C23.6466 25.0002 24.1159 24.8148 24.5375 24.5216C25.3691 23.9444 25.9989 23.1778 26.4738 22.2835C26.5836 22.0677 26.6498 21.8319 26.6687 21.5898C26.7088 21.1286 26.507 20.7541 26.1626 20.4581C25.9969 20.3143 25.8235 20.1763 25.6551 20.0338C24.735 19.2565 23.7659 18.5507 22.7158 17.9628C22.4146 17.7948 22.1017 17.7082 21.7546 17.7276C21.2949 17.7518 20.918 17.9352 20.6307 18.3008C20.445 18.5359 20.2694 18.7808 20.0795 19.0129C19.8345 19.3149 19.5475 19.5524 19.1265 19.5588H19.1249ZM27.327 14.6747C27.2995 14.2403 27.2866 13.8043 27.2418 13.372C27.171 12.6785 27.04 11.9928 26.8501 11.3227C26.4997 10.0909 25.9717 8.94704 25.1759 7.94528C23.8146 6.23205 22.0738 5.10433 19.9787 4.5386C19.4527 4.39653 18.9181 4.29033 18.3745 4.25846C17.9714 4.23492 17.5677 4.21344 17.1643 4.2121C17.0509 4.21148 16.9416 4.25522 16.8591 4.33416C16.7767 4.41311 16.7274 4.52121 16.7215 4.63603C16.7019 4.93266 16.8422 5.14196 17.105 5.18966C17.2425 5.21453 17.3834 5.22086 17.5233 5.23263C17.9383 5.26622 18.3569 5.27732 18.7672 5.34116C19.7139 5.48862 20.6233 5.76677 21.4775 6.21457C23.2919 7.16592 24.6615 8.55031 25.4775 10.4658C26.0111 11.7181 26.2312 13.0384 26.2856 14.3929C26.2929 14.5722 26.2892 14.7536 26.3154 14.9303C26.3465 15.1433 26.4811 15.279 26.6886 15.3362C26.8766 15.3879 27.0293 15.3217 27.1646 15.1964C27.3177 15.0553 27.3277 14.8675 27.327 14.6747ZM18.2001 6.75209C18.1544 6.75209 18.1089 6.74937 18.0635 6.75209C17.8206 6.76819 17.6499 6.91298 17.5869 7.1552C17.5332 7.36145 17.6058 7.57947 17.7977 7.68362C17.9219 7.74694 18.057 7.78548 18.1955 7.79715C18.688 7.84685 19.1759 7.91807 19.6539 8.05381C21.1872 8.49051 22.3556 9.39484 23.103 10.8316C23.5206 11.6345 23.7132 12.4952 23.7268 13.4002C23.725 13.5757 23.7344 13.7512 23.7549 13.9256C23.7914 14.1755 24.0267 14.3579 24.2567 14.3364C24.555 14.3082 24.7297 14.1211 24.7404 13.8365C24.7673 13.2554 24.7247 12.6732 24.6134 12.1024C24.3698 10.9126 23.861 9.85808 23.0496 8.95814C22.212 8.02927 21.1749 7.43501 19.9946 7.07692C19.4089 6.90121 18.8053 6.82227 18.2001 6.75209ZM22.2544 12.8415C22.213 12.557 22.1908 12.2681 22.1265 11.9889C21.9459 11.2065 21.565 10.5444 20.9247 10.0523C20.5057 9.72944 20.0102 9.59909 19.514 9.47112C19.2316 9.39822 18.9475 9.3673 18.6592 9.44658C18.39 9.52048 18.3121 9.73411 18.3181 9.92359C18.3267 10.2014 18.511 10.3912 18.7526 10.4218C19.0186 10.4501 19.2827 10.4935 19.5438 10.5518C20.3118 10.7383 20.8408 11.2048 21.0559 11.9849C21.1484 12.3208 21.1885 12.6715 21.2405 13.0175C21.2704 13.2171 21.3549 13.3636 21.5408 13.4428C21.7268 13.5221 21.9001 13.4956 22.0626 13.3689C22.2392 13.2312 22.2379 13.0407 22.2544 12.8415Z" fill="#FBFBFB"></path><path d="M19.1263 19.5592C19.5473 19.5529 19.8343 19.3154 20.0809 19.013C20.2709 18.7809 20.4455 18.537 20.6322 18.3008C20.9195 17.9354 21.295 17.7519 21.7561 17.7278C22.1015 17.7093 22.4143 17.7949 22.7173 17.9629C23.768 18.5508 24.7365 19.2566 25.6566 20.0339C25.825 20.1764 25.9971 20.3144 26.1641 20.4582C26.5085 20.7542 26.7103 21.1301 26.6702 21.59C26.6515 21.8312 26.5857 22.0663 26.4766 22.2817C26.0017 23.1752 25.3719 23.9425 24.5403 24.5196C24.1177 24.8129 23.6494 24.9983 23.1243 24.9711C22.7505 24.952 22.3951 24.8465 22.0491 24.7024C19.594 23.6869 17.2762 22.4231 15.1522 20.8032C13.3084 19.3956 11.782 17.6881 10.5016 15.7478C9.45056 14.1554 8.57319 12.4674 7.80455 10.7202C7.64547 10.3581 7.51653 9.98118 7.38161 9.6096C7.11649 8.87998 7.23744 8.19634 7.63419 7.54901C7.90534 7.10625 8.25701 6.73473 8.64347 6.39574C9.06344 6.02622 9.50128 5.68561 10.0084 5.44406C10.6451 5.14171 11.301 5.33957 11.7137 5.83407C12.597 6.89262 13.4277 7.98671 14.1108 9.19072C14.4111 9.7198 14.5115 10.2674 14.2765 10.8465C14.138 11.1895 13.8566 11.4092 13.5804 11.6316C13.3345 11.8288 13.0704 12.0132 12.8649 12.249C12.6037 12.548 12.5125 12.9209 12.6461 13.3156C13.1973 14.9405 14.0601 16.3665 15.303 17.544C16.2516 18.4494 17.4005 19.1112 18.6534 19.4739C18.8062 19.5199 18.9686 19.532 19.1263 19.5592Z" fill="#333339"></path><path d="M27.327 14.6749C27.327 14.8678 27.3178 15.0555 27.1646 15.1973C27.0294 15.3226 26.8766 15.3888 26.6887 15.3371C26.4799 15.2799 26.3466 15.1442 26.3155 14.9313C26.2893 14.7542 26.2929 14.5728 26.2856 14.3938C26.2313 13.0393 26.0112 11.7191 25.4775 10.4667C24.6615 8.55191 23.2919 7.16686 21.4776 6.21551C20.6241 5.7677 19.7139 5.48956 18.7673 5.34205C18.3569 5.27826 17.9386 5.26882 17.5233 5.23357C17.3835 5.2218 17.2426 5.21541 17.105 5.19054C16.8422 5.14285 16.702 4.9336 16.7215 4.63697C16.7274 4.52196 16.7767 4.41367 16.8593 4.33462C16.9419 4.25558 17.0514 4.21189 17.165 4.21266C17.5684 4.21266 17.9721 4.23552 18.3752 4.25901C18.9197 4.29093 19.4534 4.39708 19.9794 4.53921C22.0745 5.10488 23.8153 6.23294 25.1766 7.94588C25.9721 8.94764 26.5004 10.0915 26.8508 11.3233C27.0407 11.9934 27.1718 12.6791 27.2425 13.3725C27.2866 13.8045 27.2995 14.2406 27.327 14.6749Z" fill="#333339"></path><path d="M18.2003 6.75252C18.8055 6.82275 19.4091 6.90169 19.9954 7.07907C21.1758 7.43583 22.2129 8.03009 23.0505 8.96029C23.8618 9.86023 24.3706 10.9147 24.6143 12.1046C24.7255 12.6753 24.7682 13.2576 24.7412 13.8387C24.7306 14.1232 24.5572 14.309 24.2576 14.3386C24.0276 14.36 23.7936 14.1776 23.7558 13.9277C23.7352 13.7533 23.7258 13.5779 23.7276 13.4023C23.714 12.4973 23.5214 11.6366 23.1038 10.8338C22.3564 9.39699 21.188 8.49266 19.6547 8.05596C19.1774 7.92156 18.6895 7.849 18.1963 7.7993C18.0578 7.78763 17.9227 7.74909 17.7986 7.68577C17.6066 7.58162 17.5334 7.3636 17.5878 7.1573C17.6507 6.91513 17.8198 6.77034 18.0644 6.75419C18.1092 6.74985 18.1546 6.75252 18.2003 6.75252Z" fill="#333339"></path><path d="M22.254 12.842C22.2375 13.0412 22.2388 13.2316 22.0621 13.3694C21.8997 13.496 21.7307 13.5236 21.5404 13.4433C21.3501 13.363 21.2699 13.2175 21.2401 13.018C21.1884 12.672 21.1479 12.3209 21.0555 11.9853C20.8404 11.2053 20.3114 10.7387 19.5434 10.5522C19.2823 10.4939 19.0181 10.4505 18.7522 10.4223C18.5106 10.3917 18.3263 10.2019 18.3177 9.92406C18.3117 9.73458 18.3896 9.52094 18.6587 9.44705C18.9471 9.36777 19.2312 9.39864 19.5135 9.47159C20.0108 9.59956 20.5053 9.72991 20.9242 10.0527C21.5646 10.5462 21.9454 11.207 22.1261 11.9894C22.1904 12.2685 22.2126 12.5574 22.254 12.842Z" fill="#333339"></path></svg> 