<?xml version="1.0" encoding="UTF-8"?> <svg xmlns="http://www.w3.org/2000/svg" width="20" height="21" viewBox="0 0 20 21" fill="none"><path d="M8.08936 2.20881C7.76514 2.30256 7.44873 2.49006 7.21045 2.73224C6.80029 3.14631 6.62451 3.49396 6.41748 4.28693C6.23389 5.00178 6.20264 5.57209 6.32373 5.91584C6.3667 6.04474 6.40186 6.15412 6.39404 6.15803C6.39014 6.16193 6.24561 6.13459 6.07373 6.09162C5.58545 5.97834 5.25342 5.95881 4.96436 6.03303C4.1167 6.25178 3.5542 6.91974 3.26123 8.06428C3.04248 8.91193 3.01904 9.43537 3.17529 9.81428L3.23389 9.95099L2.93311 9.87678C1.98389 9.64631 1.22998 9.91584 0.683106 10.6854C0.452637 11.0057 0.300293 11.3729 0.147949 11.9822C0.0385742 12.4119 0.019043 12.5487 0.019043 12.9705C0.019043 13.4471 0.0229492 13.4666 0.147949 13.7205C0.304199 14.0408 0.495606 14.2127 0.917481 14.4158C1.3042 14.6033 1.68701 14.701 2.52686 14.8299C3.8667 15.033 5.09326 15.3572 8.45654 16.3924C10.9878 17.1697 11.4448 17.2244 12.2026 16.8299C12.5308 16.658 13.0933 16.0838 13.3081 15.701C13.5581 15.2557 13.7144 14.744 13.7378 14.2947C13.7651 13.8377 13.7105 13.5877 13.5308 13.3377C13.4605 13.2322 13.4058 13.1463 13.4097 13.1385C13.4175 13.1346 13.48 13.1463 13.5542 13.1658C13.8081 13.2401 14.4331 13.283 14.6675 13.244C15.3628 13.1307 16.0737 12.5291 16.48 11.7127C16.6948 11.2713 16.7925 10.9197 16.8237 10.4705C16.8511 10.0018 16.7847 9.74006 16.5581 9.45881C16.4175 9.27912 16.4097 9.25959 16.4917 9.27912C17.4526 9.49787 17.8511 9.48224 18.394 9.21662C19.0425 8.90021 19.5698 8.23224 19.8667 7.36506C19.9605 7.09162 19.9722 6.99006 19.9761 6.54474C19.98 6.06428 19.9761 6.02521 19.8745 5.83771C19.7222 5.54865 19.4761 5.35334 18.9956 5.13849C18.7612 5.03303 18.3706 4.84943 18.1245 4.72443C17.8784 4.60334 17.4565 4.43146 17.187 4.34553C16.605 4.15803 13.7847 3.41193 11.8159 2.93146C11.0425 2.74006 10.0933 2.49396 9.70654 2.38459C8.89404 2.15412 8.45264 2.10724 8.08936 2.20881ZM9.08154 2.8299C9.48779 2.92365 10.9917 3.31037 11.0933 3.34553C11.1245 3.35724 11.0347 3.40412 10.898 3.4549C10.1011 3.73224 9.14014 4.38068 8.33545 5.17756C7.94092 5.57209 7.64014 5.97834 7.59717 6.18146C7.58154 6.24006 7.55811 6.29084 7.54639 6.29084C7.53076 6.29084 7.41358 6.23224 7.28467 6.15803C6.81201 5.89631 6.67529 5.56037 6.75342 4.85334C6.78076 4.63068 6.83545 4.33381 6.88233 4.18928C7.03467 3.68537 7.33936 3.16584 7.59326 2.96662C7.90576 2.72053 8.41748 2.67365 9.08154 2.8299ZM13.4253 3.90803L14.7222 4.22443L14.7065 4.3299C14.5894 5.00178 14.5815 5.65803 14.687 6.28303C14.8003 6.93928 15.0464 7.91974 15.1714 8.18537C15.2261 8.31037 15.269 8.41584 15.2651 8.41974C15.2573 8.42365 14.6675 8.23615 13.9526 8.00178C12.6128 7.56818 11.1011 7.11506 10.4019 6.93928C10.1792 6.88068 9.54639 6.74787 8.99561 6.63849C8.44092 6.52912 7.97608 6.43146 7.96045 6.42365C7.91748 6.39631 7.9917 6.23224 8.15186 5.98615C8.56201 5.36896 9.51123 4.58381 10.3511 4.16193C10.894 3.88849 11.9565 3.53303 12.0894 3.5799C12.1089 3.58771 12.7105 3.73615 13.4253 3.90803ZM16.062 4.57209C17.1167 4.84553 17.6362 5.02131 18.0503 5.24396C18.2925 5.36896 18.3237 5.41193 18.2105 5.44709C18.0972 5.48615 17.7573 5.83381 17.5776 6.09943C17.1323 6.75178 16.9331 7.68146 17.0855 8.40803C17.1167 8.54865 17.1714 8.72053 17.2026 8.78303L17.2651 8.90412L17.1167 8.88459C16.7378 8.8299 16.1792 8.69709 16.0659 8.62678C15.8862 8.5174 15.6401 8.22834 15.5347 7.99396C15.4175 7.74396 15.269 7.21271 15.1128 6.48615C15.0073 5.99006 14.9878 5.81818 14.9722 5.10724C14.9605 4.64631 14.9644 4.29865 14.9839 4.29865C15.0034 4.29865 15.4878 4.41974 16.062 4.57209ZM19.0269 5.73224C19.2495 5.85334 19.394 6.05256 19.3589 6.18928C19.3394 6.27521 19.0698 6.52912 18.7456 6.7674L18.605 6.87287L18.6792 6.59162C18.7183 6.43537 18.7651 6.15803 18.7769 5.96662C18.7886 5.77912 18.8081 5.62678 18.8198 5.62678C18.8276 5.62678 18.9214 5.67365 19.0269 5.73224ZM18.4565 5.96662C18.312 6.71662 18.1245 7.29474 17.9839 7.42756C17.8394 7.56037 17.6128 7.98615 17.5347 8.25959L17.4683 8.49787L17.4409 8.34553C17.398 8.12287 17.4487 7.49396 17.5386 7.13459C17.687 6.54865 18.0034 6.03303 18.355 5.80256C18.4331 5.75178 18.4995 5.70881 18.4995 5.70881C18.5034 5.7049 18.4839 5.82209 18.4565 5.96662ZM6.30811 6.75959C6.63233 6.84943 7.06983 6.96271 7.28467 7.0174C7.49951 7.07209 7.74561 7.13459 7.83154 7.15803L7.98779 7.19709L7.73389 7.28303C7.34717 7.41584 6.99951 7.59553 6.5542 7.88849C5.54639 8.55256 4.72217 9.34943 4.46826 9.90021C4.41357 10.0213 4.35889 10.119 4.35107 10.119C4.29639 10.119 4.00732 9.94318 3.88623 9.83771C3.62842 9.61506 3.57373 9.4549 3.57764 8.96662C3.58154 8.27521 3.74951 7.7049 4.10498 7.17365C4.4292 6.68928 4.70654 6.55256 5.33154 6.58381C5.62451 6.59553 5.8667 6.63849 6.30811 6.75959ZM19.394 6.86506C19.355 7.08771 19.1519 7.56428 18.9956 7.80646C18.7808 8.14631 18.3042 8.59943 18.0112 8.74396C17.8745 8.81428 17.7534 8.86115 17.7417 8.85334C17.7339 8.84162 17.7651 8.7049 17.812 8.54865C17.9995 7.92365 18.2417 7.60724 18.8472 7.18537C19.019 7.06428 19.2144 6.91193 19.2769 6.84943C19.4292 6.69709 19.4253 6.69709 19.394 6.86506ZM10.23 7.73615C10.9253 7.90803 11.5034 8.05646 11.5151 8.06818C11.5269 8.0799 11.5151 8.2674 11.4917 8.49006C11.4214 9.07209 11.4331 9.65803 11.523 10.1658C11.6323 10.8104 11.8862 11.7869 12.0034 12.033C12.0581 12.1502 12.1011 12.2479 12.0972 12.2557C12.0933 12.2596 11.5776 12.0955 10.9565 11.8924C9.72217 11.4901 7.97217 10.9588 7.28858 10.783C7.05029 10.7244 6.38623 10.5799 5.81201 10.4666C5.18311 10.3455 4.76514 10.2479 4.76514 10.2205C4.76514 10.076 5.10107 9.62678 5.50732 9.22053C6.14014 8.59162 6.8042 8.13849 7.57764 7.80646C7.94092 7.65412 8.68701 7.42756 8.85108 7.42365C8.91358 7.42365 9.53858 7.56428 10.23 7.73615ZM12.7378 8.36115C13.2417 8.49396 13.7925 8.6424 13.9644 8.70099C14.2886 8.80256 15.1167 9.17756 15.1167 9.21662C15.1167 9.22834 15.0425 9.28303 14.9526 9.33771C14.5972 9.55256 14.1245 10.2947 13.9644 10.8807C13.9292 11.0096 13.8901 11.326 13.8823 11.5838C13.8628 12.0369 13.9097 12.369 14.0386 12.6658C14.0737 12.7479 14.0737 12.7479 13.3862 12.6112C13.0386 12.5408 12.9331 12.5057 12.8003 12.4002C12.4292 12.1033 12.2339 11.6502 11.9683 10.451C11.8315 9.82209 11.8198 9.74006 11.8042 8.9549C11.7964 8.50178 11.7964 8.12678 11.8081 8.12678C11.8159 8.12678 12.2339 8.23224 12.7378 8.36115ZM15.8823 9.5799C15.9839 9.65021 16.105 9.75568 16.148 9.81428C16.269 9.98224 16.2026 10.0955 15.8003 10.4197C15.6089 10.5721 15.4487 10.6971 15.4448 10.6932C15.4409 10.6893 15.4683 10.5526 15.5112 10.3924C15.5503 10.2322 15.5972 9.9549 15.6089 9.77521C15.6245 9.59943 15.648 9.4549 15.6636 9.4549C15.6792 9.4549 15.7769 9.51349 15.8823 9.5799ZM15.2925 9.75568C15.2495 10.0447 15.0542 10.783 14.9605 10.994C14.9175 11.0994 14.8276 11.244 14.7651 11.3182C14.6167 11.4822 14.3901 11.9315 14.355 12.1229C14.3394 12.201 14.3081 12.2674 14.2886 12.2674C14.2261 12.2674 14.2769 11.3221 14.3511 10.9979C14.3901 10.8455 14.4956 10.5643 14.5894 10.369C14.7222 10.0916 14.812 9.96662 14.9995 9.79474C15.1323 9.66974 15.2573 9.57209 15.2808 9.57209C15.3081 9.57209 15.312 9.63459 15.2925 9.75568ZM3.10498 10.533C3.40576 10.6112 3.94092 10.7479 4.29248 10.8377L4.9292 11.0018L4.68701 11.0721C4.19092 11.2205 3.45264 11.6541 2.79248 12.1776C2.10107 12.7283 1.42529 13.4901 1.34717 13.8026C1.31201 13.9315 1.29248 13.9315 1.08154 13.826C0.577637 13.5721 0.409668 13.1697 0.503418 12.4393C0.589356 11.7987 0.804199 11.244 1.12451 10.8338C1.53076 10.3221 2.02295 10.244 3.10498 10.533ZM16.2105 10.7713C16.1831 10.8729 16.0737 11.1385 15.9683 11.3572C15.8042 11.6971 15.7261 11.8104 15.437 12.1033C15.1909 12.3533 15.0269 12.4862 14.8472 12.576C14.7105 12.6424 14.5894 12.6893 14.5776 12.6776C14.5425 12.6424 14.6558 12.283 14.8003 11.9744C14.9878 11.5721 15.1167 11.4276 15.644 11.0369C15.8823 10.8612 16.1089 10.6815 16.1519 10.6385C16.1948 10.5955 16.2378 10.5643 16.2456 10.5721C16.2534 10.5799 16.2378 10.6697 16.2105 10.7713ZM7.12842 11.5291C7.85889 11.7088 8.45654 11.8533 8.46045 11.8533C8.46436 11.8572 8.44092 12.0408 8.41358 12.2674C8.33936 12.8612 8.34717 13.4002 8.43701 13.9354C8.5542 14.6112 8.80811 15.5955 8.93311 15.8533L9.04248 16.0799L7.81201 15.6776C6.53858 15.2557 4.93311 14.7713 4.21826 14.5916C3.9917 14.533 3.33545 14.3924 2.75732 14.2791C2.18311 14.1619 1.70264 14.0604 1.69092 14.0487C1.63232 13.9901 1.96826 13.4979 2.3042 13.1502C3.20654 12.2166 4.07373 11.6893 5.31201 11.326C5.51514 11.2674 5.71045 11.2166 5.7417 11.2127C5.77295 11.2127 6.39795 11.3533 7.12842 11.5291ZM10.898 12.5057C11.1011 12.5721 11.4526 12.7088 11.6792 12.8182L12.0855 13.0135L11.9526 13.0916C11.4683 13.3807 11.0073 14.1268 10.8511 14.869C10.7534 15.3494 10.769 15.9119 10.8901 16.2713C10.9331 16.4002 10.9644 16.5135 10.9526 16.5213C10.9448 16.533 10.6948 16.4901 10.4058 16.4315C9.95264 16.3416 9.84717 16.3065 9.71436 16.201C9.37061 15.9276 9.16748 15.4783 8.94483 14.494C8.75733 13.6815 8.71045 13.283 8.71045 12.5721V11.9237L9.62061 12.1541C10.1167 12.283 10.6948 12.4393 10.898 12.5057ZM12.9214 13.4666C12.9878 13.5174 13.0698 13.6112 13.1011 13.6697C13.1519 13.7635 13.1519 13.7869 13.0894 13.8807C13.0269 13.9783 12.562 14.3768 12.4175 14.4549C12.3667 14.4862 12.3667 14.4549 12.4292 14.2088C12.4683 14.0526 12.5112 13.7752 12.5269 13.5877L12.5503 13.2479L12.6714 13.3104C12.7378 13.3416 12.8511 13.4119 12.9214 13.4666ZM12.1519 13.8651C12.023 14.4666 11.8589 14.9002 11.6831 15.1229C11.5034 15.3494 11.3081 15.7401 11.2651 15.9588C11.2417 16.0838 11.2339 16.0955 11.1987 16.0369C11.1401 15.9315 11.1948 15.1112 11.2886 14.7557C11.4292 14.201 11.7065 13.7283 12.0308 13.494C12.2495 13.3338 12.2573 13.3572 12.1519 13.8651ZM13.0503 14.8065C12.855 15.3416 12.6089 15.6971 12.1675 16.0916C11.9331 16.3026 11.5464 16.5252 11.4995 16.4744C11.4605 16.4354 11.6245 15.9393 11.7612 15.6854C11.9487 15.3299 12.0542 15.2205 12.5659 14.8416C12.8237 14.6502 13.062 14.4627 13.0933 14.4276C13.1909 14.3104 13.1714 14.4666 13.0503 14.8065Z" fill="#8F5633"></path></svg> 