<?xml version="1.0" encoding="UTF-8"?> <svg xmlns="http://www.w3.org/2000/svg" width="45" height="46" viewBox="0 0 45 46" fill="none"><path d="M18.2012 4.34481C17.4717 4.55575 16.7598 4.97763 16.2236 5.52255C15.3008 6.45419 14.9053 7.23642 14.4395 9.0206C14.0264 10.629 13.9561 11.9122 14.2285 12.6856C14.3252 12.9757 14.4043 13.2218 14.3867 13.2306C14.3779 13.2393 14.0527 13.1778 13.666 13.0811C12.5674 12.8263 11.8203 12.7823 11.1699 12.9493C9.2627 13.4415 7.99707 14.9444 7.33789 17.5196C6.8457 19.4268 6.79297 20.6046 7.14453 21.4571L7.27637 21.7647L6.59961 21.5977C4.46387 21.0792 2.76758 21.6856 1.53711 23.4171C1.01855 24.1378 0.675781 24.964 0.333008 26.3351C0.0869141 27.3018 0.0429688 27.6095 0.0429688 28.5587C0.0429688 29.6309 0.0517578 29.6749 0.333008 30.2462C0.68457 30.9669 1.11523 31.3536 2.06445 31.8106C2.93457 32.2325 3.7959 32.4522 5.68555 32.7423C8.7002 33.1993 11.46 33.9288 19.0273 36.2579C24.7227 38.0069 25.751 38.13 27.4561 37.2423C28.1943 36.8556 29.46 35.5636 29.9434 34.7022C30.5059 33.7003 30.8574 32.5489 30.9102 31.5382C30.9717 30.5099 30.8486 29.9474 30.4443 29.3849C30.2861 29.1476 30.1631 28.9542 30.1719 28.9366C30.1895 28.9278 30.3301 28.9542 30.4971 28.9981C31.0684 29.1651 32.4746 29.2618 33.002 29.1739C34.5664 28.919 36.166 27.5655 37.0801 25.7286C37.5635 24.7354 37.7832 23.9444 37.8535 22.9337C37.915 21.879 37.7656 21.2901 37.2559 20.6573C36.9395 20.253 36.9219 20.2091 37.1064 20.253C39.2686 20.7452 40.165 20.7101 41.3867 20.1124C42.8457 19.4005 44.0322 17.8976 44.7002 15.9464C44.9111 15.3311 44.9375 15.1026 44.9463 14.1007C44.9551 13.0196 44.9463 12.9317 44.7178 12.5099C44.375 11.8595 43.8213 11.42 42.7402 10.9366C42.2129 10.6993 41.334 10.2862 40.7803 10.005C40.2266 9.73251 39.2773 9.34579 38.6709 9.15243C37.3613 8.73056 31.0156 7.05185 26.5859 5.97079C24.8457 5.54013 22.71 4.98642 21.8398 4.74032C20.0117 4.22177 19.0186 4.1163 18.2012 4.34481ZM20.4336 5.74228C21.3477 5.95321 24.7314 6.82333 24.96 6.90243C25.0303 6.9288 24.8281 7.03427 24.5205 7.14853C22.7275 7.77255 20.5654 9.23153 18.7549 11.0245C17.8672 11.9122 17.1904 12.8263 17.0938 13.2833C17.0586 13.4151 17.0059 13.5294 16.9795 13.5294C16.9443 13.5294 16.6807 13.3976 16.3906 13.2306C15.3272 12.6417 15.0195 11.8858 15.1953 10.295C15.2568 9.79403 15.3799 9.12607 15.4854 8.80087C15.8281 7.66708 16.5137 6.49814 17.085 6.04989C17.7881 5.49618 18.9395 5.39071 20.4336 5.74228ZM30.207 8.16806L33.125 8.87997L33.0898 9.11728C32.8262 10.629 32.8086 12.1056 33.0459 13.5118C33.3008 14.9884 33.8545 17.1944 34.1357 17.7921C34.2588 18.0733 34.3555 18.3106 34.3467 18.3194C34.3291 18.3282 33.002 17.9063 31.3936 17.379C28.3789 16.4034 24.9775 15.3839 23.4043 14.9884C22.9033 14.8565 21.4795 14.5577 20.2402 14.3116C18.9922 14.0655 17.9463 13.8458 17.9111 13.8282C17.8145 13.7667 17.9814 13.3976 18.3418 12.8438C19.2647 11.4552 21.4004 9.68857 23.29 8.73935C24.5117 8.12411 26.9023 7.32431 27.2012 7.42978C27.2451 7.44736 28.5986 7.78134 30.207 8.16806ZM36.1397 9.6622C38.5127 10.2774 39.6816 10.6729 40.6133 11.1739C41.1582 11.4552 41.2285 11.5518 40.9736 11.6309C40.7188 11.7188 39.9541 12.5011 39.5498 13.0987C38.5479 14.5665 38.0996 16.6583 38.4424 18.2931C38.5127 18.6095 38.6357 18.9962 38.7061 19.1368L38.8467 19.4093L38.5127 19.3653C37.6602 19.2423 36.4033 18.9434 36.1484 18.7852C35.7441 18.5392 35.1904 17.8888 34.9531 17.3614C34.6895 16.7989 34.3555 15.6036 34.0039 13.9688C33.7666 12.8526 33.7227 12.4659 33.6875 10.8663C33.6611 9.82919 33.6699 9.04696 33.7139 9.04696C33.7578 9.04696 34.8477 9.31943 36.1397 9.6622ZM42.8106 12.2726C43.3115 12.545 43.6367 12.9933 43.5576 13.3009C43.5137 13.4942 42.9072 14.0655 42.1777 14.6017L41.8613 14.839L42.0283 14.2061C42.1162 13.8546 42.2217 13.2306 42.2481 12.7999C42.2744 12.378 42.3184 12.0352 42.3447 12.0352C42.3623 12.0352 42.5732 12.1407 42.8106 12.2726ZM41.5273 12.7999C41.2022 14.4874 40.7803 15.7882 40.4639 16.087C40.1387 16.3858 39.6289 17.3438 39.4531 17.9591L39.3037 18.4952L39.2422 18.1524C39.1455 17.6515 39.2598 16.2364 39.4619 15.4278C39.7959 14.1095 40.5078 12.9493 41.2988 12.4308C41.4746 12.3165 41.624 12.2198 41.624 12.2198C41.6328 12.211 41.5889 12.4747 41.5273 12.7999ZM14.1934 14.5841C14.9229 14.7862 15.9072 15.0411 16.3906 15.1642C16.874 15.2872 17.4277 15.4278 17.6211 15.4806L17.9727 15.5684L17.4014 15.7618C16.5313 16.0606 15.749 16.4649 14.7471 17.1241C12.4795 18.6183 10.625 20.4112 10.0537 21.6505C9.93067 21.9229 9.80762 22.1427 9.79004 22.1427C9.66699 22.1427 9.0166 21.7472 8.74414 21.5099C8.16406 21.0089 8.04102 20.6485 8.04981 19.5499C8.05859 17.9942 8.43652 16.711 9.23633 15.5157C9.96582 14.4259 10.5898 14.1183 11.9961 14.1886C12.6553 14.2149 13.2002 14.3116 14.1934 14.5841ZM43.6367 14.8214C43.5488 15.3224 43.0918 16.3946 42.7402 16.9395C42.2568 17.7042 41.1846 18.7237 40.5254 19.0489C40.2178 19.2071 39.9453 19.3126 39.9189 19.295C39.9014 19.2686 39.9717 18.961 40.0772 18.6095C40.499 17.2032 41.0439 16.4913 42.4063 15.5421C42.793 15.2696 43.2324 14.9268 43.3731 14.7862C43.7158 14.4434 43.707 14.4434 43.6367 14.8214ZM23.0176 16.7813C24.582 17.1681 25.8828 17.502 25.9092 17.5284C25.9355 17.5548 25.9092 17.9767 25.8564 18.4776C25.6982 19.7872 25.7246 21.1056 25.9268 22.2481C26.1729 23.6983 26.7441 25.8956 27.0078 26.4493C27.1309 26.713 27.2275 26.9327 27.2188 26.9503C27.21 26.9591 26.0498 26.5899 24.6523 26.1329C21.875 25.2276 17.9375 24.0323 16.3994 23.6368C15.8633 23.505 14.3691 23.1798 13.0771 22.9249C11.6621 22.6524 10.7217 22.4327 10.7217 22.3712C10.7217 22.046 11.4775 21.0352 12.3916 20.1212C13.8154 18.7061 15.3096 17.6866 17.0498 16.9395C17.8672 16.5968 19.5459 16.087 19.915 16.0782C20.0557 16.0782 21.4619 16.3946 23.0176 16.7813ZM28.6602 18.1876C29.7939 18.4864 31.0332 18.8204 31.4199 18.9522C32.1494 19.1808 34.0127 20.0245 34.0127 20.1124C34.0127 20.1388 33.8457 20.2618 33.6436 20.3849C32.8438 20.8683 31.7803 22.5382 31.4199 23.8565C31.3408 24.1466 31.2529 24.8585 31.2354 25.4386C31.1914 26.4581 31.2969 27.2052 31.5869 27.8731C31.666 28.0577 31.666 28.0577 30.1191 27.7501C29.3369 27.5919 29.0996 27.5128 28.8008 27.2755C27.9658 26.6075 27.5264 25.588 26.9287 22.8897C26.6211 21.4747 26.5947 21.2901 26.5596 19.5235C26.542 18.504 26.542 17.6602 26.5684 17.6602C26.5859 17.6602 27.5264 17.8976 28.6602 18.1876ZM35.7354 20.9298C35.9639 21.088 36.2363 21.3253 36.333 21.4571C36.6055 21.8351 36.4561 22.0899 35.5508 22.8194C35.1201 23.1622 34.7598 23.4434 34.751 23.4347C34.7422 23.4259 34.8037 23.1183 34.9004 22.7579C34.9883 22.3976 35.0938 21.7735 35.1201 21.3692C35.1553 20.9737 35.208 20.6485 35.2432 20.6485C35.2783 20.6485 35.4981 20.7804 35.7354 20.9298ZM34.4082 21.3253C34.3115 21.9757 33.8721 23.6368 33.6611 24.1114C33.5645 24.3487 33.3623 24.6739 33.2217 24.8409C32.8877 25.2101 32.3779 26.2208 32.2988 26.6515C32.2637 26.8272 32.1934 26.9767 32.1494 26.9767C32.0088 26.9767 32.1231 24.8497 32.29 24.1202C32.3779 23.7774 32.6152 23.1446 32.8262 22.7052C33.125 22.0811 33.3272 21.7999 33.749 21.4132C34.0479 21.1319 34.3291 20.9122 34.3818 20.9122C34.4434 20.9122 34.4522 21.0528 34.4082 21.3253ZM6.98633 23.0743C7.66309 23.2501 8.86719 23.5577 9.6582 23.7599L11.0908 24.129L10.5459 24.2872C9.42969 24.6212 7.76856 25.5968 6.2832 26.7745C4.72754 28.0138 3.20703 29.7276 3.03125 30.4308C2.95215 30.7208 2.9082 30.7208 2.43359 30.4835C1.2998 29.9122 0.921875 29.0069 1.13281 27.3634C1.32617 25.922 1.80957 24.6739 2.53027 23.7511C3.44434 22.5997 4.55176 22.4239 6.98633 23.0743ZM36.4736 23.6104C36.4121 23.839 36.166 24.4366 35.9287 24.9288C35.5596 25.6934 35.3838 25.9483 34.7334 26.6075C34.1797 27.17 33.8106 27.4688 33.4063 27.671C33.0986 27.8204 32.8262 27.9259 32.7998 27.8995C32.7207 27.8204 32.9756 27.0118 33.3008 26.3175C33.7227 25.4122 34.0127 25.087 35.1992 24.2081C35.7354 23.8126 36.2451 23.4083 36.3418 23.3116C36.4385 23.2149 36.5352 23.1446 36.5527 23.1622C36.5703 23.1798 36.5352 23.3819 36.4736 23.6104ZM16.0391 25.3155C17.6826 25.7198 19.0273 26.045 19.0361 26.045C19.0449 26.0538 18.9922 26.4669 18.9307 26.9767C18.7637 28.3126 18.7813 29.5255 18.9834 30.7296C19.2471 32.2501 19.8184 34.4649 20.0996 35.045L20.3457 35.5548L17.5772 34.6495C14.7119 33.7003 11.0996 32.6104 9.49121 32.2061C8.98145 32.0743 7.50488 31.7579 6.2041 31.503C4.91211 31.2393 3.83106 31.0108 3.80469 30.9845C3.67285 30.8526 4.42871 29.7452 5.18457 28.963C7.21484 26.8624 9.16602 25.6759 11.9521 24.8585C12.4092 24.7267 12.8486 24.6124 12.9189 24.6036C12.9893 24.6036 14.3955 24.92 16.0391 25.3155ZM24.5205 27.5128C24.9775 27.6622 25.7686 27.9698 26.2783 28.2159L27.1924 28.6554L26.8936 28.8311C25.8037 29.4815 24.7666 31.1602 24.415 32.8302C24.1953 33.9112 24.2305 35.1768 24.5029 35.9854C24.5996 36.2755 24.6699 36.5304 24.6436 36.5479C24.626 36.5743 24.0635 36.4776 23.4131 36.3458C22.3936 36.1436 22.1563 36.0645 21.8574 35.8272C21.084 35.212 20.627 34.2013 20.126 31.9864C19.7041 30.1583 19.5986 29.2618 19.5986 27.6622V26.2032L21.6465 26.7218C22.7627 27.0118 24.0635 27.3634 24.5205 27.5128ZM29.0732 29.6749C29.2227 29.7892 29.4072 30.0001 29.4775 30.1319C29.5918 30.3429 29.5918 30.3956 29.4512 30.6065C29.3106 30.8263 28.2647 31.7227 27.9395 31.8985C27.8252 31.9688 27.8252 31.8985 27.9658 31.3448C28.0537 30.9933 28.1504 30.3692 28.1856 29.9474L28.2383 29.1827L28.5107 29.3233C28.6602 29.3936 28.915 29.5518 29.0732 29.6749ZM27.3418 30.5714C27.0518 31.9249 26.6826 32.9005 26.2871 33.4015C25.8828 33.9112 25.4434 34.7901 25.3467 35.2823C25.2939 35.5636 25.2764 35.5899 25.1973 35.4581C25.0654 35.2208 25.1885 33.3751 25.3994 32.5753C25.7158 31.3272 26.3398 30.2638 27.0693 29.7364C27.5615 29.3761 27.5791 29.4288 27.3418 30.5714ZM29.3633 32.6895C28.9238 33.8936 28.3701 34.6934 27.377 35.5811C26.8496 36.0558 25.9795 36.5567 25.874 36.4425C25.7861 36.3546 26.1553 35.2384 26.4629 34.6671C26.8848 33.8673 27.1221 33.6212 28.2734 32.7686C28.8535 32.338 29.3897 31.9161 29.46 31.837C29.6797 31.5733 29.6357 31.9249 29.3633 32.6895Z" fill="white"></path></svg> 