<?xml version="1.0" encoding="UTF-8"?> <svg xmlns="http://www.w3.org/2000/svg" width="45" height="45" viewBox="0 0 45 45" fill="none"><path d="M32.9229 2.50492C28.6251 3.20805 23.1934 6.0645 18.0167 10.3536C15.6173 12.3487 12.4356 15.4424 10.5723 17.587C5.48347 23.458 2.34577 29.1621 1.56354 33.9258C1.38776 35.0157 1.43171 36.9141 1.65143 37.8194C2.27546 40.3594 4.03327 42.1524 6.55573 42.8116C7.59284 43.0752 9.27155 43.128 10.6426 42.9346C14.4132 42.3985 18.9747 40.2627 23.4659 36.9317C31.9385 30.6475 39.295 21.3663 41.3956 14.3174C43.0128 8.85942 41.9317 4.83402 38.3633 3.12016C37.9327 2.90922 37.3174 2.67191 37.001 2.59281C36.2012 2.39066 33.9512 2.33793 32.9229 2.50492ZM36.7374 3.43656C38.4864 3.87601 39.796 4.90434 40.5518 6.42484C41.0967 7.53226 41.2549 8.27055 41.2462 9.79985C41.2462 12.1377 40.6133 14.4756 39.1632 17.5342C35.1993 25.875 25.7159 35.4815 17.1817 39.8145C13.0684 41.8975 9.37702 42.6621 6.72272 41.9678C5.10554 41.5547 3.70807 40.4385 3.01374 39.0147C2.51276 38.0039 2.36335 37.4063 2.31061 36.1231C2.09968 31.3067 5.64167 24.3633 11.8292 17.4903C13.0596 16.1192 15.9776 13.2364 17.3135 12.0762C24.7667 5.56352 32.1319 2.29398 36.7374 3.43656Z" fill="white"></path><path d="M31.5967 9.55359C30.1816 9.66785 28.9775 9.98425 28.6524 10.327C28.3975 10.5907 28.3887 11.0038 28.6172 11.2587C29.2324 11.9442 31.166 12.2694 34.2334 12.1991C36.5625 12.1464 37.5293 11.9442 38.127 11.3993C38.3818 11.162 38.3906 10.705 38.1358 10.4501C37.4502 9.76453 34.2861 9.33386 31.5967 9.55359ZM35.6397 10.5028C36.1231 10.5731 36.7119 10.705 36.958 10.7841L37.3975 10.9247L37.0811 11.0302C36.334 11.2938 35.4287 11.3817 33.6182 11.3729C31.7549 11.3729 30.542 11.2411 29.751 10.951L29.3994 10.828L29.6543 10.7313C30.542 10.3798 33.9522 10.2479 35.6397 10.5028Z" fill="white"></path><path d="M24.9768 15.1171C23.1574 15.2841 21.7424 15.6884 21.5139 16.1103C21.3733 16.3827 21.4084 16.7783 21.593 16.9804C22.2609 17.7363 25.1174 18.1669 28.8176 18.079C31.6828 18.0087 33.3967 17.6747 33.7922 17.1035C33.9416 16.8925 33.9592 16.497 33.8361 16.2509C33.6164 15.8554 32.465 15.4775 30.7775 15.2402C29.6174 15.082 26.2072 15.0117 24.9768 15.1171ZM31.0236 16.1191C31.4807 16.1982 32.1311 16.3476 32.4738 16.4443L33.0803 16.6288L32.799 16.7519C31.5334 17.2792 27.4904 17.455 24.7658 17.0947C23.7287 16.9628 22.4104 16.6376 22.4104 16.5146C22.4104 16.4179 22.8938 16.2861 23.8166 16.1279C25.0031 15.9257 25.0559 15.9257 27.6838 15.9521C29.4856 15.9697 30.426 16.0136 31.0236 16.1191Z" fill="white"></path><path d="M19.0268 20.54C16.3549 20.7598 14.6323 21.2256 14.3247 21.7969C13.9907 22.4121 14.4565 22.9834 15.5815 23.335C17.2075 23.8535 19.3432 24.082 22.4985 24.082C26.2602 24.082 28.7036 23.6865 29.4682 22.9658C29.7407 22.6934 29.7934 22.2188 29.5649 21.9023C29.1518 21.3047 27.1479 20.7861 24.3969 20.5664C23.3598 20.4873 19.8706 20.4697 19.0268 20.54ZM23.729 21.3574C25.0913 21.4541 25.9262 21.5596 26.9809 21.7617C27.7544 21.9111 28.7124 22.2188 28.7827 22.3242C28.853 22.4385 28.4311 22.6318 27.7631 22.7988C25.5219 23.3525 20.9428 23.4404 17.8842 22.9834C16.3549 22.7549 15.0366 22.3506 15.1596 22.1484C15.2475 22.0078 16.2583 21.7354 17.2514 21.5771C19.0971 21.2871 21.5141 21.208 23.729 21.3574Z" fill="white"></path><path d="M13.4033 26.5518C12.3135 26.6572 11.2412 26.8682 10.7754 27.0703C10.2041 27.3076 10.0195 27.5273 10.0195 27.9492C10.0195 28.2568 10.0635 28.3271 10.3711 28.5557C10.7842 28.8545 11.7158 29.1182 13.0605 29.3291C13.7988 29.4434 14.625 29.4785 16.6553 29.4785C18.9844 29.4785 19.415 29.4521 20.3291 29.2852C21.9727 28.9775 22.5352 28.6699 22.5352 28.0635C22.5352 27.29 21.1553 26.7979 18.2812 26.543C17.0947 26.4375 14.5283 26.4463 13.4033 26.5518ZM17.4111 27.334C19.0195 27.4219 20.3027 27.6152 21.0937 27.8789L21.665 28.0635L21.3223 28.1777C19.6875 28.749 15.3896 28.8721 12.7881 28.4326C11.9707 28.292 11.1797 28.0723 11.0391 27.9404C10.8633 27.7822 12.5244 27.4482 14.1064 27.3428C15.4863 27.2461 15.873 27.2461 17.4111 27.334Z" fill="white"></path><path d="M8.4375 32.3964C8.31445 32.414 7.91895 32.4755 7.55859 32.5282C6.28418 32.7128 5.625 33.0995 5.625 33.6357C5.625 34.2069 6.30176 34.5849 7.84863 34.8661C8.90332 35.0595 12.542 35.0859 13.5352 34.9013C14.8623 34.664 15.4951 34.2861 15.4951 33.7499C15.4951 33.1962 14.8271 32.8183 13.377 32.5546C12.6475 32.4228 8.98242 32.2997 8.4375 32.3964ZM12.7529 33.3105C13.5615 33.4335 14.4141 33.662 14.4141 33.7587C14.4141 34.1278 10.2129 34.3739 8.48145 34.1103C7.54102 33.9609 6.67969 33.7499 6.67969 33.6532C6.67969 33.5214 7.7959 33.2929 8.96484 33.1874C9.61523 33.1259 12.0498 33.2138 12.7529 33.3105Z" fill="white"></path></svg> 