<?xml version="1.0" encoding="UTF-8"?> <svg xmlns="http://www.w3.org/2000/svg" width="45" height="45" viewBox="0 0 45 45" fill="none"><path d="M20.1699 10.3008C14.8613 10.4414 10.0361 11.1797 6.2832 12.4365C3.14551 13.4824 1.12402 14.7832 0.306641 16.2598L0.0429688 16.7432V22.5V28.2568L0.306641 28.7402C1.96777 31.7637 8.74414 34.0049 18.1484 34.6289C19.959 34.752 25.0391 34.752 26.8496 34.6289C36.2363 34.0049 43.0391 31.7549 44.6914 28.7402L44.9551 28.2568L44.9814 22.6934C44.999 18.9668 44.9727 17.0156 44.9111 16.7871C44.5859 15.5742 42.9424 14.1768 40.6924 13.1836C35.9639 11.1094 28.5898 10.0723 20.1699 10.3008ZM28.4756 11.5488C35.5859 12.2168 41.1318 13.9131 43.1445 16.04C44.2168 17.1738 44.208 18.2021 43.1006 19.3096C39.6289 22.7988 27.3506 24.7852 16.083 23.6777C9.31543 23.0186 4.02441 21.3926 1.94141 19.3447C0.728516 18.1494 0.763672 17.042 2.05566 15.8467C4.54297 13.5352 10.4844 11.9531 18.7197 11.3906C20.0645 11.3027 27.0254 11.417 28.4756 11.5488ZM2.13477 20.9092C7.79492 24.7148 22.209 26.1826 33.6172 24.1172C38.2139 23.291 42.0107 21.8408 43.6191 20.3203L43.9443 20.0039V23.8623V27.7295L43.7334 28.1689C42.582 30.5859 36.5 32.6865 28.3877 33.4512C25.1357 33.7588 19.0801 33.7061 15.5557 33.3457C8.20801 32.5898 2.43359 30.5068 1.28223 28.1865L1.05371 27.7383V23.8711V20.0039L1.3877 20.3203C1.56348 20.4873 1.90625 20.7598 2.13477 20.9092Z" fill="white"></path><path d="M26.8223 13.7637C26.6904 13.8516 26.6289 13.9834 26.6289 14.1943C26.6289 14.4668 26.8486 14.6777 30.4258 17.833C33.0801 20.1709 34.2842 21.1816 34.4248 21.1816C34.5391 21.1816 34.7061 21.1025 34.8115 20.9971C35.207 20.6016 35.1631 20.5576 31.3311 17.1562C29.3535 15.3984 27.6133 13.8867 27.4639 13.79C27.1475 13.5879 27.0771 13.5879 26.8223 13.7637Z" fill="white"></path><path d="M18.1045 13.8779C17.8584 14.3438 17.832 14.3174 22.0596 18.0527C25.4258 21.0234 26.1553 21.6211 26.3662 21.6211C26.6826 21.6211 26.9375 21.2871 26.8584 20.9795C26.832 20.8477 25.2939 19.4326 22.8066 17.2441C19.1943 14.0537 18.7725 13.7109 18.5 13.7109C18.2891 13.7109 18.1748 13.7637 18.1045 13.8779Z" fill="white"></path><path d="M10.168 14.3965C9.93946 14.6426 9.9922 14.9151 10.3086 15.2403C10.458 15.4073 11.9785 16.752 13.666 18.2461C15.3623 19.7315 16.8916 21.0762 17.0762 21.2432C17.4453 21.5684 17.8233 21.6211 18.043 21.375C18.2451 21.1465 18.2276 20.8829 17.999 20.6192C17.8848 20.4961 16.2236 19.0108 14.2988 17.3233C10.6074 14.0713 10.5195 14.0098 10.168 14.3965Z" fill="white"></path></svg> 