<?xml version="1.0" encoding="UTF-8"?> <svg xmlns="http://www.w3.org/2000/svg" width="45" height="45" viewBox="0 0 45 45" fill="none"><path d="M36.3875 2.8125C36.159 3.04102 36.1678 3.24316 36.4314 5.44922C36.5545 6.44238 36.6512 7.27734 36.6512 7.30371C36.6512 7.33887 36.449 7.38281 36.2117 7.41797C35.0252 7.57617 33.7684 8.15625 32.9861 8.9209C32.4676 9.42188 32.406 9.66797 32.7049 10.0547C32.9861 10.415 33.4432 10.3711 33.9793 9.93164C35.5262 8.65723 37.6707 8.41992 39.4197 9.34277C40.4656 9.89648 41.4236 11.0918 41.8191 12.3223C42.0476 13.043 42.0037 14.3877 41.7312 15.1611C41.2391 16.5498 40.5184 18.1758 39.49 20.2061C38.8924 21.3838 38.409 22.4121 38.409 22.5C38.409 22.5791 38.4881 22.7549 38.5935 22.8867C38.7342 23.0625 38.8484 23.1152 39.1033 23.1152C39.2791 23.1152 39.49 23.0625 39.5691 23.0098C39.6482 22.9482 40.0174 22.333 40.3865 21.6475C41.7049 19.2041 43.0672 15.9785 43.3045 14.7393C43.4627 13.9131 43.4187 12.832 43.199 11.9971C43.0232 11.3291 42.4432 10.1865 42.0476 9.7207C41.8894 9.53613 41.7752 9.35156 41.8016 9.3252C41.8279 9.29883 42.5486 8.73633 43.4012 8.08594C44.7019 7.09277 44.9656 6.85547 44.9832 6.64453C45.0359 6.23145 44.9305 5.98535 44.6316 5.83594C43.6824 5.34375 37.0994 2.63672 36.8533 2.63672C36.6775 2.63672 36.493 2.70703 36.3875 2.8125ZM40.325 5.5459C41.7137 6.13477 42.8562 6.61816 42.8738 6.63574C42.9002 6.65332 40.949 8.15625 40.7205 8.28809C40.6678 8.32324 40.3514 8.21777 40.0174 8.05078C39.6922 7.88379 39.1297 7.66406 38.7693 7.56738C38.409 7.4707 38.1101 7.37402 38.1014 7.36523C38.0662 7.32129 37.741 4.48242 37.7762 4.48242C37.7937 4.48242 38.9363 4.95703 40.325 5.5459Z" fill="white"></path><path d="M31.4033 11.1797C31.3066 11.2939 31.0957 11.7158 30.9375 12.1289C30.5156 13.21 29.4609 15.3984 28.8721 16.4004C26.4375 20.5576 23.0713 24.0117 19.2744 26.2705C16.1191 28.1426 12.9814 29.2852 9.62402 29.7949C8.94727 29.8916 8.17383 30.041 7.91016 30.1201C6.3457 30.5684 4.91309 31.8164 4.13965 33.416L3.72656 34.2598L2.3291 33.46C0.84375 32.6162 0.518555 32.5195 0.175781 32.8271C0 32.9854 0 33.0645 0 37.4062V41.8271L0.193359 41.959C0.597656 42.2402 0.870117 42.1436 2.84766 41.0098L4.74609 39.9287L5.43164 40.5967C6.62695 41.7832 8.07715 42.3633 9.79102 42.3633C10.8369 42.3633 12.7617 42.082 13.0605 41.8799C13.4648 41.6162 13.4209 41.0273 12.9727 40.7373C12.7705 40.6055 12.6738 40.6055 11.5752 40.7725C9.95801 41.0186 9.24609 41.0098 8.38477 40.7373C6.41602 40.0957 5.08008 38.4082 4.94824 36.3867C4.86035 35.042 5.36133 33.7412 6.37207 32.7305C7.36523 31.7373 7.93652 31.4824 9.8877 31.1924C10.5645 31.0957 11.3467 30.9551 11.6279 30.8936C12.0146 30.8057 12.1465 30.7969 12.1729 30.876C12.1992 30.9375 12.3311 31.377 12.4805 31.8604C12.6299 32.3438 12.8145 32.8096 12.9023 32.8887C13.1572 33.1348 13.6318 33.126 13.8867 32.8711C14.124 32.6338 14.1064 32.2734 13.7988 31.2891C13.6582 30.832 13.5703 30.4277 13.6055 30.4014C13.6406 30.3662 14.001 30.2344 14.4141 30.1025C14.8271 29.9707 15.7236 29.6279 16.418 29.3379C17.1123 29.0479 17.6836 28.8193 17.7012 28.8369C17.71 28.8545 17.9385 29.25 18.1934 29.707C18.4482 30.1641 18.7383 30.6299 18.835 30.7354C19.0898 31.0166 19.5381 31.0078 19.8369 30.709C20.1445 30.4014 20.083 30.0938 19.4766 29.0479C19.2041 28.582 19.002 28.1689 19.0283 28.125C19.0547 28.0898 19.3975 27.8613 19.8018 27.6328C20.1973 27.4043 20.8652 26.9736 21.2871 26.6924L22.0518 26.165L23.0889 27.1406C24.0117 28.0107 24.1611 28.125 24.4424 28.125C24.8467 28.125 25.1367 27.835 25.1367 27.4131C25.1367 27.1494 25.0312 27.0088 24.1787 26.1738L23.2207 25.2334L23.4404 25.0928C23.5547 25.0137 24.3809 24.2402 25.2686 23.3701L26.877 21.7881L27.8262 22.3242C28.8193 22.8691 29.1006 22.9395 29.417 22.7197C29.6455 22.5527 29.7598 22.0605 29.6279 21.8145C29.5752 21.709 29.1357 21.4102 28.6523 21.1377L27.7646 20.6455L28.0459 20.2764C28.5205 19.626 29.4873 18.1758 29.9707 17.3584C30.2256 16.9189 30.4453 16.5586 30.4541 16.541C30.4717 16.5234 30.9375 16.6553 31.5 16.8311C32.1152 17.0156 32.6162 17.1211 32.7393 17.0859C33.1348 16.9893 33.3721 16.5146 33.2227 16.1191C33.126 15.8643 32.8535 15.7324 31.9307 15.4688C31.5264 15.3545 31.2012 15.2139 31.2012 15.1699C31.2012 15.1172 31.3242 14.8184 31.4736 14.502C31.957 13.4912 32.6074 11.8477 32.6074 11.6455C32.6074 11.54 32.5283 11.3467 32.4229 11.2148C32.1855 10.9072 31.667 10.8896 31.4033 11.1797ZM2.52246 35.2266L3.48926 35.7715L3.54199 36.5449C3.56836 36.9844 3.68262 37.5996 3.80566 37.9951L4.02539 38.6719L3.41895 39.0234C2.84766 39.3574 1.61719 40.0605 1.46777 40.1396C1.43262 40.1572 1.40625 38.9268 1.40625 37.3975C1.40625 35.8682 1.44141 34.6289 1.47656 34.6465C1.51172 34.6553 1.98633 34.9189 2.52246 35.2266Z" fill="white"></path><path d="M37.4238 24.0557C37.3447 24.0733 36.958 24.5479 36.5625 25.1016C33.3633 29.6368 29.2061 33.4512 24.5742 36.1231C22.1309 37.5293 18.9229 38.918 16.4795 39.6387C14.9941 40.0694 14.6689 40.2188 14.5635 40.5352C14.4668 40.8516 14.6426 41.2207 14.9766 41.3789C15.2578 41.5196 15.46 41.4756 17.4023 40.8516C24.3984 38.6104 30.6123 34.5235 35.2617 29.1094C36.9932 27.0879 38.4082 25.1016 38.4082 24.6885C38.4082 24.2051 37.9512 23.9151 37.4238 24.0557Z" fill="white"></path></svg> 