<?xml version="1.0" encoding="UTF-8"?> <svg xmlns="http://www.w3.org/2000/svg" width="45" height="46" viewBox="0 0 45 46" fill="none"><path d="M24.5215 7.62797C24.1084 7.76859 23.502 7.99711 23.1592 8.11136C22.7725 8.25199 22.2188 8.36625 21.6914 8.41019C20.7334 8.48929 20.0566 8.74418 19.3096 9.32425L18.8877 9.64945L18.123 9.28031C17.7012 9.07816 16.6904 8.69144 15.873 8.42777C13.8691 7.7598 13.9043 7.74222 13.5176 9.95707L13.333 11.0293L12.4453 11.0821C9.43066 11.2842 7.38281 11.8028 5.18555 12.9453C4.48242 13.3057 3.2959 13.9034 2.54883 14.2725C1.80176 14.6328 1.11621 14.9932 1.03711 15.0723C0.887695 15.1953 0.878906 15.6524 0.878906 22.253C0.878906 28.7041 0.887695 29.3194 1.02832 29.4248C1.125 29.5127 1.47656 29.5479 2.27637 29.5567C3.80566 29.5655 4.86035 29.8379 5.73926 30.4444C5.92383 30.5762 6.46875 31.2002 6.95215 31.8418C8.37598 33.7315 8.82422 34.0567 10.3096 34.25C10.6787 34.294 11.1006 34.3907 11.2412 34.461C11.373 34.5313 11.8828 34.9532 12.3574 35.4014C12.832 35.8409 13.4561 36.3594 13.7373 36.544C14.2295 36.8692 14.4404 36.9307 15.7324 37.1592C16.5059 37.2911 17.3057 37.5987 18.2021 38.1172C19.5293 38.8819 19.9951 38.8203 21.1992 37.7393C22.7109 36.377 23.6953 35.6563 24.6797 35.1905C25.2158 34.9444 25.3828 34.9092 26.499 34.8477C30.0498 34.6543 32.4229 33.9688 34.0576 32.668C34.5674 32.2637 35.332 31.8946 36.0088 31.7364C36.3252 31.6661 37.3623 31.543 38.2939 31.4815C40.1484 31.3409 40.8164 31.2002 42.0381 30.6817C43.0752 30.2334 44.0156 29.6973 44.0684 29.5215C44.0859 29.4424 44.1035 27.2539 44.1035 24.67V19.9678L43.7695 18.8692C43.585 18.2627 43.3125 17.252 43.1543 16.628C42.9961 15.9952 42.8291 15.4327 42.7764 15.3711C42.7236 15.3008 42.2578 15.0371 41.7393 14.7823C39.9463 13.877 37.6523 12.9893 35.165 12.2334C33.4424 11.7061 33.2227 11.6006 31.9482 10.7657C31.3682 10.3789 30.2871 9.7725 29.54 9.41215C28.793 9.05179 27.8086 8.48929 27.3428 8.17289C26.0244 7.25883 25.7168 7.1973 24.5215 7.62797ZM26.7188 9.15726C27.2549 9.51761 28.2832 10.0977 28.9863 10.4405C29.6982 10.7832 30.7178 11.3457 31.2451 11.6973C32.5898 12.5938 32.8359 12.6993 35.0684 13.42C37.3271 14.1407 39.085 14.8086 40.4561 15.459L41.3965 15.9073L41.0273 16.1621C40.4033 16.5752 39.6562 16.751 38.0391 16.8477C35.4199 17.0059 34.875 17.1905 32.8184 18.5791C31.4209 19.5284 28.749 20.1875 26.2969 20.1875C25.875 20.1875 25.2949 20.2491 25.0137 20.3194C23.9238 20.6006 22.2627 21.6729 20.7861 23.0264C19.749 23.9756 19.5557 24.002 18.4482 23.4131C17.5254 22.9121 16.6289 22.6133 15.5742 22.4375C14.5898 22.2793 14.3789 22.1563 13.21 21.0664C12.0938 20.0118 11.6895 19.7832 10.6172 19.625C9.25488 19.4141 9.1582 19.3438 7.96289 17.7354C7.50586 17.1114 6.93457 16.4346 6.70605 16.2325C6.1875 15.7754 5.26465 15.3184 4.41211 15.1075L3.7793 14.958L5.4668 14.1055C7.93652 12.8662 9.53613 12.4268 12.4014 12.2334L13.2451 12.1719L13.3506 12.9366C13.5 14.0088 13.7461 14.6065 14.2559 15.1426C14.9238 15.8457 15.3721 16.0127 16.6377 16.0127C17.2002 16.0127 17.666 16.0303 17.666 16.0567C17.666 16.083 17.6045 16.294 17.5342 16.5313C17.0684 18.0694 17.7275 19.2559 19.3271 19.7569C20.4609 20.1084 23.1855 20.0557 25.2686 19.6338C26.0684 19.4756 26.0947 19.3614 25.7168 17.8848C25.2158 15.96 24.6006 14.6592 23.792 13.833C23.168 13.2002 22.6318 12.9453 21.7969 12.9102L21.1377 12.875L21.1289 12.4268C21.1113 11.8379 20.8389 11.2578 20.3203 10.7393C19.9248 10.335 19.916 10.3174 20.083 10.1944C20.5664 9.82523 21.3223 9.55277 21.8408 9.55277C22.5 9.55277 23.0361 9.41215 24.3896 8.90238C24.9697 8.68265 25.5059 8.50687 25.585 8.49808C25.6641 8.49808 26.1738 8.79691 26.7188 9.15726ZM15.7939 9.6055C17.0508 10.0274 18.2549 10.5987 18.9492 11.0909C19.9863 11.8291 20.2148 12.4795 19.7139 13.2266C19.4766 13.5606 18.668 14.2989 18.5186 14.2989C18.4834 14.2989 18.4131 14.1934 18.3691 14.0703C18.29 13.877 18.3252 13.7627 18.5977 13.3233C19.1426 12.4444 19.0898 11.6621 18.4922 11.6621C18.1494 11.6621 17.9473 11.8116 17.8857 12.1016C17.8506 12.2422 17.7979 12.3653 17.7715 12.3653C17.7363 12.3653 17.5166 12.0225 17.2793 11.6182C16.6113 10.4668 16.0928 9.86918 15.7412 9.83402C15.3896 9.79886 15.1172 10.0186 15.1172 10.335C15.1172 10.4756 15.3193 10.8272 15.6445 11.2666C15.9258 11.6446 16.1543 11.9786 16.1279 11.9961C16.1104 12.0137 15.9785 11.9434 15.8291 11.8291C15.4951 11.583 15.1523 11.6621 14.9414 12.0401C14.8271 12.251 14.8271 12.3037 14.9414 12.5147C15.126 12.8575 15.9258 13.2442 16.4355 13.2442C16.8311 13.2442 16.8398 13.2442 16.998 13.6573C17.0859 13.8946 17.209 14.2461 17.2793 14.4483C17.3936 14.8174 17.3936 14.8262 17.1738 14.8789C16.7871 14.9756 15.873 14.8702 15.5127 14.6856C14.7568 14.2989 14.335 13.0596 14.4492 11.6182C14.502 10.9327 14.7656 9.2891 14.8184 9.2891C14.8359 9.2891 15.2754 9.42972 15.7939 9.6055ZM22.5088 14.2813C23.124 14.6768 23.625 15.3799 24.0732 16.4961C24.3457 17.1905 24.7324 18.5088 24.6797 18.5616C24.5918 18.6495 22.3682 18.8692 21.5771 18.8692C20.0127 18.8692 18.9668 18.544 18.668 17.9727C18.4658 17.5772 18.5537 16.8741 18.8965 16.1709L19.1777 15.5996L19.3887 15.8018C19.582 15.9864 19.5908 16.0391 19.5469 16.5928C19.4414 17.6475 19.626 18.0782 20.1709 18.0782C20.5752 18.0782 20.7861 17.7705 20.6982 17.3223C20.6367 16.962 20.5928 16.9532 21.4014 17.5157C22.1133 18.0078 23.1416 18.5176 23.4316 18.5176C23.8711 18.5176 24.1084 18.1221 23.9414 17.6914C23.915 17.6123 23.5547 17.3838 23.1504 17.1905C22.3154 16.7862 22.1484 16.628 22.623 16.7159C23.0713 16.8037 23.3789 16.5928 23.3789 16.1973C23.3789 15.503 22.4209 15.3272 21.2695 15.8282C21.1113 15.8985 20.0039 14.8789 20.0566 14.712C20.0742 14.6592 20.3379 14.4746 20.6455 14.3164C21.3926 13.9385 21.9463 13.9297 22.5088 14.2813ZM3.98145 16.1973C4.78125 16.3819 5.4668 16.6983 5.91504 17.1026C6.1084 17.2784 6.60938 17.876 7.02246 18.4297C8.34082 20.1963 8.80664 20.5303 10.1865 20.7149C10.5996 20.7676 11.0742 20.8907 11.2588 20.9786C11.4346 21.0752 12.0059 21.5411 12.5156 22.0245C13.6758 23.0967 14.1855 23.3868 15.293 23.5625C16.3301 23.7295 16.8574 23.9141 17.9824 24.4854C18.7998 24.8985 18.9229 24.9336 19.4766 24.9336C20.2676 24.9248 20.6191 24.7666 21.4893 23.9668C22.8604 22.7188 24.0381 21.9102 25.0049 21.5498C25.4268 21.3916 25.7959 21.3477 26.8506 21.3037C29.8477 21.1807 32.2295 20.4864 33.9697 19.2295C34.3564 18.9483 34.8047 18.6495 34.9629 18.5703C35.543 18.2715 36.5889 18.0782 38.0918 17.9815C39.9199 17.8672 40.5439 17.7354 41.3789 17.2871C41.8096 17.0498 42.0293 16.9707 42.0469 17.0498C42.0645 17.1026 42.2578 17.7793 42.4775 18.544L42.873 19.9414L41.9766 20.3721C40.623 21.0225 39.8672 21.2071 38.0127 21.3213C35.6045 21.4707 34.6904 21.7344 33.4424 22.6397C31.667 23.9317 29.7686 24.4854 26.543 24.6612C24.9258 24.7491 24.6006 24.837 23.4668 25.4873C22.5791 25.9883 21.665 26.6914 20.6367 27.6495C20.1357 28.1153 19.7051 28.4493 19.5996 28.4493C19.5029 28.4493 19.2744 28.3526 19.0898 28.2383C18.0264 27.5703 16.585 27.0254 15.5566 26.9112C14.7217 26.8145 14.3525 26.6036 13.2539 25.5752C12.0498 24.459 11.5488 24.1953 10.415 24.0635C9.33398 23.9317 9.08789 23.7295 7.76953 21.9366C6.45996 20.1612 5.26465 19.5284 3.01465 19.4229L1.93359 19.3702V17.7178V16.0567H2.64551C3.03223 16.0567 3.62988 16.1182 3.98145 16.1973ZM4.15723 20.7061C5.43164 21.0401 5.8623 21.3741 7.05762 22.9473C8.44629 24.7842 8.75391 25.0039 10.2568 25.1973C11.127 25.3116 11.4697 25.5049 12.542 26.5245C13.6758 27.5879 14.2031 27.8692 15.3896 28.0537C16.374 28.1944 16.8223 28.3614 18.1758 29.0733C19.6523 29.8467 20.0654 29.7852 21.3223 28.6075C23.4229 26.6475 24.8818 25.8125 26.2266 25.8125C27.8613 25.8125 29.9883 25.4786 31.4033 25.0127C32.4668 24.6524 33.0908 24.3272 34.0312 23.6504C34.4619 23.3516 35.0244 23.0176 35.2969 22.9209C35.9385 22.6748 37.0635 22.4991 38.3643 22.4287C40.0781 22.3409 40.9043 22.1563 42.2666 21.5323C42.6182 21.3741 42.917 21.2422 42.9258 21.2422C42.9258 21.2422 42.9434 21.9541 42.9434 22.8155L42.9609 24.3887L42.0205 24.8282C40.5703 25.5137 40.0869 25.6368 38.1797 25.7774C35.3936 25.9795 34.6553 26.208 33.1787 27.2979C31.7109 28.3789 29.4873 28.9942 26.6309 29.1172C25.6201 29.1612 25.2246 29.2139 24.7061 29.3897C23.5371 29.7676 22.1924 30.6729 20.6279 32.1319C20.1533 32.5713 19.7051 32.9317 19.6348 32.9317C19.5645 32.9317 19.0635 32.6944 18.5186 32.4131C17.3496 31.7979 16.7256 31.5694 15.6621 31.4024C15.2227 31.3321 14.7129 31.1914 14.5283 31.1036C14.3438 31.0069 13.7637 30.5235 13.2363 30.0401C12.085 28.9678 11.5225 28.6602 10.5029 28.5459C10.1074 28.5108 9.67676 28.4141 9.53613 28.335C9.17578 28.1504 8.57812 27.5088 7.7959 26.4629C7.43555 25.9795 6.93457 25.3995 6.67969 25.1709C5.80078 24.3799 4.39453 23.9053 2.79492 23.8614L1.93359 23.835V22.1827V20.5391H2.70703C3.19043 20.5391 3.74414 20.6006 4.15723 20.7061ZM3.86719 25.127C5.19434 25.3819 5.8623 25.8389 6.88184 27.1924C8.37598 29.1963 8.78027 29.4864 10.2305 29.6709C11.1094 29.7764 11.417 29.9434 12.3838 30.8487C13.7373 32.1231 14.1592 32.3516 15.6357 32.5713C16.4268 32.6944 17.2002 32.9932 18.2285 33.5733C19.6084 34.3555 20.0391 34.2676 21.5332 32.8965C22.6494 31.8682 23.7217 31.0948 24.6006 30.6729C25.2246 30.3741 25.3213 30.3477 26.5342 30.2862C30.0674 30.084 32.335 29.4336 34.0312 28.1328C35.0859 27.3155 35.8594 27.0957 38.2764 26.9112C40.4121 26.7618 40.8076 26.6563 42.8467 25.7598C42.8994 25.7334 42.9346 26.2959 42.9434 27.3418L42.9609 28.959L42.0205 29.3985C40.5439 30.0928 40.0957 30.1983 38.083 30.3477C35.4902 30.5323 34.6641 30.7871 33.2842 31.7715C32.3877 32.4219 31.9131 32.6592 30.8496 33.002C29.5137 33.4327 27.5625 33.7227 26.0156 33.7227C25.6992 33.7227 25.2246 33.7842 24.9609 33.8545C23.8975 34.1358 22.2979 35.1553 20.918 36.4297C20.5049 36.8077 20.0479 37.212 19.8896 37.3262L19.6084 37.5284L18.3516 36.8955C17.0771 36.2627 16.5234 36.0782 15.4424 35.9287C14.6602 35.8145 14.2559 35.5684 13.1748 34.5489C12.085 33.5205 11.5312 33.2217 10.5205 33.1162C10.125 33.0811 9.67676 32.9844 9.53613 32.9053C9.18457 32.7207 8.57812 32.0791 7.91016 31.1739C6.45996 29.2051 5.45801 28.6426 3.05859 28.4317L1.93359 28.335V26.6827C1.93359 25.4522 1.95996 25.0215 2.04785 24.9864C2.18848 24.9336 3.25195 25.0127 3.86719 25.127Z" fill="white"></path></svg> 