<?xml version="1.0" encoding="UTF-8"?> <svg xmlns="http://www.w3.org/2000/svg" width="45" height="45" viewBox="0 0 45 45" fill="none"><path d="M13.3151 6.8291C11.3815 7.10156 9.69403 8.30566 8.8415 10.0195C8.19989 11.3291 8.0329 12.5244 8.31415 13.8691C8.56903 15.0908 9.37763 16.4883 10.2214 17.1562L10.5817 17.4463L7.90986 17.499C4.96552 17.5605 4.75458 17.5869 3.64716 18.1406C2.10028 18.9141 1.00165 20.2764 0.562199 21.9727C0.36005 22.7197 0.368839 24.1084 0.562199 24.873C0.825871 25.8838 1.29169 26.6924 2.06513 27.4834L2.76825 28.2129H1.77509C0.825871 28.2129 0.773136 28.2217 0.55341 28.4414C0.324894 28.6699 0.324894 28.6875 0.386418 29.5664C0.491886 31.2363 0.896183 32.2031 1.9245 33.2227C3.14618 34.4268 4.00751 34.7168 6.3454 34.7168H7.90986V36.3779V38.0479L8.13837 38.2236L8.37568 38.4082H22.4909C33.6882 38.4082 36.6501 38.3818 36.8259 38.2939L37.0456 38.1797L37.072 36.4482L37.0895 34.7168H38.6804C39.8493 34.7168 40.4206 34.6816 40.8161 34.5762C42.5915 34.1191 44.1032 32.5986 44.5163 30.8408C44.5866 30.5332 44.6481 29.874 44.6481 29.3818C44.6481 28.2217 44.6393 28.2129 43.277 28.2129H42.3015L42.9694 27.5273C44.7448 25.7344 45.1579 23.0537 44.0241 20.751C43.7341 20.1709 43.4968 19.8457 42.9431 19.292C42.152 18.4922 41.6071 18.1494 40.5612 17.7803L39.8581 17.5342L36.5886 17.5078L33.3102 17.4814L33.7936 17.0332C34.4616 16.4268 35.1032 15.4336 35.3933 14.5635C35.6042 13.9307 35.6306 13.7021 35.6393 12.7002C35.6393 11.7334 35.6042 11.4609 35.4372 10.9424C34.8747 9.24609 33.6179 7.86621 32.0446 7.2334C30.9372 6.77637 30.8229 6.77637 21.8845 6.78516C17.3142 6.78516 13.4645 6.81152 13.3151 6.8291ZM15.6442 8.12988C17.5602 8.81543 18.8874 10.6699 18.8962 12.6738C18.905 15.2578 16.6638 17.499 14.0798 17.4902C12.1198 17.4814 10.2477 16.1455 9.5622 14.2822C9.28095 13.4912 9.237 12.1465 9.47431 11.3643C9.93134 9.87891 11.0212 8.70996 12.4714 8.16504C13.3767 7.83105 14.7565 7.80469 15.6442 8.12988ZM30.9636 8.02441C32.572 8.49902 33.8024 9.6416 34.3474 11.1973C34.5231 11.6895 34.5671 11.9971 34.5759 12.6562C34.5759 13.5615 34.4528 14.0537 33.987 14.9854C33.4509 16.0752 32.027 17.1387 30.779 17.3936C30.5065 17.4463 29.2936 17.4902 27.8874 17.4902H25.4704L25.989 16.9805C27.1052 15.8994 27.6852 14.6865 27.8259 13.1221C27.8786 12.5684 27.861 12.4805 27.694 12.3135C27.237 11.8564 26.7976 12.1992 26.7184 13.0781C26.5427 14.915 25.3737 16.4707 23.6247 17.1826L22.9831 17.4463L20.2936 17.4727L17.6042 17.499L18.2809 16.8135C18.8347 16.251 19.0368 15.9609 19.362 15.293C19.5817 14.8359 19.8015 14.2471 19.8542 13.9922C19.9948 13.3242 19.9684 11.918 19.8102 11.25C19.5466 10.1074 18.7995 8.9209 17.8854 8.16504L17.4548 7.81348L23.9587 7.83984C29.7331 7.875 30.5065 7.89258 30.9636 8.02441ZM7.51435 18.7646C8.78876 19.0986 10.0192 20.1094 10.5729 21.2783C10.7399 21.6387 10.9245 22.1396 10.986 22.4033C11.1354 23.0537 11.0563 24.3369 10.819 25.0049C10.1599 26.8682 8.26142 28.2129 6.28388 28.2129C4.13056 28.2129 2.17939 26.666 1.62568 24.5215C1.43232 23.7832 1.48505 22.5879 1.74872 21.8408C2.25849 20.3906 3.56806 19.1777 5.07099 18.7646C5.65107 18.6064 6.89032 18.6064 7.51435 18.7646ZM23.6774 19.0898C23.0007 19.7139 22.3767 20.6895 22.0954 21.5684C21.4186 23.6953 21.9636 25.9893 23.5104 27.5537L24.1608 28.2129H20.5309H16.9011L17.5778 27.5273C18.6325 26.4551 19.2477 25.0488 19.2477 23.7129C19.2477 23.2031 19.2214 23.1064 19.0544 22.9922C18.5622 22.6406 18.2458 22.9307 18.1667 23.8008C18.0085 25.4883 16.9538 27 15.4421 27.7207C14.5192 28.1602 14.1149 28.2129 11.8034 28.2129H9.72919L10.0983 27.9229C10.9421 27.2549 11.7067 26.0332 12.0143 24.873C12.1901 24.1787 12.2165 22.7373 12.0495 22.0605C11.777 20.9443 10.986 19.6348 10.1774 18.9492L9.7995 18.6328H16.989H24.1872L23.6774 19.0898ZM29.153 18.8525C31.4733 19.5908 32.9147 22.0342 32.3962 24.3721C32.1765 25.3477 31.7985 26.0332 31.0778 26.7715C29.5573 28.3008 27.4567 28.6348 25.488 27.6592C24.7761 27.3076 23.8708 26.4199 23.4929 25.708C22.5085 23.8359 22.7897 21.6826 24.2048 20.1533C25.4704 18.791 27.3776 18.29 29.153 18.8525ZM39.9987 18.7734C40.8513 19.0283 41.5017 19.4238 42.152 20.0742C43.2419 21.1641 43.7341 22.5879 43.5231 24.0293C43.2155 26.1475 41.5192 27.8613 39.4186 28.1777L38.9792 28.2393L39.5593 27.6152C40.236 26.8857 40.7282 25.9717 40.9128 25.084C41.1677 23.8975 41.0446 23.3789 40.5085 23.3789C40.1569 23.3789 40.0075 23.5811 39.946 24.1436C39.8054 25.3301 39.4186 26.165 38.6364 26.9385C37.7751 27.7998 36.6589 28.2568 35.5515 28.1953L35.0593 28.1689L35.6042 27.7295C37.072 26.5605 38.0124 24.7676 38.1179 22.9219C38.1794 21.9551 38.1179 21.7969 37.6784 21.7969C37.2741 21.7969 37.0895 22.0166 37.0895 22.4912C37.0895 23.2031 36.8434 24.0996 36.4304 24.9434C35.6745 26.4727 34.2595 27.6064 32.5544 28.0371C32.1765 28.1338 31.7282 28.2129 31.5524 28.2129H31.2272L31.8952 27.5273C33.0378 26.3672 33.5739 25.0488 33.5739 23.3877C33.5739 21.8057 33.0378 20.4873 31.9304 19.3271L31.2624 18.6328H35.3933C38.9352 18.6328 39.5856 18.6504 39.9987 18.7734ZM43.5583 29.8477C43.3649 31.6934 42.152 33.1172 40.4118 33.5303C39.5768 33.7236 5.38739 33.7324 4.63153 33.5303C3.84931 33.3281 3.26044 32.9854 2.68036 32.3965C1.91571 31.6318 1.50263 30.6914 1.49384 29.6807V29.2676H22.5524H43.6198L43.5583 29.8477ZM36.0349 35.9912V37.2656H22.5436H9.05243V35.9912V34.7168H22.5436H36.0349V35.9912Z" fill="white"></path><path d="M13.2706 9.7117C11.7501 10.1424 10.7745 11.698 11.0733 13.2185C11.3458 14.616 12.4093 15.6004 13.754 15.7146C14.4395 15.7674 14.5889 15.6707 14.5889 15.1961C14.5889 14.8094 14.4923 14.7303 13.9034 14.6424C12.462 14.4226 11.7149 13.0252 12.3741 11.7683C12.8311 10.8982 13.8858 10.5027 14.8087 10.8455C15.4766 11.1004 16.0831 11.9617 16.0831 12.6473C16.0831 13.0252 16.2413 13.1834 16.6016 13.1834C17.0763 13.1834 17.1729 13.034 17.1202 12.3484C16.9708 10.5115 15.0723 9.21073 13.2706 9.7117Z" fill="white"></path><path d="M5.62389 20.4258C4.63952 20.6367 3.7694 21.375 3.41784 22.3154C3.16296 22.9922 3.2069 24.1084 3.51452 24.7412C3.98034 25.6992 4.93835 26.3584 5.98424 26.4375C6.52038 26.4727 6.57311 26.4639 6.71374 26.2705C6.79284 26.1563 6.85436 25.998 6.85436 25.9102C6.85436 25.6553 6.52917 25.4004 6.22155 25.4004C5.8612 25.4004 5.11413 25.0576 4.85924 24.7764C4.58678 24.4775 4.30553 23.8272 4.30553 23.4756C4.30553 22.7285 4.8153 21.9199 5.48327 21.6123C5.92272 21.4102 6.57311 21.4014 7.01256 21.5859C7.68932 21.8672 8.25182 22.6406 8.26061 23.2998C8.26061 23.7568 8.63854 24.0469 9.03405 23.8975C9.3153 23.792 9.3944 23.502 9.30651 22.9043C9.09557 21.6123 8.13756 20.6455 6.81042 20.3994C6.21276 20.2852 6.24792 20.2852 5.62389 20.4258Z" fill="white"></path><path d="M27.2907 20.3643C25.6999 20.5664 24.4606 22.1396 24.6452 23.7217C24.821 25.2158 26.1218 26.4551 27.5104 26.4551C28.0026 26.4551 28.2136 26.2969 28.2136 25.9277C28.2136 25.6113 28.0026 25.4004 27.695 25.4004C27.2907 25.4004 26.7018 25.1543 26.3766 24.8467C25.3923 23.9062 25.6032 22.3154 26.7985 21.6914C28.0905 21.0146 29.4704 21.7881 29.6901 23.3086C29.7429 23.6953 29.7956 23.792 29.989 23.8887C30.2966 24.0381 30.6481 23.8975 30.7272 23.5986C30.9821 22.5791 30.0241 20.9971 28.8903 20.584C28.3981 20.3994 27.7214 20.3115 27.2907 20.3643Z" fill="white"></path></svg> 