<?xml version="1.0" encoding="UTF-8"?> <svg xmlns="http://www.w3.org/2000/svg" width="20" height="21" viewBox="0 0 20 21" fill="none"><path d="M5.91783 3.53516C5.05846 3.65625 4.30846 4.19141 3.92955 4.95312C3.6444 5.53516 3.57018 6.06641 3.69518 6.66406C3.80846 7.20703 4.16783 7.82812 4.54283 8.125L4.70299 8.25391L3.51549 8.27734C2.2069 8.30469 2.11315 8.31641 1.62096 8.5625C0.93346 8.90625 0.445179 9.51172 0.249866 10.2656C0.160022 10.5977 0.163929 11.2148 0.249866 11.5547C0.367054 12.0039 0.574085 12.3633 0.917835 12.7148L1.23033 13.0391H0.788929C0.367054 13.0391 0.343616 13.043 0.24596 13.1406C0.144397 13.2422 0.144397 13.25 0.171741 13.6406C0.218616 14.3828 0.398304 14.8125 0.855335 15.2656C1.3983 15.8008 1.78112 15.9297 2.82018 15.9297H3.51549V16.668V17.4102L3.61705 17.4883L3.72252 17.5703H9.99596C14.9725 17.5703 16.2889 17.5586 16.3671 17.5195L16.4647 17.4688L16.4764 16.6992L16.4842 15.9297H17.1913C17.7108 15.9297 17.9647 15.9141 18.1405 15.8672C18.9296 15.6641 19.6014 14.9883 19.785 14.207C19.8163 14.0703 19.8436 13.7773 19.8436 13.5586C19.8436 13.043 19.8397 13.0391 19.2342 13.0391H18.8006L19.0975 12.7344C19.8866 11.9375 20.0702 10.7461 19.5663 9.72266C19.4374 9.46484 19.3319 9.32031 19.0858 9.07422C18.7342 8.71875 18.4921 8.56641 18.0272 8.40234L17.7147 8.29297L16.2616 8.28125L14.8046 8.26953L15.0194 8.07031C15.3163 7.80078 15.6014 7.35938 15.7303 6.97266C15.8241 6.69141 15.8358 6.58984 15.8397 6.14453C15.8397 5.71484 15.8241 5.59375 15.7499 5.36328C15.4999 4.60938 14.9413 3.99609 14.2421 3.71484C13.7499 3.51172 13.6991 3.51172 9.72643 3.51562C7.69518 3.51562 5.98424 3.52734 5.91783 3.53516ZM6.95299 4.11328C7.80455 4.41797 8.3944 5.24219 8.3983 6.13281C8.40221 7.28125 7.40612 8.27734 6.25768 8.27344C5.38658 8.26953 4.55455 7.67578 4.24987 6.84766C4.12487 6.49609 4.10533 5.89844 4.2108 5.55078C4.41393 4.89062 4.8983 4.37109 5.54283 4.12891C5.94518 3.98047 6.55846 3.96875 6.95299 4.11328ZM13.7616 4.06641C14.4764 4.27734 15.0233 4.78516 15.2655 5.47656C15.3436 5.69531 15.3631 5.83203 15.3671 6.125C15.3671 6.52734 15.3124 6.74609 15.1053 7.16016C14.8671 7.64453 14.2342 8.11719 13.6796 8.23047C13.5585 8.25391 13.0194 8.27344 12.3944 8.27344H11.3202L11.5506 8.04688C12.0467 7.56641 12.3046 7.02734 12.3671 6.33203C12.3905 6.08594 12.3827 6.04688 12.3085 5.97266C12.1053 5.76953 11.91 5.92188 11.8749 6.3125C11.7967 7.12891 11.2772 7.82031 10.4999 8.13672L10.2147 8.25391L9.0194 8.26562L7.82408 8.27734L8.12487 7.97266C8.37096 7.72266 8.4608 7.59375 8.60534 7.29688C8.70299 7.09375 8.80065 6.83203 8.82409 6.71875C8.88659 6.42188 8.87487 5.79688 8.80455 5.5C8.68737 4.99219 8.35534 4.46484 7.94908 4.12891L7.75768 3.97266L10.6483 3.98438C13.2147 4 13.5585 4.00781 13.7616 4.06641ZM3.33971 8.83984C3.90612 8.98828 4.45299 9.4375 4.69908 9.95703C4.7733 10.1172 4.85533 10.3398 4.88268 10.457C4.94908 10.7461 4.91393 11.3164 4.80846 11.6133C4.51549 12.4414 3.67174 13.0391 2.79283 13.0391C1.8358 13.0391 0.968616 12.3516 0.722522 11.3984C0.636585 11.0703 0.660022 10.5391 0.77721 10.207C1.00377 9.5625 1.5858 9.02344 2.25377 8.83984C2.51158 8.76953 3.06237 8.76953 3.33971 8.83984ZM10.5233 8.98438C10.2225 9.26172 9.94518 9.69531 9.82018 10.0859C9.5194 11.0312 9.76159 12.0508 10.4491 12.7461L10.7381 13.0391H9.12487H7.51158L7.81237 12.7344C8.28112 12.2578 8.55455 11.6328 8.55455 11.0391C8.55455 10.8125 8.54284 10.7695 8.46862 10.7188C8.24987 10.5625 8.10924 10.6914 8.07408 11.0781C8.00377 11.8281 7.53502 12.5 6.86315 12.8203C6.45299 13.0156 6.2733 13.0391 5.24596 13.0391H4.32408L4.48815 12.9102C4.86315 12.6133 5.20299 12.0703 5.33971 11.5547C5.41783 11.2461 5.42955 10.6055 5.35533 10.3047C5.23424 9.80859 4.88268 9.22656 4.5233 8.92188L4.35533 8.78125H7.55065H10.7499L10.5233 8.98438ZM12.9569 8.87891C13.9881 9.20703 14.6288 10.293 14.3983 11.332C14.3006 11.7656 14.1327 12.0703 13.8124 12.3984C13.1366 13.0781 12.203 13.2266 11.328 12.793C11.0116 12.6367 10.6092 12.2422 10.4413 11.9258C10.0038 11.0938 10.1288 10.1367 10.7577 9.45703C11.3202 8.85156 12.1678 8.62891 12.9569 8.87891ZM17.7772 8.84375C18.1561 8.95703 18.4452 9.13281 18.7342 9.42188C19.2186 9.90625 19.4374 10.5391 19.3436 11.1797C19.2069 12.1211 18.453 12.8828 17.5194 13.0234L17.3241 13.0508L17.5819 12.7734C17.8827 12.4492 18.1014 12.043 18.1835 11.6484C18.2967 11.1211 18.2421 10.8906 18.0038 10.8906C17.8475 10.8906 17.7811 10.9805 17.7538 11.2305C17.6913 11.7578 17.5194 12.1289 17.1717 12.4727C16.7889 12.8555 16.2928 13.0586 15.8006 13.0312L15.5819 13.0195L15.8241 12.8242C16.4764 12.3047 16.8944 11.5078 16.9413 10.6875C16.9686 10.2578 16.9413 10.1875 16.746 10.1875C16.5663 10.1875 16.4842 10.2852 16.4842 10.4961C16.4842 10.8125 16.3749 11.2109 16.1913 11.5859C15.8553 12.2656 15.2264 12.7695 14.4686 12.9609C14.3006 13.0039 14.1014 13.0391 14.0233 13.0391H13.8788L14.1756 12.7344C14.6835 12.2188 14.9217 11.6328 14.9217 10.8945C14.9217 10.1914 14.6835 9.60547 14.1913 9.08984L13.8944 8.78125H15.7303C17.3046 8.78125 17.5936 8.78906 17.7772 8.84375ZM19.3592 13.7656C19.2733 14.5859 18.7342 15.2188 17.9608 15.4023C17.5897 15.4883 2.3944 15.4922 2.05846 15.4023C1.7108 15.3125 1.44908 15.1602 1.19127 14.8984C0.851429 14.5586 0.667835 14.1406 0.663929 13.6914V13.5078H10.0233H19.3866L19.3592 13.7656ZM16.0155 16.4961V17.0625H10.0194H4.0233V16.4961V15.9297H10.0194H16.0155V16.4961Z" fill="#8F5633"></path><path d="M5.89793 4.81629C5.22215 5.00769 4.78856 5.6991 4.92137 6.37488C5.04246 6.99597 5.51512 7.43347 6.11277 7.48425C6.41746 7.50769 6.48387 7.46472 6.48387 7.25379C6.48387 7.08191 6.4409 7.04675 6.17918 7.00769C5.53856 6.91004 5.20652 6.28894 5.49949 5.73035C5.70262 5.34363 6.17137 5.16785 6.58152 5.32019C6.8784 5.43347 7.14793 5.81629 7.14793 6.12097C7.14793 6.28894 7.21824 6.35925 7.3784 6.35925C7.58934 6.35925 7.63231 6.29285 7.60887 5.98816C7.54246 5.17175 6.69871 4.59363 5.89793 4.81629Z" fill="#8F5633"></path><path d="M2.49951 9.57805C2.06201 9.6718 1.67529 9.99992 1.51904 10.4179C1.40576 10.7187 1.42529 11.2148 1.56201 11.496C1.76904 11.9218 2.19482 12.2148 2.65966 12.2499C2.89795 12.2655 2.92138 12.2616 2.98388 12.1757C3.01904 12.1249 3.04638 12.0546 3.04638 12.0155C3.04638 11.9023 2.90185 11.789 2.76513 11.789C2.60498 11.789 2.27295 11.6366 2.15966 11.5116C2.03857 11.3788 1.91357 11.0898 1.91357 10.9335C1.91357 10.6015 2.14013 10.2421 2.43701 10.1054C2.63232 10.0155 2.92138 10.0116 3.1167 10.0937C3.41748 10.2187 3.66748 10.5624 3.67138 10.8554C3.67138 11.0585 3.83935 11.1874 4.01513 11.121C4.14013 11.0741 4.17529 10.9452 4.13623 10.6796C4.04248 10.1054 3.6167 9.6757 3.02685 9.56633C2.76123 9.51555 2.77685 9.51555 2.49951 9.57805Z" fill="#8F5633"></path><path d="M12.1292 9.55078C11.4222 9.64063 10.8714 10.3398 10.9534 11.043C11.0315 11.707 11.6097 12.2578 12.2269 12.2578C12.4456 12.2578 12.5394 12.1875 12.5394 12.0234C12.5394 11.8828 12.4456 11.7891 12.3089 11.7891C12.1292 11.7891 11.8675 11.6797 11.723 11.543C11.2855 11.125 11.3792 10.418 11.9105 10.1406C12.4847 9.83984 13.098 10.1836 13.1956 10.8594C13.219 11.0313 13.2425 11.0742 13.3284 11.1172C13.4651 11.1836 13.6214 11.1211 13.6565 10.9883C13.7698 10.5352 13.344 9.83203 12.8401 9.64844C12.6214 9.56641 12.3206 9.52734 12.1292 9.55078Z" fill="#8F5633"></path></svg> 