<?xml version="1.0" encoding="UTF-8"?> <svg xmlns="http://www.w3.org/2000/svg" width="45" height="46" viewBox="0 0 45 46" fill="none"><g clip-path="url(#clip0_401_834)"><path d="M29.4 0.561684C28.6881 0.649574 27.317 0.983559 26.5172 1.25602C23.3707 2.35465 20.6813 4.62223 19.0465 7.5402L18.6247 8.29606L18.2116 8.08512C15.7682 6.88102 12.9469 8.97282 13.4391 11.6271C13.5885 12.4445 13.861 12.9367 14.6344 13.7541L15.3024 14.466L11.5143 21.506C9.43129 25.3732 7.70864 28.6515 7.68227 28.7922C7.60317 29.1613 7.96352 29.5392 8.3854 29.5392C8.56118 29.5392 8.76333 29.4777 8.83364 29.4162C8.89516 29.3459 10.6002 26.217 12.6217 22.4728C14.6344 18.7287 16.3043 15.6349 16.3395 15.5998C16.3747 15.5558 17.3942 16.5314 18.6071 17.7531C20.7077 19.8625 20.8131 19.9855 20.9186 20.425C21.0065 20.8117 20.9977 20.9611 20.8747 21.3918C20.734 21.8752 20.6286 21.9982 19.029 23.6154C17.9567 24.6877 17.2711 25.4523 17.192 25.6545C16.7702 26.6652 17.2624 27.9132 18.2555 28.3351C18.6334 28.4933 19.442 28.4845 19.8463 28.3088C20.0485 28.2297 20.8131 27.5441 21.8854 26.4718C23.5026 24.8722 23.6256 24.7668 24.109 24.6261C24.5397 24.5031 24.6891 24.4943 25.0758 24.5822C25.5153 24.6877 25.6383 24.7931 27.7477 26.8937C28.9694 28.1066 29.945 29.1261 29.901 29.1613C29.8659 29.1964 27.2907 30.5939 24.1881 32.2638C19.8112 34.6193 18.4577 35.3048 18.2204 35.3048C17.6666 35.3048 16.0758 35.0324 15.0299 34.7687C12.5602 34.1271 10.1081 32.8615 8.08657 31.1828C7.31313 30.5324 6.99672 30.4269 6.67153 30.673C6.58364 30.7345 5.06313 33.4943 3.28774 36.799L0.0445759 42.8195L0.0182087 43.4435C-0.0257366 44.173 0.150045 44.5949 0.651021 45.0343C1.05532 45.3947 1.48598 45.5265 2.13637 45.4826C2.61977 45.4562 2.8395 45.3683 4.08754 44.7004C4.86098 44.2785 11.2418 40.8507 18.2643 37.0715L31.0348 30.1984L31.7467 30.8664C32.5641 31.631 33.0563 31.9123 33.8561 32.0617C35.2975 32.3254 36.7213 31.6134 37.3805 30.2951C37.8815 29.3107 37.8903 28.256 37.4157 27.2892L37.2047 26.8761L37.9606 26.4543C40.8258 24.8459 43.1198 22.1476 44.2096 19.089C44.7457 17.5685 44.9215 16.6105 44.9743 14.8703C45.0534 12.1545 44.6579 10.256 43.5153 7.98844C42.2848 5.53629 39.9645 3.21598 37.5123 1.98551C36.1149 1.28239 34.5504 0.790199 33.109 0.59684C32.4674 0.508949 29.9977 0.482582 29.4 0.561684ZM33.1618 2.04704C37.776 2.76774 41.6081 6.09 43.0495 10.6076C43.4362 11.8205 43.6032 12.9543 43.6032 14.3605C43.5944 17.3136 42.6364 19.9943 40.7819 22.2531C39.7184 23.5363 38.2682 24.714 36.8795 25.4084L36.0622 25.8215L35.7545 25.6369C35.5875 25.5402 35.1129 25.3732 34.7086 25.2765C33.0915 24.8634 32.4674 24.2658 32.0807 22.7453C31.8346 21.7609 31.5446 21.2248 30.9293 20.5744C30.2965 19.9152 29.7956 19.6427 28.7672 19.3615C27.862 19.1242 27.5456 18.9748 27.1149 18.5881C26.6666 18.2013 26.3854 17.674 26.1393 16.7511C25.8581 15.7052 25.5856 15.2131 24.9264 14.5715C24.276 13.9562 23.7399 13.6662 22.7643 13.4201C21.9206 13.2004 21.6569 13.0861 21.2262 12.6994C20.778 12.3127 20.4967 11.7853 20.2506 10.8537C20.1276 10.4054 19.9518 9.90446 19.8551 9.74625L19.6881 9.44743L19.987 8.8234C21.1471 6.40641 23.318 4.27067 25.7877 3.10172C28.1432 1.98551 30.5426 1.64274 33.1618 2.04704ZM17.57 9.37711C17.9831 9.57926 18.4577 10.1066 18.651 10.5636C18.7301 10.757 18.8883 11.2492 18.9938 11.6447C19.2135 12.4884 19.653 13.2267 20.2858 13.7804C20.8307 14.255 21.3668 14.5187 22.3249 14.7824C23.2653 15.0285 23.5905 15.2131 24.1266 15.8107C24.4342 16.1535 24.5661 16.3996 24.6979 16.883C25.0758 18.2189 25.1901 18.4914 25.5768 19.0011C26.0778 19.6691 26.8952 20.2843 27.5104 20.4689C27.7741 20.548 28.275 20.6974 28.6178 20.7941C29.1012 20.9347 29.3561 21.0754 29.6901 21.3742C30.279 21.9103 30.4372 22.1828 30.7184 23.1672C30.8415 23.6242 31.026 24.1603 31.1315 24.3537C31.6149 25.3117 32.5993 26.1466 33.61 26.4367C33.9528 26.5334 34.445 26.6828 34.6999 26.7531C35.6403 27.0343 36.3346 27.9132 36.3346 28.8097C36.3258 30.0929 35.0514 30.9982 33.8209 30.6027C33.3903 30.4533 33.0915 30.1808 29.8834 26.9992C26.7194 23.8615 26.3678 23.5363 25.9284 23.3781C25.234 23.1232 24.6979 23.0617 24.0739 23.1759C23.1071 23.3517 22.7643 23.5978 20.9538 25.382C19.1696 27.1574 19.0202 27.2541 18.6334 26.8673C18.2555 26.4894 18.3522 26.34 20.1188 24.547C21.903 22.7365 22.1491 22.3849 22.3249 21.4269C22.4391 20.8029 22.3776 20.2668 22.1227 19.5724C21.9645 19.133 21.6393 18.7814 18.5016 15.6173C15.32 12.4093 15.0475 12.1105 14.8981 11.6798C14.6344 10.8625 14.9069 10.0187 15.61 9.52653C16.2428 9.08707 16.902 9.03434 17.57 9.37711ZM9.49282 33.9513C11.2594 35.0236 13.5797 35.9552 15.4694 36.3332C16.2516 36.5002 16.2868 36.5177 16.0846 36.6232C15.9616 36.6847 12.7799 38.3986 9.00942 40.4289C5.23891 42.4591 2.06606 44.1115 1.9518 44.1115C1.67055 44.1203 1.40688 43.8478 1.40688 43.5578C1.40688 43.3996 2.4352 41.3957 4.22817 38.0558C5.78383 35.1642 7.11098 32.7121 7.18129 32.5978L7.29555 32.4045L7.9811 32.923C8.35024 33.2043 9.03579 33.6701 9.49282 33.9513Z" fill="white"></path></g><defs><clipPath id="clip0_401_834"><rect width="45" height="45" fill="white" transform="translate(0 0.5)"></rect></clipPath></defs></svg> 