<?xml version="1.0" encoding="UTF-8"?> <svg xmlns="http://www.w3.org/2000/svg" width="20" height="21" viewBox="0 0 20 21" fill="none"><path d="M1.40544 10.4783C1.33248 10.5829 1.3473 10.6322 2.19886 13.4651C3.05042 16.298 3.06524 16.3473 3.18381 16.3944C3.26087 16.425 3.36462 16.4227 3.4939 16.3839C3.62319 16.345 3.71097 16.2897 3.7584 16.2217C3.83137 16.117 3.81655 16.0677 3.21236 14.0578L2.59449 12.0023L4.39462 13.7355C5.38531 14.6865 6.23988 15.4799 6.28982 15.4897C6.4419 15.5267 6.739 15.4208 6.82292 15.3005C6.89588 15.1959 6.88106 15.1465 6.0295 12.3136C5.17794 9.48073 5.16312 9.43143 5.04455 9.38437C4.96748 9.35378 4.86374 9.35602 4.73445 9.39489C4.60517 9.43375 4.51738 9.48908 4.46996 9.55709C4.39699 9.66173 4.41181 9.71103 5.01486 11.7172L5.63386 13.7765L3.83374 12.0433C2.84191 11.0885 1.98848 10.2989 1.9374 10.2853C1.78646 10.2521 1.48935 10.3579 1.40544 10.4783Z" fill="#701515"></path><path d="M6.00261 9.09644C5.92964 9.20107 5.94446 9.25038 6.79603 12.0833C7.64759 14.9162 7.66241 14.9655 7.78097 15.0126C7.89361 15.0573 7.96179 15.0409 9.62333 14.5414C11.2849 14.042 11.3508 14.0181 11.4201 13.9186C11.4675 13.8506 11.4782 13.7647 11.4475 13.6623C11.4167 13.5599 11.3604 13.4942 11.2833 13.4636C11.1706 13.4189 11.1025 13.4352 9.72823 13.8483L8.29174 14.2801L8.01815 13.3699L7.74455 12.4598L8.79798 12.1431C9.78916 11.8452 9.85505 11.8212 9.92437 11.7218C10.0229 11.5806 9.94764 11.3303 9.78757 11.2667C9.67494 11.222 9.60676 11.2384 8.61558 11.5363L7.56216 11.853L7.19736 10.6394L6.83257 9.42587L8.26906 8.99406C9.6433 8.58097 9.7092 8.55703 9.77852 8.45762C9.82595 8.38961 9.83667 8.30369 9.80589 8.20129C9.77511 8.0989 9.71879 8.03313 9.64172 8.00254C9.52908 7.95783 9.46091 7.97419 7.79937 8.47364C6.13783 8.97309 6.07193 8.99704 6.00261 9.09644Z" fill="#701515"></path><path d="M10.5995 7.7146C10.5484 7.78785 10.5413 7.86854 10.5801 7.99748C10.6303 8.16435 12.8138 12.9621 12.9698 13.2378C13.0047 13.3017 13.0847 13.3769 13.1499 13.4028C13.2981 13.4616 13.6201 13.369 13.7113 13.2382C13.7441 13.1911 13.922 12.3933 14.098 11.4679C14.28 10.5448 14.4383 9.78602 14.4574 9.78027C14.4766 9.77451 15.027 10.3203 15.6877 10.99C16.3449 11.665 16.9331 12.2325 16.9913 12.2522C17.1347 12.3125 17.4544 12.2122 17.5456 12.0815C17.5857 12.0239 17.611 11.9171 17.6049 11.8445C17.583 11.5285 16.7593 6.32198 16.7091 6.15512C16.6419 5.93137 16.495 5.85972 16.246 5.93457C16.0162 6.00366 15.922 6.08986 15.9127 6.2498C15.9045 6.3267 16.0492 7.32935 16.2289 8.48278C16.4122 9.63099 16.5503 10.5943 16.5357 10.6152C16.5211 10.6361 16.0576 10.1883 15.5015 9.62355C14.9442 9.05502 14.4442 8.57266 14.3909 8.55148C14.3257 8.5256 14.2123 8.53072 14.0926 8.5667C13.9729 8.60269 13.8756 8.6609 13.8402 8.71701C13.8026 8.76553 13.6514 9.44364 13.5 10.2252C13.3474 11.003 13.2076 11.6322 13.1839 11.6227C13.1602 11.6133 12.7443 10.7335 12.2642 9.67456C11.7781 8.61325 11.346 7.69696 11.2968 7.63733C11.2534 7.58006 11.1684 7.52292 11.1148 7.51835C10.9422 7.49994 10.6797 7.59951 10.5995 7.7146Z" fill="#701515"></path></svg> 