<?xml version="1.0" encoding="UTF-8"?> <svg xmlns="http://www.w3.org/2000/svg" width="20" height="21" viewBox="0 0 20 21" fill="none"><path d="M9.34215 2.48272C9.08316 2.5363 8.70806 2.68812 8.44907 2.83548C8.26152 2.94265 3.62197 6.90793 2.50115 7.91711C1.31782 8.98435 0.455994 10.4669 0.143415 11.9717C0.040711 12.4674 0.00498774 13.4185 0.0764342 13.9276C0.415805 16.446 2.33146 18.1384 5.21165 18.4689C5.5019 18.5046 7.13178 18.5135 10.3469 18.5046C15.0266 18.4867 15.0623 18.4867 15.4598 18.3885C17.0494 18 18.2194 17.2677 19.0455 16.1558C19.7421 15.2136 20.0279 14.1642 19.9386 12.8916C19.8091 11.092 18.974 9.32372 17.6657 8.0868C17.0182 7.47504 11.8517 3.03643 11.5749 2.85781C11.1194 2.56309 10.78 2.46932 10.1013 2.45592C9.78423 2.44699 9.44039 2.46039 9.34215 2.48272ZM10.6907 3.29095C10.8425 3.34007 11.0613 3.44278 11.1819 3.52315C11.5436 3.76429 17.2281 8.70302 17.4781 8.98881C18.5855 10.2704 19.1839 11.7842 19.1928 13.3381C19.1973 14.4053 18.8356 15.3074 18.072 16.1201C17.3174 16.9238 16.2055 17.4954 15.0266 17.6874C14.4104 17.7857 5.72071 17.7857 5.05536 17.6874C2.87178 17.357 1.42052 16.1826 0.924861 14.3339C0.786434 13.8204 0.755176 12.9496 0.85788 12.3513C1.07222 11.0697 1.72863 9.80151 2.70209 8.81019C3.09951 8.40384 8.47586 3.73749 8.79291 3.52762C9.31983 3.17039 10.0164 3.08554 10.6907 3.29095Z" fill="#8F5633"></path><path d="M8.13707 5.42993C7.99418 5.48351 7.94506 5.56389 7.19934 6.85886C6.81085 7.53313 6.39557 8.25206 6.27947 8.44854C6.0294 8.86829 6.00261 9.03797 6.1723 9.20319C6.29286 9.32823 6.52953 9.35502 6.65009 9.25678C6.69028 9.22999 7.14575 8.4664 7.66374 7.56886C8.45858 6.18904 8.60594 5.90326 8.60594 5.7559C8.60594 5.50137 8.36928 5.33615 8.13707 5.42993Z" fill="#8F5633"></path><path d="M11.4229 5.54601C11.3693 5.61299 11.3291 5.71569 11.3291 5.77821C11.3291 5.88984 13.1108 8.9933 13.2626 9.14512C13.3787 9.26569 13.6333 9.24783 13.7627 9.11387C13.9726 8.90846 13.9414 8.83701 12.9724 7.17588C12.4812 6.32745 12.0346 5.5862 11.9855 5.52815C11.8471 5.38079 11.5479 5.38972 11.4229 5.54601Z" fill="#8F5633"></path><path d="M9.73105 5.97896C9.63281 6.08166 9.63281 6.09059 9.63281 8.02858C9.63281 9.87279 9.63728 9.97996 9.71766 10.0782C9.83822 10.2256 10.1419 10.2256 10.2624 10.0782C10.3428 9.97996 10.3473 9.87279 10.3473 8.02412V6.06827L10.2446 5.97449C10.1017 5.84053 9.85608 5.845 9.73105 5.97896Z" fill="#8F5633"></path></svg> 