<?xml version="1.0" encoding="UTF-8"?> <svg xmlns="http://www.w3.org/2000/svg" width="45" height="45" viewBox="0 0 45 45" fill="none"><path d="M21.0198 4.46111C20.4371 4.58168 19.5931 4.92328 19.0104 5.25484C18.5884 5.49597 8.14942 14.4178 5.62759 16.6885C2.96509 19.0898 1.02599 22.4254 0.322684 25.8113C0.0915997 26.9266 0.0112224 29.0666 0.171977 30.212C0.935561 35.8786 5.24579 39.6865 11.7262 40.43C12.3793 40.5103 16.0465 40.5304 23.2805 40.5103C33.8099 40.4701 33.8903 40.4701 34.7845 40.2491C38.3612 39.375 40.9936 37.7273 42.8523 35.2255C44.4197 33.1056 45.0627 30.7445 44.8618 27.881C44.5704 23.832 42.6916 19.8534 39.7478 17.0703C38.2909 15.6938 26.6663 5.70696 26.0434 5.30507C25.0186 4.64196 24.255 4.43097 22.7279 4.40083C22.0145 4.38073 21.2409 4.41087 21.0198 4.46111ZM24.0541 6.27964C24.3957 6.39016 24.888 6.62125 25.1593 6.8021C25.9731 7.34465 38.7631 18.4568 39.3258 19.0998C41.8175 21.9834 43.1638 25.3894 43.1839 28.8858C43.1939 31.287 42.3801 33.3166 40.662 35.1451C38.9641 36.9536 36.4623 38.2397 33.8099 38.6717C32.4234 38.8927 12.8716 38.8927 11.3746 38.6717C6.4615 37.9282 3.19617 35.2858 2.08094 31.1263C1.76948 29.9709 1.69915 28.0117 1.93023 26.6653C2.41249 23.7818 3.88943 20.9284 6.07971 18.6979C6.97391 17.7836 19.0707 7.28436 19.784 6.81215C20.9696 6.00837 22.537 5.81748 24.0541 6.27964Z" fill="white"></path><path d="M18.3079 11.0923C17.9864 11.2129 17.8759 11.3937 16.198 14.3074C15.3239 15.8245 14.3895 17.4421 14.1283 17.8842C13.5657 18.8286 13.5054 19.2104 13.8872 19.5822C14.1585 19.8635 14.691 19.9238 14.9622 19.7028C15.0526 19.6425 16.0775 17.9244 17.2429 15.9049C19.0313 12.8004 19.3629 12.1573 19.3629 11.8258C19.3629 11.2531 18.8304 10.8813 18.3079 11.0923Z" fill="white"></path><path d="M25.7012 11.3537C25.5807 11.5044 25.4902 11.7355 25.4902 11.8762C25.4902 12.1273 29.4991 19.1101 29.8407 19.4517C30.1019 19.723 30.6746 19.6828 30.9659 19.3814C31.4382 18.9192 31.3678 18.7585 29.1876 15.0209C28.0824 13.112 27.0777 11.4441 26.9672 11.3135C26.6557 10.982 25.9825 11.0021 25.7012 11.3537Z" fill="white"></path><path d="M21.8949 12.3278C21.6738 12.5589 21.6738 12.579 21.6738 16.9395C21.6738 21.089 21.6839 21.3301 21.8647 21.5511C22.136 21.8827 22.8192 21.8827 23.0905 21.5511C23.2713 21.3301 23.2814 21.089 23.2814 16.9294V12.5288L23.0503 12.3178C22.7288 12.0164 22.1762 12.0264 21.8949 12.3278Z" fill="white"></path></svg> 