<?xml version="1.0" encoding="UTF-8"?> <svg xmlns="http://www.w3.org/2000/svg" width="45" height="46" viewBox="0 0 45 46" fill="none"><g clip-path="url(#clip0_401_1241)"><path d="M17.5074 0.666878C16.9274 0.939339 16.5758 1.24696 15.6881 2.2577C14.5279 3.59364 14.4576 3.62 12.6119 3.53211L11.1705 3.47059L10.942 3.6991C10.6783 3.96278 10.652 4.34949 10.8893 4.63953C11.0387 4.8241 11.1617 4.85926 11.8824 4.91199C14.7477 5.11414 15.2486 4.93836 16.734 3.24207C17.1998 2.70594 17.7272 2.1786 17.8942 2.07313C18.3776 1.7743 18.8258 1.87098 20.3024 2.5741L21.5768 3.18055H22.4996H23.4225L24.6969 2.5741C26.1735 1.87098 26.6217 1.7743 27.1051 2.07313C27.2721 2.1786 27.7906 2.69715 28.2477 3.22449C29.1178 4.20887 29.3111 4.37586 29.9703 4.72742C30.3483 4.92957 30.4361 4.93836 32.2731 4.93836C34.066 4.93836 34.1891 4.94715 34.4264 5.12293C34.7692 5.37782 35.0152 5.84364 35.3844 6.94227C36.0699 8.99891 36.4567 9.39442 38.4606 10.08C39.6647 10.4931 40.1217 10.7304 40.3766 11.0731C40.5524 11.3104 40.5611 11.4335 40.5611 13.2265C40.5611 15.0634 40.5699 15.1513 40.7721 15.5292C41.1236 16.1884 41.2906 16.3817 42.275 17.2518C43.8658 18.6405 43.8922 18.7811 42.9254 20.8114L42.319 22.077V22.9999V23.9227L42.9254 25.1884C43.5231 26.4452 43.6637 26.9198 43.5582 27.3329C43.4879 27.6141 42.7408 28.4491 42.5563 28.4491C42.3717 28.4491 39.5328 27.579 39.4449 27.4911C39.4098 27.4647 39.4449 27.1835 39.5153 26.8671C39.6471 26.287 39.8932 24.6171 39.902 24.2479C39.902 23.9667 39.524 23.6151 39.2164 23.6151C38.6979 23.6151 38.5748 23.8349 38.399 24.9862C38.1969 26.3749 38.0475 27.0429 37.9508 27.0429C37.9069 27.0429 36.0875 26.4891 33.899 25.8036C24.1256 22.7538 22.6227 22.2968 22.4293 22.2968C22.1656 22.2968 21.7965 22.6659 21.7965 22.9296C21.7965 23.0438 22.8688 26.5682 24.1695 30.7606C25.4791 34.953 26.5426 38.4159 26.5426 38.4598C26.5426 38.495 26.3229 38.5741 26.0592 38.6356C23.5895 39.1893 20.5133 39.1102 18.1666 38.4247C12.5592 36.7987 8.2965 32.369 6.90783 26.7352C6.31017 24.2743 6.37169 21.0839 7.07482 18.6669C8.58654 13.4462 12.5328 9.36805 17.6744 7.72449C19.4586 7.15321 20.2145 7.04774 22.5436 7.04774C24.3981 7.05653 24.7672 7.0741 25.5758 7.24989C28.7047 7.92664 31.3766 9.32411 33.5651 11.4335C36.316 14.0966 37.9332 17.3222 38.4166 21.1542C38.5045 21.8134 38.566 22.0243 38.7242 22.1825C38.9967 22.455 39.4098 22.4462 39.6822 22.1649C39.9371 21.9188 39.9371 21.8573 39.7701 20.6268C39.357 17.5067 38.0475 14.4657 36.0611 12.0136C35.4283 11.2313 33.9254 9.75477 33.1783 9.19227C31.2272 7.69813 28.7223 6.52039 26.402 5.99305C24.5387 5.57996 21.8756 5.46571 20.0475 5.73817C12.3219 6.86317 6.36291 12.8222 5.23791 20.5477C5.05333 21.7782 5.05333 24.2216 5.23791 25.452C6.26623 32.5184 11.3815 38.1874 18.2809 39.9188C20.7594 40.5429 23.9498 40.578 26.4108 40.0067C26.7008 39.9364 26.9645 39.91 26.9908 39.9452C27.0787 40.0331 27.9488 42.872 27.9488 43.0565C27.9488 43.2411 27.1139 43.9882 26.8326 44.0585C26.4195 44.164 25.9449 44.0233 24.6881 43.4257L23.4225 42.8192H22.4996H21.5768L20.3024 43.4257C18.8258 44.1288 18.3776 44.2255 17.8942 43.9266C17.7272 43.8212 17.2086 43.3026 16.7516 42.7753C15.8815 41.7909 15.6881 41.6239 15.0289 41.2723C14.651 41.0702 14.5631 41.0614 12.7262 41.0614C10.9332 41.0614 10.8102 41.0526 10.5729 40.8768C10.2301 40.622 9.99279 40.1649 9.5797 38.9608C8.89415 36.9569 8.49865 36.5702 6.44201 35.8847C5.34337 35.5155 4.87755 35.2694 4.62267 34.9266C4.44689 34.6893 4.4381 34.5663 4.4381 32.7733C4.4381 30.9364 4.42931 30.8485 4.22716 30.4706C3.8756 29.8114 3.70861 29.6181 2.72423 28.7479C2.19689 28.2909 1.67833 27.7723 1.57287 27.6054C1.27404 27.122 1.37072 26.6737 2.07384 25.1972L2.68029 23.9227V22.9999V22.077L2.07384 20.8026C1.37072 19.3261 1.27404 18.8778 1.57287 18.3944C1.67833 18.2274 2.19689 17.7089 2.72423 17.2518C3.70861 16.3817 3.8756 16.1884 4.22716 15.5292C4.42931 15.1513 4.4381 15.0634 4.4381 13.2265C4.4381 11.4335 4.44689 11.3104 4.62267 11.0731C4.87755 10.7304 5.34337 10.4843 6.44201 10.1151C7.96251 9.60536 8.55138 9.22742 8.99962 8.45399C9.28087 7.97059 10.0192 5.85242 10.0192 5.51844C10.0192 5.15809 9.74669 4.89442 9.36876 4.89442C8.90294 4.89442 8.73595 5.11414 8.35802 6.23035C7.69884 8.17274 7.67248 8.19032 5.7213 8.85828C4.5172 9.28016 4.09533 9.50868 3.66466 9.98329C3.06701 10.6513 3.03185 10.7831 3.03185 12.8925C3.03185 15.16 3.0758 15.0458 1.72228 16.2235C0.254506 17.5067 -0.0443219 18.0165 0.0172015 19.1679C0.0523578 19.8358 0.0963031 19.9677 0.667592 21.1542C1.2213 22.3231 1.27404 22.4725 1.27404 22.9999C1.27404 23.5272 1.2213 23.6766 0.667592 24.8456C0.0963031 26.0321 0.0523578 26.164 0.0172015 26.8319C-0.0443219 27.9833 0.254506 28.4931 1.72228 29.7763C3.0758 30.954 3.03185 30.8397 3.03185 33.1073C3.03185 35.2167 3.06701 35.3485 3.66466 36.0165C4.09533 36.4911 4.5172 36.7196 5.73009 37.1415C7.67248 37.8095 7.69005 37.827 8.35802 39.7782C8.7799 40.9823 9.00841 41.4042 9.48302 41.8348C10.151 42.4325 10.2828 42.4677 12.3922 42.4677C14.6598 42.4677 14.5455 42.4237 15.7233 43.7772C17.0065 45.245 17.5162 45.5438 18.6676 45.4823C19.3356 45.4472 19.4674 45.4032 20.6539 44.8319C21.8229 44.2782 21.9723 44.2255 22.4996 44.2255C23.027 44.2255 23.1764 44.2782 24.3453 44.8319C25.5406 45.4032 25.6637 45.4472 26.3317 45.4823C27.3336 45.535 27.8346 45.3065 28.7486 44.3573C29.1178 43.9706 29.4518 43.5575 29.4781 43.4432C29.5045 43.3202 29.4166 42.872 29.2672 42.3798L29.0123 41.5184L29.4781 41.0087C30.0934 40.3495 30.7789 39.3124 31.0338 38.6708C31.1656 38.328 31.2447 37.9149 31.2711 37.414C31.3151 36.3768 31.1305 35.9022 30.2604 34.9003C29.4693 33.9774 29.1002 33.4237 28.8014 32.703C28.2652 31.411 28.318 30.9188 29.2145 28.9061C29.6715 27.8778 29.9703 26.9022 29.9703 26.4013C29.9703 26.164 30.0055 26.0673 30.0846 26.1024C30.8756 26.4013 42.5651 29.9696 42.7672 29.9784C43.2682 29.9784 44.4547 28.8182 44.8326 27.9569C44.9908 27.6141 45.0172 27.4208 44.982 26.8319C44.9469 26.164 44.9029 26.0321 44.3317 24.8456C43.7779 23.6766 43.7252 23.5272 43.7252 22.9999C43.7252 22.4725 43.7779 22.3231 44.3317 21.1542C44.9029 19.9677 44.9469 19.8358 44.982 19.1679C45.0436 18.0165 44.7447 17.5067 43.277 16.2235C41.9235 15.0458 41.9674 15.16 41.9674 12.8925C41.9674 10.7831 41.9322 10.6513 41.3346 9.98329C40.9039 9.50868 40.482 9.28016 39.2692 8.85828C37.3268 8.19032 37.3092 8.17274 36.6412 6.22157C36.2194 5.01746 35.9908 4.59559 35.5162 4.16492C34.8483 3.56727 34.7164 3.53211 32.607 3.53211C30.3395 3.53211 30.4537 3.57606 29.276 2.22254C27.9928 0.754768 27.483 0.45594 26.3317 0.517464C25.6637 0.55262 25.5318 0.596565 24.3453 1.16785C23.1764 1.72157 23.027 1.7743 22.4996 1.7743C21.9723 1.7743 21.8317 1.72157 20.6539 1.16785C19.4322 0.578987 19.3531 0.55262 18.6324 0.526253C18.026 0.499886 17.8151 0.526253 17.5074 0.666878ZM26.8063 25.0829C27.7027 25.3554 28.4586 25.6278 28.4938 25.6718C28.6168 25.8475 28.5641 26.6122 28.3883 27.122C28.2916 27.412 28.0543 28.0097 27.8522 28.4667C27.65 28.9149 27.3951 29.5565 27.2721 29.8993C26.6744 31.5868 27.2985 33.661 28.9684 35.5946C29.3111 35.9901 29.6627 36.4472 29.7506 36.6141C29.9615 37.0272 29.8912 37.7567 29.5836 38.3807C29.3199 38.9169 28.5377 40.0155 28.5026 39.9013C28.274 39.163 23.774 24.6962 23.6949 24.4413L23.5719 24.0809L24.3805 24.327C24.8199 24.4677 25.9098 24.8016 26.8063 25.0829Z" fill="white"></path><path d="M24.7061 11.3193C22.6319 12.5146 22.0167 15.0195 23.2911 17.0937C23.7393 17.8232 23.9854 17.8848 24.8028 17.4453C26.3409 16.6279 27.2022 14.9141 26.9034 13.2617C26.7803 12.5762 26.4288 11.7588 26.0684 11.3281C25.7432 10.9502 25.3565 10.9502 24.7061 11.3193ZM25.3917 12.9892C25.7344 13.9736 25.5499 14.8262 24.8379 15.5908L24.3545 16.1006L24.2051 15.749C23.9854 15.248 24.003 14.3603 24.2315 13.8506C24.4073 13.4551 25.0489 12.7168 25.2159 12.7168C25.2598 12.7168 25.3389 12.8398 25.3917 12.9892Z" fill="white"></path><path d="M13.9131 14.1227C13.6143 14.2458 13.5352 14.4919 13.5352 15.2917C13.5352 17.4186 14.8711 18.9919 16.9541 19.3171C17.7275 19.4313 18.3428 19.361 18.6152 19.1061C18.7822 18.9479 18.8086 18.8425 18.8086 18.1745C18.8086 16.8913 18.501 16.1003 17.6836 15.2477C16.9189 14.4479 15.873 14.0261 14.6514 14.0436C14.3525 14.0436 14.0186 14.0788 13.9131 14.1227ZM16.0049 15.7575C16.7256 16.1179 17.4023 17.0934 17.4023 17.779C17.4023 17.9548 17.376 17.9636 17.042 17.8932C16.4883 17.7702 16.1455 17.6032 15.7764 17.278C15.4072 16.9528 14.9414 16.0651 14.9414 15.6784C14.9414 15.4411 14.9502 15.4323 15.2754 15.4938C15.4512 15.529 15.7852 15.6432 16.0049 15.7575Z" fill="white"></path><path d="M30.3666 18.6756C29.391 19.0096 28.6615 19.6248 28.0902 20.574C27.765 21.1189 27.6947 21.5408 27.888 21.7869C28.0902 22.0506 28.8636 22.4812 29.4789 22.6658C29.971 22.8152 30.2259 22.8416 30.9027 22.8064C31.6322 22.7625 31.8167 22.7185 32.3705 22.4461C33.0999 22.0857 33.68 21.532 34.1371 20.7674C34.6644 19.8885 34.5414 19.493 33.6097 19.0184C32.5902 18.5086 31.263 18.368 30.3666 18.6756ZM32.3529 20.0203C32.5199 20.0818 32.6869 20.1609 32.7308 20.1961C32.8714 20.3279 31.9749 21.1102 31.5091 21.2771C30.8412 21.4969 29.8128 21.4353 29.4964 21.1453C29.3646 21.0223 30.2523 20.2312 30.683 20.073C31.1488 19.906 31.9398 19.8885 32.3529 20.0203Z" fill="white"></path><path d="M13.3238 23.2723C12.4098 23.492 11.4518 24.2567 10.8629 25.2323C10.3356 26.1112 10.4586 26.5067 11.399 26.9813C12.1637 27.3768 12.7789 27.5086 13.6578 27.4647C14.3258 27.4383 14.5543 27.3856 15.0553 27.1483C16.3648 26.5331 17.5777 24.8104 17.1207 24.2127C16.9186 23.9579 16.1451 23.5272 15.565 23.3514C14.9674 23.1669 13.9391 23.1317 13.3238 23.2723ZM15.1256 24.6786C15.2926 24.7401 15.4596 24.8192 15.5035 24.8544C15.6441 24.9862 14.7477 25.7684 14.2818 25.9354C13.6139 26.1551 12.5856 26.0936 12.2691 25.8036C12.1373 25.6805 13.025 24.8895 13.4557 24.7313C13.9215 24.5643 14.7125 24.5467 15.1256 24.6786Z" fill="white"></path><path d="M20.17 28.5636C18.2716 29.5919 17.5157 31.877 18.4298 33.837C18.9923 35.0235 19.379 35.1905 20.2931 34.672C22.3761 33.4854 23.0001 30.9015 21.6993 28.8712C21.2511 28.1768 20.9874 28.1241 20.17 28.5636ZM20.9171 30.6993C21.1017 31.5694 20.6974 32.6329 20.0206 33.1163C19.7042 33.3448 19.6515 33.2921 19.5021 32.589C19.3263 31.7364 19.5724 30.9542 20.2403 30.3038C20.5655 29.9786 20.6183 29.9522 20.7149 30.0841C20.7765 30.1632 20.8644 30.4444 20.9171 30.6993Z" fill="white"></path></g><defs><clipPath id="clip0_401_1241"><rect width="45" height="45" fill="white" transform="translate(0 0.5)"></rect></clipPath></defs></svg> 