<?xml version="1.0" encoding="UTF-8"?> <svg xmlns="http://www.w3.org/2000/svg" width="45" height="45" viewBox="0 0 45 45" fill="none"><g clip-path="url(#clip0_401_286)"><path d="M40.9134 0.843914C39.3226 1.30095 30.0238 3.95524 20.2591 6.73259C10.4945 9.50993 2.24155 11.8654 1.92515 11.9533C0.694679 12.3224 0.0354989 13.175 0.053077 14.4142C0.0618661 15.1525 0.30796 15.8732 1.37144 18.2726C3.44566 22.9484 7.6644 29.3029 11.4085 33.3722C15.9085 38.259 21.4632 41.6076 29.8304 44.464C31.6673 45.0968 32.2386 45.1496 33.0033 44.7892C33.557 44.5343 34.1546 43.8752 34.3128 43.339C34.3744 43.1193 36.8089 33.4513 39.7269 21.8586C43.2513 7.83122 45.0003 0.712078 44.9652 0.571453C44.8685 0.193523 44.6048 0.000164032 44.1917 0.00895309C43.9808 0.00895309 42.513 0.386883 40.9134 0.843914ZM41.3529 9.46598C40.2718 13.7638 38.1976 22.0343 36.7386 27.8615C35.2709 33.6886 34.0492 38.4787 34.014 38.5226C33.9349 38.6105 32.432 37.8371 30.8939 36.9142C29.1449 35.8683 28.3539 35.5168 26.0335 34.7609C23.6957 33.9875 23.2298 33.8029 22.4212 33.2756C21.5423 32.7043 20.9447 32.1066 19.5384 30.4191C17.9125 28.4679 17.3763 27.9406 15.4867 26.4816C13.5794 24.9963 12.973 24.4338 12.4017 23.5988C11.8392 22.7902 11.4964 22.0519 10.8988 20.3468C9.97593 17.7013 9.78257 17.3058 8.3939 15.0734C7.84898 14.2033 7.24253 13.175 7.04917 12.7882L6.69761 12.0851L24.9525 6.882C34.9896 4.02555 43.225 1.67887 43.2601 1.67887C43.2865 1.67009 42.4339 5.17692 41.3529 9.46598ZM5.77476 13.4299C6.02085 13.9484 6.6273 15.0031 7.11948 15.7765C8.27964 17.6047 8.66636 18.3869 9.2728 20.092C10.7318 24.258 11.3294 25.1105 14.5023 27.5539C16.2689 28.9074 16.8138 29.4347 18.3255 31.2453C19.6087 32.7834 20.6722 33.8644 21.3578 34.339C22.1576 34.884 23.3001 35.3761 25.3568 36.0529C27.7123 36.8263 28.5648 37.2043 30.2523 38.215C31.8607 39.173 32.3001 39.4103 32.9593 39.6828C33.2757 39.8146 33.5658 39.9465 33.6009 39.9816C33.6361 40.0256 33.5042 40.7199 33.3021 41.5285C32.8714 43.2248 32.722 43.4797 32.1068 43.5675C31.7289 43.6203 31.6673 43.6027 29.3558 42.7765C26.2709 41.6779 22.474 39.9552 20.2855 38.6632C15.9349 36.0968 12.6917 33.091 9.12339 28.3009C5.77476 23.8185 2.87437 18.6857 1.63511 15.091C1.43296 14.5109 1.41538 14.3527 1.49448 14.1154C1.66148 13.5881 1.90757 13.4562 3.62144 12.964C4.50913 12.7004 5.24741 12.4894 5.27378 12.4894C5.30015 12.4894 5.51987 12.9113 5.77476 13.4299Z" fill="white"></path><path d="M37.1086 6.72399C36.5461 6.97009 36.6252 7.88415 37.2317 8.03356C37.8996 8.20055 38.3918 7.46227 37.9699 6.92614C37.759 6.65368 37.4514 6.58337 37.1086 6.72399Z" fill="white"></path><path d="M30.3672 9.16718C29.4707 9.46601 28.5215 10.2043 27.9326 11.048L27.6777 11.426L27.9414 11.8127C28.3545 12.4016 29.0752 13.008 29.7871 13.342C30.3936 13.632 30.5166 13.6584 31.4131 13.6935C32.2041 13.7199 32.4941 13.6935 32.9248 13.5529C33.3994 13.4035 36.8184 11.4611 36.8271 11.3381C36.8271 11.3117 36.4404 11.092 35.9746 10.8547C35.5 10.6086 34.7705 10.2043 34.3398 9.94062C33.2148 9.26386 32.7402 9.11444 31.6416 9.07929C31.0439 9.06171 30.5957 9.09687 30.3672 9.16718ZM32.3623 10.5822C32.582 10.6437 33.0303 10.8547 33.3555 11.0568L33.9443 11.4084L33.2588 11.8127C32.8809 12.0324 32.4062 12.2346 32.1865 12.2697C31.2988 12.4016 30.3936 12.173 29.752 11.6545L29.4883 11.4435L29.6992 11.215C29.8223 11.0832 30.1562 10.8635 30.4463 10.7228C31.0352 10.424 31.6855 10.3713 32.3623 10.5822Z" fill="white"></path><path d="M23.0369 9.98437C22.7996 10.292 22.8083 10.5732 23.0632 10.8633C23.4851 11.3642 24.2585 11.1006 24.2585 10.4678C24.2585 9.96679 24.0564 9.75585 23.5994 9.75585C23.2917 9.75585 23.1775 9.7998 23.0369 9.98437Z" fill="white"></path><path d="M12.0859 12.6123C11.6377 13.0518 11.9365 13.7988 12.5606 13.7988C12.9736 13.7988 13.2725 13.5088 13.2725 13.1045C13.2725 12.7354 12.9385 12.3926 12.5693 12.3926C12.4024 12.3926 12.2178 12.4717 12.0859 12.6123Z" fill="white"></path><path d="M19.9072 13.6673C18.7471 13.9222 17.5605 14.1771 17.2793 14.2386C16.6201 14.3705 16.3477 14.6253 16.3477 15.0999C16.3477 15.3988 16.6113 15.847 18.4131 18.598C19.5469 20.3294 20.5664 21.8236 20.6631 21.9027C20.9268 22.1224 21.3838 22.1048 21.6562 21.8587C21.876 21.6742 21.9111 21.4808 22.4561 18.0003C22.7725 15.9789 23.0273 14.1859 23.0273 14.0189C23.0273 13.6058 22.6318 13.1839 22.2627 13.1927C22.1309 13.1927 21.0674 13.4124 19.9072 13.6673ZM21.3486 15.7503C21.2695 16.2953 21.1025 17.3499 20.9971 18.0882C20.8828 18.8177 20.7598 19.4154 20.7246 19.4066C20.6543 19.3802 18.1934 15.6361 18.1934 15.557C18.1934 15.5218 18.9316 15.3373 19.8457 15.1439C20.751 14.9417 21.4893 14.7835 21.498 14.7748C21.498 14.766 21.4365 15.2142 21.3486 15.7503Z" fill="white"></path><path d="M34.6556 16.4357C34.2601 16.5939 34.1634 17.1388 34.4623 17.5255C34.6029 17.7013 34.7172 17.754 34.9896 17.754C35.4291 17.754 35.6839 17.5167 35.6839 17.0948C35.6839 16.5323 35.1918 16.2247 34.6556 16.4357Z" fill="white"></path><path d="M28.2568 18.6064C27.9316 18.6855 27.7734 18.9053 27.7734 19.292C27.7734 19.749 28.002 19.9863 28.4502 19.9863C28.8105 19.9863 29.1797 19.6348 29.1797 19.292C29.1797 18.8877 28.6699 18.5098 28.2568 18.6064Z" fill="white"></path><path d="M14.3701 20.874C13.9043 21.3311 14.2119 22.0605 14.8711 22.0605C15.4863 22.0605 15.7764 21.3047 15.3369 20.874C15.2051 20.7334 15.0205 20.6543 14.8535 20.6543C14.6865 20.6543 14.502 20.7334 14.3701 20.874Z" fill="white"></path><path d="M28.1608 23.3878C27.7829 23.7306 27.0886 24.3019 26.6315 24.6534C25.6999 25.3741 25.278 25.8751 24.8649 26.7452C24.5134 27.5099 24.4343 28.4415 24.6452 29.3292C24.8034 29.9796 25.3571 31.0782 25.5944 31.2364C25.946 31.4562 27.405 30.8321 28.152 30.1466C28.9431 29.4259 29.5319 28.0987 29.5319 27.0353C29.5319 26.587 28.9694 22.8692 28.8903 22.7901C28.8728 22.7814 28.5476 23.045 28.1608 23.3878ZM28.0554 27.4044C27.862 28.336 27.3083 29.1358 26.6228 29.4962C26.3503 29.628 26.3327 29.628 26.2272 29.4874C26.1657 29.3995 26.0603 29.1183 26.0075 28.8546C25.779 27.8439 26.236 26.8419 27.3347 25.9542L27.906 25.4972L28.029 26.2091C28.1345 26.7716 28.1345 27.0177 28.0554 27.4044Z" fill="white"></path><path d="M30.8755 31.4651C30.5328 31.6057 30.3833 32.1418 30.5855 32.5197C30.6998 32.7395 31.1568 32.8801 31.4117 32.7834C31.6578 32.6955 31.9039 32.3703 31.9039 32.1506C31.9039 31.8606 31.7017 31.5617 31.438 31.4651C31.1304 31.3596 31.1304 31.3596 30.8755 31.4651Z" fill="white"></path></g><defs><clipPath id="clip0_401_286"><rect width="45" height="45" fill="white"></rect></clipPath></defs></svg> 