<?xml version="1.0" encoding="UTF-8"?> <svg xmlns="http://www.w3.org/2000/svg" width="20" height="21" viewBox="0 0 20 21" fill="none"><path d="M9.33393 1.9585C8.43167 2.09866 7.59949 2.52789 6.95564 3.17612C6.78483 3.35131 6.57021 3.59221 6.48699 3.71047C6.40378 3.82872 6.32932 3.92946 6.32056 3.93822C6.31618 3.94698 6.16288 3.91194 5.9833 3.86376C3.78897 3.28561 1.5158 4.35869 0.547842 6.43477C0.0616722 7.46405 -0.0171661 8.76926 0.333226 9.83357C0.574121 10.5519 0.885095 11.0687 1.41506 11.625C2.02387 12.26 2.91737 12.7681 3.75831 12.9521L3.88095 12.9783V15.4749C3.88095 18.3262 3.83715 18.0328 4.3058 18.2737C5.57597 18.9131 9.28137 19.2285 12.3561 18.9569C14.0336 18.808 15.0585 18.5978 15.7286 18.2649C16.1885 18.0371 16.1447 18.3437 16.1447 15.4968V12.9915L16.4425 12.9126C17.1827 12.7156 17.8835 12.3214 18.4485 11.787C18.9084 11.349 19.1756 10.9855 19.4515 10.4161C19.78 9.75036 19.8764 9.34303 19.8983 8.55464C19.9158 8.02029 19.9026 7.8451 19.8238 7.45967C19.2807 4.82296 16.6396 3.1805 14.0423 3.86376C13.8628 3.91194 13.7138 3.94698 13.7095 3.9426C13.7051 3.93822 13.6131 3.81558 13.508 3.67105C12.5488 2.36584 10.9457 1.70885 9.33393 1.9585ZM10.6479 2.57607C12.0758 2.82573 13.2452 3.90318 13.6306 5.31351C13.7182 5.63324 13.7445 6.6231 13.6744 7.08737C13.6438 7.32389 13.6481 7.35893 13.727 7.42901C13.8584 7.54726 14.1343 7.5166 14.2044 7.37207C14.4321 6.89028 14.384 5.55879 14.1124 4.80544C14.0555 4.64777 14.0248 4.51637 14.0423 4.50323C14.0599 4.49009 14.2 4.45505 14.3533 4.42001C16.1622 3.99954 18.0368 4.90618 18.8997 6.61434C19.1405 7.10051 19.2632 7.59106 19.2851 8.22177C19.3026 8.5853 19.2895 8.89627 19.2544 9.09337C18.9916 10.565 17.9448 11.7958 16.5476 12.2732C16.114 12.4177 16.1447 12.4615 16.1447 11.6775C16.1447 11.0994 16.1315 10.9811 16.0702 10.911C15.9739 10.8015 15.7417 10.8103 15.6366 10.9242C15.5578 11.0118 15.5534 11.1388 15.5403 14.1609L15.5315 17.3101L15.2906 17.2269C14.7913 17.056 13.8233 16.8808 12.7722 16.7713C10.0741 16.4867 6.51327 16.6794 4.82701 17.2006L4.49414 17.3057V14.196C4.49414 10.7139 4.50728 10.8366 4.17002 10.8322C3.90285 10.8322 3.88095 10.9023 3.88095 11.6775V12.3783L3.75393 12.352C3.46924 12.2951 2.91737 12.0498 2.58888 11.8308C1.67348 11.2308 1.04715 10.3197 0.806256 9.24229C0.692379 8.72546 0.714278 7.87576 0.854435 7.36769C1.25301 5.90918 2.39616 4.7923 3.86343 4.42877C4.481 4.27985 5.44896 4.30613 5.92199 4.48571C6.01834 4.52075 6.01834 4.52513 5.94827 4.72222C5.88257 4.89742 5.88257 4.93246 5.93951 5.03758C5.97455 5.0989 6.06214 5.17336 6.13222 5.19525C6.3118 5.25657 6.44758 5.13394 6.59649 4.77916C6.77607 4.34555 7.07828 3.92508 7.46371 3.55279C8.33531 2.72061 9.47409 2.37021 10.6479 2.57607ZM12.2904 17.3407C13.4817 17.4415 14.7431 17.6561 15.0147 17.8006C15.0979 17.8444 15.0979 17.8576 15.0366 17.8882C14.9271 17.9495 14.073 18.1335 13.5386 18.208C11.2436 18.5364 8.33969 18.5189 6.2023 18.1642C5.75117 18.0897 5.12484 17.9408 5.02411 17.8838C4.81387 17.7656 6.08404 17.4984 7.49437 17.3583C8.90032 17.2181 10.8231 17.2137 12.2904 17.3407Z" fill="#701515"></path><path d="M8.65512 9.04075C8.06383 9.09769 6.92067 9.29478 6.66664 9.378C6.40823 9.4656 6.33377 9.61013 6.43013 9.81161C6.48268 9.92549 6.50896 9.93425 6.72796 9.92987C6.85936 9.92987 7.25355 9.87731 7.60394 9.81599C8.48868 9.65393 9.06683 9.60575 10.0129 9.60575C10.9589 9.60575 11.5327 9.65393 12.4218 9.81161C13.3635 9.98243 13.4905 9.98681 13.5781 9.86417C13.6701 9.73277 13.6657 9.59261 13.5738 9.47874C13.4862 9.378 12.8335 9.22908 11.8962 9.09769C11.2918 9.01447 9.2683 8.97943 8.65512 9.04075Z" fill="#701515"></path></svg> 