<?xml version="1.0" encoding="UTF-8"?> <svg xmlns="http://www.w3.org/2000/svg" width="45" height="46" viewBox="0 0 45 46" fill="none"><g clip-path="url(#clip0_401_594)"><path d="M11.4255 1.73924C11.3024 1.79197 11.0563 1.9326 10.8806 2.05564C10.5905 2.249 10.5202 2.26658 10.2741 2.17869C9.8786 2.03807 9.45672 2.06443 8.74481 2.249C8.02411 2.43357 7.49676 2.68846 7.25067 2.96092C7.15399 3.06639 6.73211 3.39158 6.30145 3.68162C5.85321 3.98045 5.39618 4.37596 5.20282 4.63084C4.90399 5.01756 4.82489 5.07029 4.35028 5.16697C3.86688 5.26365 3.76141 5.33397 3.14618 5.93162C2.37274 6.67869 2.23211 6.96873 2.32 7.68064C2.37274 8.13768 2.36395 8.17283 1.94207 8.78807C1.70477 9.13084 1.38836 9.57029 1.23895 9.76365C0.861019 10.2383 0.773129 10.625 0.887386 11.2402C0.975277 11.6885 0.966488 11.8291 0.790707 12.4443C0.606136 13.0596 0.597347 13.2178 0.66766 13.7275C0.746761 14.2021 0.737972 14.3252 0.623715 14.4131C0.553402 14.4746 0.38641 14.6767 0.245785 14.8613C-0.167301 15.4326 -0.0706214 16.1357 0.527035 16.8037C0.632504 16.9179 0.694027 17.1904 0.729183 17.6211C0.790707 18.3506 0.869808 18.5263 1.70477 19.748C2.21453 20.5039 2.31121 20.706 2.36395 21.1367C2.39911 21.4092 2.47821 21.7344 2.54852 21.8574C2.75946 22.2529 3.612 23.123 4.12176 23.457C4.46453 23.6855 4.71063 23.9492 4.92157 24.292C5.16766 24.6963 5.3786 24.8984 5.92352 25.2588C6.71453 25.7861 7.03973 25.874 7.69891 25.751C8.15594 25.6719 8.18231 25.6806 8.65692 25.9795C9.10516 26.2783 9.14032 26.3135 9.14032 26.6562C9.14032 26.9726 9.10516 27.0254 8.80633 27.1924C8.17352 27.5527 7.90985 28.0361 7.90985 28.8623C7.90985 29.0556 7.83075 29.4775 7.73407 29.7851C7.45282 30.6728 7.50555 31.0332 7.97137 31.5342L8.18231 31.7627L7.72528 32.0527C7.21551 32.3867 6.94305 32.7646 6.94305 33.1338C6.94305 33.459 7.15399 33.9072 7.43524 34.1709C7.66375 34.3818 8.17352 35.8232 8.17352 36.2627C8.17352 36.5791 8.33172 37.0625 8.51629 37.2734C8.59539 37.3613 8.82391 37.5547 9.03485 37.6865C9.41278 37.9238 9.42157 37.9326 9.43036 38.4863C9.44793 38.9785 9.49188 39.1191 9.88739 39.7695C10.3796 40.5957 10.5378 40.7275 11.2321 40.8594C11.6188 40.9385 11.7858 41.0176 11.9704 41.2373C12.1022 41.3955 12.3307 41.5713 12.4714 41.6328C12.6472 41.7031 12.8317 41.9053 12.9987 42.1953C13.1393 42.4502 13.3591 42.7226 13.4821 42.8017C13.7809 43.0039 14.3434 42.9863 14.7653 42.7754C14.9587 42.6787 15.1257 42.5996 15.152 42.5996C15.1784 42.5996 15.2399 42.7666 15.2927 42.9687C15.5036 43.7422 16.1452 44.0586 16.9626 43.7861C17.402 43.6367 17.4196 43.6367 17.6042 43.8125C18.2194 44.375 18.7116 44.4717 19.5554 44.1816C19.863 44.0762 20.2936 44.0058 20.6452 44.0058C21.155 44.0058 22.2975 43.8564 23.3698 43.6543C23.5895 43.6103 23.8444 43.6191 23.9675 43.6631C24.0817 43.707 24.4245 43.7422 24.7145 43.7422H25.2507L25.7692 43.2324C26.2263 42.7666 26.279 42.6787 26.279 42.3535C26.279 42.0722 26.2263 41.958 26.0505 41.8174C25.6989 41.5449 25.444 41.5888 25.0046 41.9931L24.6179 42.3535L24.1608 42.2568C23.7038 42.1601 23.5807 42.1689 22.1481 42.4326C21.8845 42.4853 21.1725 42.5556 20.5661 42.5996C19.9245 42.6347 19.3268 42.7226 19.1335 42.8017C18.8083 42.9424 18.7995 42.9424 18.5182 42.6963C18.3688 42.5644 18.1491 42.4062 18.0436 42.3447C17.8151 42.2304 17.1472 42.2129 16.8483 42.3271C16.6374 42.4062 16.6198 42.3887 16.4352 41.8877C16.1276 41.0263 15.53 40.8066 14.6774 41.2373C14.4401 41.3603 14.2292 41.457 14.2116 41.457C14.1852 41.457 14.1237 41.334 14.0622 41.1933C13.9391 40.8945 13.4206 40.4023 13.2272 40.4023C13.1569 40.4023 13.0427 40.2881 12.9636 40.1387C12.7966 39.8135 12.4011 39.6025 11.821 39.5322C11.3991 39.4795 11.3727 39.4619 11.1003 38.9961C10.8454 38.583 10.819 38.4687 10.863 38.1084C10.9509 37.4668 10.6872 36.9658 10.0807 36.623C9.61493 36.3594 9.60614 36.3418 9.5534 35.8935C9.48309 35.3047 9.02606 33.9512 8.7536 33.5469L8.54266 33.2304L8.92938 32.9844C9.7995 32.4306 9.99286 31.7978 9.50946 31.1211C9.36883 30.9365 9.19305 30.7256 9.11395 30.664C8.9909 30.5586 8.9909 30.5146 9.10516 30.1806C9.18426 29.9785 9.26336 29.5303 9.28973 29.1787L9.34246 28.5459L9.76434 28.2822C10.3268 27.9394 10.5466 27.5703 10.5466 26.9726C10.5466 26.498 10.6169 26.4189 10.819 26.6562C11.197 27.1133 12.0407 27.2451 12.7438 26.9638C13.1306 26.8056 13.1481 26.8056 13.5788 26.9726C13.9831 27.1308 14.1413 27.1484 15.4684 27.0869C17.6218 26.999 18.36 26.7265 20.2585 25.2763C21.1022 24.6347 21.111 24.6347 21.5856 24.916L22.0075 25.1621L21.9811 25.6367C21.9636 26.1553 22.1218 26.5508 22.7018 27.4209C23.0095 27.8691 23.2995 28.0449 23.9059 28.1416C24.2048 28.1855 24.363 28.2822 24.5388 28.4931C24.6706 28.6513 24.8991 28.8271 25.0397 28.8887C25.2155 28.959 25.4001 29.1611 25.5759 29.4687C25.9889 30.1982 26.613 30.4004 27.3337 30.0312C27.527 29.9346 27.694 29.8554 27.7204 29.8554C27.7468 29.8554 27.8083 30.0049 27.861 30.1982C28.072 30.998 28.6345 31.2969 29.4782 31.0508C29.944 30.9101 29.988 30.9101 30.1901 31.0596C30.3483 31.1738 30.3835 31.2617 30.3395 31.3935C30.2604 31.6133 30.2692 32.0879 30.3659 32.8789C30.4186 33.3447 30.5065 33.582 30.735 33.9248C31.0251 34.3554 31.0339 34.3818 30.9284 34.7949C30.8405 35.164 30.6999 35.3574 29.9177 36.1572C28.9948 37.0976 28.8278 37.3701 28.8278 37.9853C28.8278 38.1347 28.6872 38.5215 28.5202 38.8379C28.2829 39.2861 28.1159 39.4707 27.8259 39.6465C27.3952 39.9013 27.2018 40.2705 27.3337 40.6133C27.4304 40.8681 27.7468 41.1054 28.0016 41.1054C28.2565 41.1054 29.197 40.4814 29.4255 40.1562C29.8034 39.6377 30.2341 38.6094 30.2341 38.249C30.2341 37.915 30.2956 37.8359 31.1393 36.9746C32.0095 36.0781 32.0446 36.0254 32.2468 35.3574C32.5104 34.4609 32.4753 33.8721 32.1237 33.4062C31.7897 32.9756 31.5964 32.0088 31.7809 31.7275C31.9743 31.4287 32.4665 31.2617 33.1696 31.2617C33.5124 31.2617 34.3649 31.165 35.0681 31.0508C35.947 30.9101 36.4128 30.8662 36.5973 30.9189C36.7468 30.9629 37.0807 30.998 37.3268 30.998C37.7839 30.998 37.8014 30.9892 38.5661 30.2861C38.988 29.8906 39.3659 29.4775 39.4098 29.3545C39.5681 28.8974 39.0759 28.3877 38.5925 28.4931C38.4518 28.5195 38.0739 28.7832 37.7575 29.082L37.1774 29.6094L36.7292 29.5039C36.3952 29.4248 36.1579 29.416 35.7888 29.4951C34.5847 29.7236 33.5475 29.8554 32.9499 29.8554C32.5544 29.8642 32.1149 29.9258 31.8249 30.0224L31.3591 30.1894L31.0778 29.9433C30.9284 29.8115 30.7175 29.6621 30.612 29.6006C30.3835 29.4863 29.7155 29.4687 29.4167 29.583C29.2057 29.6621 29.1882 29.6445 29.0036 29.1435C28.696 28.2822 28.0983 28.0625 27.2458 28.4931C27.0085 28.6162 26.7975 28.7129 26.78 28.7129C26.7536 28.7129 26.6921 28.5898 26.6306 28.4492C26.5075 28.1504 25.9889 27.6582 25.7956 27.6582C25.7253 27.6582 25.611 27.5439 25.5407 27.4033C25.3737 27.0869 25.0749 26.8935 24.6442 26.8232C24.4597 26.7969 24.2136 26.7529 24.1081 26.7265C23.9938 26.709 23.8181 26.5156 23.6511 26.2168C23.4225 25.8213 23.3874 25.6894 23.4313 25.3554C23.5192 24.7314 23.2468 24.2217 22.6491 23.8789C22.1833 23.6152 22.1745 23.5976 22.1218 23.1494C22.0514 22.5605 21.5944 21.207 21.322 20.8027L21.111 20.4863L21.4977 20.2402C22.3679 19.6865 22.5612 19.0537 22.0778 18.3769C21.9372 18.1924 21.7614 17.9814 21.6823 17.9199C21.5593 17.8144 21.5593 17.7705 21.6735 17.4365C21.7526 17.2344 21.8317 16.7861 21.8581 16.4346L21.9108 15.8017L22.3327 15.5381C22.9304 15.1689 23.1149 14.8349 23.1149 14.1318C23.1149 13.6221 23.1501 13.499 23.4753 12.9541C23.6774 12.6201 23.862 12.1894 23.8884 11.9961C23.9235 11.6709 23.9499 11.6533 24.1608 11.6972C25.3122 11.9609 25.7165 11.8291 26.0856 11.0732C26.2175 10.792 26.3932 10.5019 26.4723 10.4228C26.5514 10.3349 26.6921 10.0625 26.78 9.81639C26.9645 9.28904 27.3952 8.92869 28.3093 8.51561L28.8806 8.26072L29.2673 8.41893C29.7946 8.62986 31.5085 8.64744 32.0358 8.44529C32.3962 8.31346 32.405 8.31346 32.8708 8.6035C33.4421 8.95506 33.8991 8.97264 34.4352 8.67381L34.7956 8.47166L35.1823 8.82322C35.5866 9.20115 36.0348 9.34178 36.4831 9.2451C36.6325 9.20994 36.9489 9.22752 37.2038 9.28904C37.4587 9.34178 37.7399 9.4033 37.8454 9.42088C37.9684 9.44725 38.0827 9.58787 38.1794 9.84275C38.4079 10.4404 38.7507 10.7129 39.445 10.8359C39.7702 10.8974 40.2624 11.0381 40.5348 11.1523L41.0446 11.3545V11.917C41.0446 12.4531 41.071 12.5234 41.5016 13.1738C42.0026 13.9472 42.3014 14.2373 42.7585 14.3867L43.0661 14.4922L43.0837 15.0722C43.0925 15.3974 43.1013 15.9336 43.11 16.2763C43.1188 16.6103 43.1716 17.1201 43.2331 17.3926C43.3386 17.876 43.3298 17.9023 43.0925 18.2715C42.8288 18.6846 42.7936 19.0273 42.9343 20.1347C42.987 20.6006 43.0749 20.8379 43.3034 21.1806C43.5934 21.6113 43.6022 21.6377 43.4968 22.0508C43.4089 22.4287 43.277 22.6045 42.486 23.4043C41.5632 24.3447 41.3962 24.6172 41.3962 25.25C41.3962 25.5312 40.9743 26.3926 40.6315 26.8056C40.1833 27.3506 40.57 27.9834 41.3259 27.9306C41.8005 27.8955 42.8024 26.2607 42.8024 25.5049C42.8024 25.1445 42.8376 25.0918 43.6813 24.248C44.7184 23.2197 44.9294 22.789 44.947 21.6728C44.9557 21.0664 44.9294 20.9785 44.7009 20.6797C44.5339 20.4512 44.4108 20.1435 44.3405 19.7656C44.235 19.1943 44.235 19.1767 44.4811 18.7285C44.7536 18.2451 44.7888 17.9375 44.6481 17.1904C44.5954 16.9267 44.5339 16.2412 44.5163 15.6611C44.4636 13.9121 44.3229 13.5605 43.5495 13.1826C42.8464 12.831 42.486 12.2685 42.4333 11.416C42.3981 10.7041 42.2223 10.3877 41.7389 10.1504C41.572 10.0713 41.2204 9.90428 40.9567 9.77244C40.6931 9.64061 40.2624 9.51756 40.0075 9.49119C39.5505 9.43846 39.5417 9.42967 39.3571 9.00779C39.2604 8.77049 39.0671 8.48924 38.9264 8.37498C38.6188 8.11131 37.1511 7.75975 36.6237 7.81248C36.2809 7.84764 36.2194 7.82127 35.7975 7.42576C35.3757 7.03025 35.3141 7.00389 34.8835 7.00389C34.5583 7.00389 34.321 7.06541 34.0573 7.21482L33.6882 7.43455L33.3542 7.20604C32.9147 6.90721 32.3171 6.84568 31.7634 7.03904C31.1481 7.24998 30.0934 7.22361 29.5749 6.9951C29.0212 6.749 28.5905 6.80174 27.7116 7.21482C27.2106 7.46092 25.8395 8.28709 25.8395 8.3574C25.8395 8.36619 25.7429 8.59471 25.6286 8.88475L25.4177 9.4033L25.2682 9.10447C25.1804 8.94627 24.9079 8.59471 24.653 8.32225C24.3102 7.96189 24.152 7.70701 24.029 7.3115C23.8884 6.88084 23.7477 6.66111 23.2028 6.08982C22.7809 5.65037 22.3679 5.31639 22.0427 5.14939C21.7702 5.00877 21.5241 4.85936 21.4977 4.81541C21.4626 4.77147 21.2341 4.666 20.9792 4.57811C20.7331 4.499 20.5134 4.4199 20.4958 4.41111C20.487 4.40232 20.4167 4.15623 20.3376 3.87498C20.1882 3.27732 19.8806 2.90818 19.4235 2.78514C17.3493 2.21385 16.7868 2.27537 16.7868 3.06639C16.7868 3.45311 17.0241 3.75193 17.3405 3.75193C17.4548 3.75193 17.7184 3.80467 17.9382 3.87498C18.1491 3.94529 18.4655 4.02439 18.6413 4.05076C18.9401 4.1035 18.9577 4.12986 19.0632 4.58689C19.2038 5.19334 19.485 5.5449 20.0212 5.73826C21.4186 6.26561 22.4733 7.13572 22.7634 8.01463C22.9743 8.63865 23.1501 8.9199 23.5368 9.2451C23.7653 9.43846 24.1696 10.0361 24.1696 10.1855C24.1696 10.2031 24.0026 10.2031 23.8005 10.1855C23.1149 10.1416 22.7458 10.4931 22.57 11.3457C22.5085 11.6621 22.3327 12.1015 22.113 12.4443C21.8054 12.9541 21.7526 13.1035 21.7263 13.6484C21.6911 14.2021 21.6647 14.29 21.4889 14.3691C20.8386 14.6679 20.4782 15.2832 20.4782 16.1181C20.4782 16.3027 20.3991 16.707 20.3024 17.0234C20.0212 17.9375 20.0739 18.289 20.5397 18.79L20.7507 19.0185L20.2936 19.3086C19.3884 19.8974 19.2653 20.583 19.9421 21.3476C20.0915 21.5146 20.32 21.9804 20.4694 22.4287C20.6188 22.8506 20.7419 23.2109 20.7419 23.2285C20.7419 23.2373 20.5309 23.3691 20.2848 23.5185C20.03 23.6767 19.485 24.0547 19.072 24.3623C17.6393 25.4521 17.1384 25.6279 15.3806 25.6543C14.3259 25.6719 14.0182 25.6455 13.6052 25.5137C13.1042 25.3467 13.0954 25.3467 12.5241 25.54L11.944 25.7246L11.6364 25.4961C11.2321 25.1885 10.7663 25.0303 10.2302 25.0215C9.85223 25.0215 9.69403 24.9599 9.26336 24.6699C8.64813 24.248 8.34051 24.1777 7.72528 24.3096C7.27703 24.4062 7.25067 24.4062 6.77606 24.1074C6.41571 23.8877 6.20477 23.6767 5.99383 23.3164C5.79168 22.9736 5.55438 22.7187 5.18524 22.4726C4.8952 22.2793 4.47332 21.9189 4.24481 21.6728C3.87567 21.2773 3.81414 21.1543 3.72625 20.6357C3.63836 20.1435 3.52411 19.9062 3.04071 19.1679C2.7243 18.6933 2.39911 18.2099 2.31121 18.0957C2.22332 17.9638 2.14422 17.6211 2.10907 17.1465C2.05633 16.4961 2.02118 16.3642 1.77508 16.0654C1.61688 15.8721 1.49383 15.6963 1.49383 15.6699C1.49383 15.6435 1.62567 15.4414 1.79266 15.2217C2.17059 14.7295 2.23211 14.4482 2.10907 13.7803C2.02118 13.2793 2.02996 13.1826 2.2409 12.5674C2.46063 11.9433 2.46942 11.8642 2.37274 11.3457L2.26727 10.792L2.58368 10.3701C2.75946 10.1416 3.09344 9.66697 3.32196 9.33299C3.72625 8.73533 3.73504 8.70018 3.74383 8.03221V7.35545L4.13055 6.95994C4.4118 6.67869 4.60516 6.56443 4.86883 6.52049C5.44891 6.42381 5.76532 6.23045 6.16082 5.72068C6.38055 5.43943 6.81121 5.0615 7.24188 4.76268C7.64618 4.499 8.05926 4.1826 8.17352 4.05955C8.29657 3.92772 8.63055 3.76072 8.98211 3.65525C9.51825 3.49705 9.65008 3.48826 10.0544 3.58494C10.652 3.71678 11.0212 3.64647 11.5573 3.30369C11.944 3.0576 12.0231 3.04002 12.2956 3.11912C12.4714 3.17186 13.0427 3.27732 13.5612 3.35643C14.5016 3.50584 14.5192 3.50584 14.7477 3.33885C14.9235 3.20701 14.9938 3.07518 15.0114 2.80272C15.0466 2.30174 14.8356 2.13475 13.9919 2.00291C13.6227 1.94139 13.069 1.83592 12.7702 1.76561C12.1462 1.62498 11.7419 1.61619 11.4255 1.73924Z" fill="white"></path><path d="M16.4355 7.53125C16.3213 7.64551 16.2598 7.82129 16.2598 8.0498C16.2598 8.56836 16.5498 8.76172 17.3232 8.76172C17.6484 8.76172 18.0176 8.71777 18.1406 8.66504C18.5801 8.46289 18.6416 7.75977 18.2549 7.4873C18.123 7.39941 17.8418 7.35547 17.3408 7.35547C16.7256 7.35547 16.585 7.38184 16.4355 7.53125Z" fill="white"></path><path d="M33.9785 11.4071C33.7588 11.5741 33.75 11.6268 33.75 12.3739C33.75 13.0419 33.7764 13.1825 33.9258 13.3319C34.1543 13.5604 34.6289 13.5604 34.9014 13.3407C35.0947 13.1825 35.1123 13.1034 35.1123 12.409C35.1123 11.6795 35.1035 11.6356 34.8662 11.4335C34.5674 11.1786 34.2861 11.161 33.9785 11.4071Z" fill="white"></path><path d="M13.5608 11.9434C12.9895 12.4884 12.8928 12.6993 13.0159 13.0684C13.218 13.6397 13.7981 13.6749 14.387 13.13C14.8879 12.6729 15.0637 12.295 14.9407 11.961C14.6946 11.3282 14.22 11.3282 13.5608 11.9434Z" fill="white"></path><path d="M38.3372 15.8193C38.0999 16.0742 38.0911 16.4961 38.3108 16.7686C38.469 16.9619 38.5481 16.9795 39.2864 16.9795C40.0247 16.9795 40.1038 16.9619 40.262 16.7686C40.4817 16.5049 40.4729 16.1357 40.2444 15.8457C40.0774 15.626 40.0247 15.6172 39.2952 15.6172C38.6008 15.6172 38.5042 15.6348 38.3372 15.8193Z" fill="white"></path><path d="M4.66699 17.0762C4.51758 17.2695 4.48242 17.4365 4.48242 17.9639C4.48242 18.7197 4.55273 18.8955 4.92188 19.0449C5.13281 19.1328 5.23828 19.1328 5.44922 19.0449C5.81836 18.8955 5.88867 18.7197 5.88867 17.9639C5.88867 17.1377 5.7041 16.8477 5.18555 16.8477C4.92188 16.8477 4.80762 16.9004 4.66699 17.0762Z" fill="white"></path><path d="M24.8899 19.1592C24.6086 19.458 24.6262 19.9414 24.925 20.1787C25.1096 20.3281 25.2854 20.3633 25.76 20.3633C26.0852 20.3633 26.4543 20.3193 26.5774 20.2666C27.0168 20.0645 27.0783 19.3613 26.6916 19.0889C26.5598 19.001 26.2785 18.957 25.7951 18.957C25.1623 18.957 25.0568 18.9834 24.8899 19.1592Z" fill="white"></path><path d="M32.9854 19.7744C32.5986 20.1699 32.5195 20.3018 32.5195 20.5566C32.5195 21.0049 32.7656 21.2773 33.1787 21.2773C33.46 21.2773 33.5742 21.207 34.0225 20.7412C34.5938 20.1523 34.6553 19.9238 34.3564 19.5371C34.2158 19.3613 34.1016 19.3086 33.8203 19.3086C33.5039 19.3086 33.4072 19.3613 32.9854 19.7744Z" fill="white"></path><path d="M14.5186 21.2158C14.1934 21.3476 14.0176 22.5254 14.2461 23.0263C14.4307 23.4394 14.9493 23.5537 15.3272 23.2549C15.5469 23.0879 15.5557 23.0351 15.5557 22.3056C15.5557 21.6113 15.5381 21.5146 15.3536 21.3476C15.1602 21.1631 14.7911 21.1015 14.5186 21.2158Z" fill="white"></path><path d="M13.8516 30.2157C13.6318 30.3827 13.623 30.4354 13.623 31.1825C13.623 31.8504 13.6494 31.9911 13.7988 32.1405C14.0273 32.369 14.502 32.369 14.7744 32.1493C14.9678 31.9911 14.9854 31.912 14.9854 31.2176C14.9854 30.4881 14.9766 30.4442 14.7393 30.242C14.4404 29.9872 14.1592 29.9696 13.8516 30.2157Z" fill="white"></path><path d="M26.042 33.2568C25.6904 33.3271 25.5762 33.6084 25.5762 34.3994C25.5762 35.2695 25.708 35.4805 26.2705 35.4805C26.7979 35.4805 26.9824 35.1992 26.9824 34.373C26.9824 33.8281 26.9561 33.6963 26.7891 33.5117C26.5693 33.2744 26.3408 33.2041 26.042 33.2568Z" fill="white"></path><path d="M20.6191 39.0049C20.4434 39.1367 20.3906 39.2598 20.3906 39.5146C20.3906 39.7871 20.4609 39.9102 20.9004 40.3408C21.2871 40.7275 21.4629 40.8418 21.6738 40.8418C22.2363 40.8418 22.5527 40.3145 22.2891 39.8047C22.2188 39.6641 21.9727 39.3828 21.7441 39.1807C21.2783 38.7676 20.9795 38.7236 20.6191 39.0049Z" fill="white"></path></g><defs><clipPath id="clip0_401_594"><rect width="45" height="45" fill="white" transform="translate(0 0.5)"></rect></clipPath></defs></svg> 