<?xml version="1.0" encoding="UTF-8"?> <svg xmlns="http://www.w3.org/2000/svg" width="60" height="60" viewBox="0 0 60 60" fill="none"><path d="M37.5586 6.03516C36.8907 6.72656 36.6328 7.42969 36.586 8.57812C36.5274 9.78516 36.7149 10.4297 37.3828 11.4727C38.1328 12.6328 38.3321 13.1016 38.3438 13.7109C38.3438 14.3086 38.2149 14.625 37.7813 15.1523C37.5938 15.375 37.5 15.6328 37.5 15.9492C37.5 16.5703 37.8164 16.875 38.4492 16.875C38.8477 16.875 39 16.8047 39.3164 16.4648C39.9844 15.7734 40.2422 15.0703 40.2891 13.9219C40.3477 12.7148 40.1602 12.0703 39.4922 11.0273C38.7422 9.86719 38.543 9.39844 38.5313 8.80078C38.5313 8.25 38.7657 7.59375 39.0352 7.42969C39.293 7.27734 39.4688 6.65625 39.3633 6.28125C39.2227 5.80078 38.9649 5.625 38.4024 5.625C38.0274 5.625 37.8633 5.70703 37.5586 6.03516Z" fill="#AD8865"></path><path d="M3.39845 6.74998C2.25001 7.17186 1.33595 8.12107 1.04298 9.18748C0.843761 9.9492 0.960949 11.332 1.27736 12.0117C1.50001 12.4804 3.08204 14.1211 8.87111 19.9336L16.1953 27.2695L15.4219 27.8789C13.875 29.1211 12.832 30.5625 12.375 32.0976C12.1289 32.9297 12.1289 35.3437 12.3633 37.0195C13.2774 43.3359 16.3945 48.2109 21.3867 51.1523C23.7774 52.5586 26.8945 53.5781 30.4102 54.1054C32.4727 54.4101 38.6836 54.4101 40.8399 54.0937C48.5742 52.9922 53.918 49.5234 56.8242 43.6992C58.207 40.957 58.9219 38.0625 59.0274 34.8633C59.0742 33.3398 59.0508 32.8476 58.8867 32.2265C58.582 31.0429 57.9375 29.9297 57.0117 28.9687C56.2383 28.1836 56.1445 28.125 55.6875 28.125C55.0313 28.125 54.7266 28.4297 54.7266 29.0742C54.7266 29.4726 54.7969 29.6133 55.1484 29.9179C56.7305 31.289 57.457 33.539 56.8594 35.1328C55.2774 39.2929 47.1211 42.6328 37.6524 42.9961C35.1797 43.0898 31.9805 42.9726 30 42.7148C22.6641 41.7773 16.9453 39.2695 14.8828 36.082C14.3203 35.2031 14.1445 34.5469 14.2031 33.4922C14.2734 32.2617 14.6836 31.4883 15.9375 30.2344C18.1875 27.9609 21.5742 26.414 26.5078 25.3711C29.6953 24.7031 31.957 24.4804 35.6836 24.4804C41.8125 24.4804 47.1563 25.5117 51.3164 27.4922C53.0274 28.3008 53.5781 28.3125 53.8945 27.5625C54.1524 26.9531 53.8477 26.4844 52.8984 25.9922C50.0977 24.539 45.832 23.332 41.4258 22.7695C39.3633 22.5 32.168 22.4648 30.293 22.7109C25.4766 23.3437 21.7852 24.3398 18.7149 25.8398L18.0352 26.1797L10.6524 18.7969C6.58595 14.7422 3.18751 11.2851 3.09376 11.1094C2.69532 10.3476 3.01173 9.25779 3.77345 8.78904C4.20704 8.53123 5.01564 8.47264 5.42579 8.68357C5.56642 8.75389 8.97657 12.1054 13.0078 16.125L20.332 23.4375H20.8242C21.4688 23.4375 21.7969 23.1094 21.7969 22.4531C21.7969 21.9726 21.75 21.9258 14.4492 14.6367C6.21095 6.41014 6.51564 6.66795 4.86329 6.59764C4.20704 6.5742 3.77345 6.62107 3.39845 6.74998ZM16.582 40.4414C19.7109 42.5742 24.3399 44.0508 30.2344 44.789C31.8984 45 39.3281 45 41.0156 44.789C47.6836 43.957 52.6758 42.1875 56.1094 39.4101C56.3203 39.2461 56.4609 39.1758 56.4375 39.2695C56.4141 39.3633 56.2383 39.8789 56.0742 40.4297C54.4453 45.5508 50.5781 49.289 45.0586 51.082C42.1992 52.0195 39.5156 52.3945 35.625 52.3945C30.7266 52.3945 27.1289 51.7148 23.8242 50.1562C19.582 48.1523 16.5586 44.7656 15.1758 40.4297C15.0117 39.8789 14.8359 39.3633 14.8125 39.2695C14.7891 39.1758 14.9297 39.2461 15.1406 39.4101C15.3516 39.5859 15.9961 40.0429 16.582 40.4414Z" fill="#AD8865"></path><path d="M29.1211 9.78516C28.4532 10.4766 28.1953 11.1797 28.1485 12.3281C28.0899 13.5352 28.2774 14.1797 28.9453 15.2227C29.6953 16.3828 29.8946 16.8516 29.9063 17.4609C29.9063 18.0586 29.7774 18.375 29.3438 18.9023C29.1563 19.125 29.0625 19.3828 29.0625 19.6992C29.0625 20.3203 29.3789 20.625 30.0117 20.625C30.4102 20.625 30.5625 20.5547 30.8789 20.2148C31.5469 19.5234 31.8047 18.8203 31.8516 17.6719C31.9102 16.4648 31.7227 15.8203 31.0547 14.7773C30.3047 13.6172 30.1055 13.1484 30.0938 12.5508C30.0938 12 30.3282 11.3438 30.5977 11.1797C30.8555 11.0273 31.0313 10.4062 30.9258 10.0312C30.7852 9.55078 30.5274 9.375 29.9649 9.375C29.5899 9.375 29.4258 9.45703 29.1211 9.78516Z" fill="#AD8865"></path><path d="M45.9961 9.78516C45.3282 10.4766 45.0703 11.1797 45.0235 12.3281C44.9649 13.5352 45.1524 14.1797 45.8203 15.2227C46.5703 16.3828 46.7696 16.8516 46.7813 17.4609C46.7813 18.0586 46.6524 18.375 46.2188 18.9023C46.0313 19.125 45.9375 19.3828 45.9375 19.6992C45.9375 20.3203 46.2539 20.625 46.8867 20.625C47.2852 20.625 47.4375 20.5547 47.7539 20.2148C48.4219 19.5234 48.6797 18.8203 48.7266 17.6719C48.7852 16.4648 48.5977 15.8203 47.9297 14.7773C47.1797 13.6172 46.9805 13.1484 46.9688 12.5508C46.9688 12 47.2032 11.3438 47.4727 11.1797C47.7305 11.0273 47.9063 10.4062 47.8008 10.0312C47.6602 9.55078 47.4024 9.375 46.8399 9.375C46.4649 9.375 46.3008 9.45703 45.9961 9.78516Z" fill="#AD8865"></path><path d="M4.92188 10.5469C4.76953 10.6992 4.6875 10.9336 4.6875 11.25C4.6875 11.8711 5.00391 12.1875 5.625 12.1875C6.24609 12.1875 6.5625 11.8711 6.5625 11.25C6.5625 10.6289 6.24609 10.3125 5.625 10.3125C5.30859 10.3125 5.07422 10.3945 4.92188 10.5469Z" fill="#AD8865"></path><path d="M32.0508 28.1953C25.6406 28.8281 20.1914 30.6445 18.2344 32.8125C17.4609 33.668 17.7422 34.6875 18.7383 34.6875C19.125 34.6875 19.289 34.6055 19.7344 34.1719C21.6328 32.3203 26.3789 30.7734 31.8164 30.2344C33.4805 30.0586 37.7695 30.0703 39.4922 30.2344C44.8125 30.75 49.6172 32.3203 51.5156 34.1719C51.9609 34.6055 52.125 34.6875 52.5117 34.6875C53.4726 34.6875 53.7773 33.6797 53.0625 32.8711C51.3867 30.9492 46.7344 29.2031 41.1914 28.4062C39.9609 28.2305 33.2695 28.0781 32.0508 28.1953Z" fill="#AD8865"></path></svg> 