<?xml version="1.0" encoding="UTF-8"?> <svg xmlns="http://www.w3.org/2000/svg" width="20" height="21" viewBox="0 0 20 21" fill="none"><path d="M9.22256 1.12481C7.29287 1.367 5.8085 2.76934 5.39053 4.74981C5.28506 5.242 5.24991 6.12871 5.3085 6.71465C5.52334 8.78106 6.56631 10.7381 7.96475 11.6834C8.53506 12.0662 9.07412 12.2498 9.746 12.285C11.1562 12.3553 11.996 11.6209 12.5741 9.82793C12.6405 9.6209 12.8085 9.00371 12.9491 8.46075C13.0897 7.91778 13.2812 7.23418 13.3749 6.94512C13.4687 6.65606 13.5702 6.31231 13.5976 6.1834C13.6757 5.82403 13.6679 4.85137 13.578 4.44512C13.3632 3.44903 12.8202 2.51543 12.1093 1.91387C11.7577 1.6209 11.164 1.31231 10.7226 1.19903C10.3593 1.10528 9.65616 1.07403 9.22256 1.12481ZM10.5858 1.73028C11.3632 1.93731 11.9882 2.39825 12.4569 3.11309C12.871 3.7459 13.078 4.3709 13.1132 5.11309C13.1405 5.69121 13.0897 6.0545 12.8671 6.78106C12.7694 7.09746 12.5507 7.87481 12.3749 8.50762C11.8944 10.2772 11.7069 10.7303 11.2772 11.1873C10.7499 11.7537 9.96084 11.8982 9.06631 11.5975C8.49991 11.4061 8.13272 11.1717 7.63272 10.6756C6.53506 9.59356 5.89053 8.01934 5.83194 6.29668C5.79678 5.28496 5.92569 4.55059 6.26944 3.82793C6.49991 3.34356 6.72647 3.03496 7.10537 2.6834C7.64053 2.18731 8.34756 1.82403 9.05069 1.69121C9.44131 1.617 10.2343 1.64043 10.5858 1.73028Z" fill="#8F5633"></path><path d="M10.457 4.35135C10.3242 4.42167 10.2812 4.5701 10.3242 4.79667C10.3398 4.87089 10.3906 4.93339 10.4726 4.97245C10.8515 5.17167 11.2031 4.70292 10.9023 4.40214C10.7734 4.27323 10.6288 4.2576 10.457 4.35135Z" fill="#8F5633"></path><path d="M11.9293 5.5391C11.6988 5.63285 11.648 5.94535 11.8316 6.12895C11.9605 6.25395 12.0933 6.27348 12.2613 6.18363C12.3902 6.11723 12.4215 6.05473 12.4215 5.85942C12.4175 5.58598 12.1871 5.43363 11.9293 5.5391Z" fill="#8F5633"></path><path d="M10.832 6.71097C10.7422 6.74612 10.625 6.93362 10.625 7.043C10.625 7.16019 10.7383 7.32425 10.8555 7.37503C11.2305 7.53128 11.5391 7.07425 11.2539 6.78519C11.1367 6.668 11 6.64456 10.832 6.71097Z" fill="#8F5633"></path><path d="M15.8987 8.52344C15.2073 8.70312 14.5745 9.18359 13.8713 10.0664C13.4729 10.5703 12.3713 12.1055 12.1409 12.4727C11.4534 13.5859 11.3791 15.2578 11.9416 16.8828C12.1916 17.6016 12.551 18.2305 12.969 18.6758C13.4885 19.2305 13.9573 19.4219 14.8049 19.4219C15.3674 19.4219 15.6291 19.3633 16.1213 19.1328C17.1799 18.6367 18.137 17.5664 18.887 16.0273C19.9026 13.9531 20.1448 11.8047 19.5159 10.4453C19.094 9.53125 18.4065 8.96094 17.2971 8.60156C16.8948 8.47656 16.2385 8.4375 15.8987 8.52344ZM17.2659 9.16797C18.6018 9.66406 19.2541 10.543 19.3245 11.9492C19.3752 12.9648 19.051 14.3672 18.4807 15.625C17.6799 17.3789 16.5159 18.5625 15.3205 18.8438C15.0041 18.918 14.3791 18.8984 14.0745 18.8047C13.3401 18.5742 12.633 17.5039 12.262 16.0664C12.133 15.5703 12.1291 15.5391 12.1291 14.7773C12.1291 14.0859 12.1409 13.957 12.2229 13.6641C12.3205 13.293 12.512 12.8633 12.6799 12.625C14.1448 10.5625 14.5745 10.0117 15.0002 9.64453C15.3245 9.36328 15.5627 9.21875 15.8987 9.10156C16.2698 8.97266 16.8049 8.99609 17.2659 9.16797Z" fill="#8F5633"></path><path d="M17.6322 14.4609C17.5463 14.5 17.4916 14.5586 17.4643 14.6523C17.3783 14.9141 17.4955 15.1016 17.7689 15.1367C17.9057 15.1562 17.9408 15.1445 18.0463 15.0391C18.3471 14.7383 18.0228 14.2852 17.6322 14.4609Z" fill="#8F5633"></path><path d="M16.2654 14.9922C16.0779 15.0664 15.9881 15.3906 16.1053 15.543C16.2381 15.7188 16.5154 15.7461 16.66 15.5977C16.7928 15.4688 16.7967 15.1992 16.6678 15.0781C16.5623 14.9805 16.3826 14.9414 16.2654 14.9922Z" fill="#8F5633"></path><path d="M16.2452 16.6953C16.0265 16.9297 16.1905 17.2969 16.5148 17.2969C16.7413 17.293 16.8741 17.1484 16.8741 16.9062C16.8741 16.6172 16.4523 16.4727 16.2452 16.6953Z" fill="#8F5633"></path><path d="M2.48012 10.2655C2.14419 10.3202 1.61294 10.4882 1.38637 10.6171C0.909811 10.8905 0.476218 11.4726 0.273093 12.121C0.136374 12.5429 0.120749 13.3905 0.23403 13.9374C0.601218 15.7187 2.06997 17.7304 3.89419 18.9491C5.57387 20.0702 7.04653 20.1991 8.34731 19.3398C8.69106 19.1171 9.20669 18.6015 9.42153 18.2773C9.71059 17.8359 9.78481 17.5468 9.7809 16.9062C9.777 16.4491 9.76528 16.3319 9.67153 16.0312C9.50747 15.4882 9.25747 14.9335 8.74184 13.9765C8.48403 13.4921 8.19106 12.9491 8.0934 12.7655C7.99575 12.5819 7.83169 12.3163 7.72622 12.1718C7.08169 11.2929 5.89809 10.621 4.50747 10.3398C4.0309 10.246 2.89419 10.203 2.48012 10.2655ZM4.22622 10.8319C5.19106 10.9999 6.19106 11.4413 6.79653 11.9726C7.17934 12.3046 7.402 12.5976 7.65981 13.0976C7.79262 13.3554 8.06215 13.8554 8.25356 14.2109C9.06997 15.703 9.28481 16.3202 9.24965 17.0663C9.23012 17.4257 9.2184 17.4804 9.06997 17.7812C8.81606 18.289 8.22622 18.8359 7.62856 19.1171C6.277 19.7538 4.69106 19.1796 2.92544 17.4179C1.69497 16.1835 0.933249 14.8827 0.714499 13.6444C0.589499 12.9257 0.730124 12.203 1.10122 11.6484C1.40591 11.1952 1.62466 11.0351 2.16372 10.8905C2.74184 10.7304 3.51919 10.7069 4.22622 10.8319Z" fill="#8F5633"></path><path d="M6.30434 12.6875C6.0895 12.7734 6.027 13.0742 6.18715 13.2617C6.26528 13.3516 6.31215 13.3711 6.4645 13.3711C6.60903 13.3711 6.66372 13.3516 6.72231 13.2773C6.98403 12.957 6.68325 12.5352 6.30434 12.6875Z" fill="#8F5633"></path><path d="M4.41816 12.8592C4.36738 12.8865 4.30098 12.9529 4.27363 13.0037C4.06269 13.3826 4.61348 13.742 4.88301 13.4021C5.1291 13.0896 4.76582 12.6678 4.41816 12.8592Z" fill="#8F5633"></path><path d="M6.26953 14.3516C6.13672 14.4961 6.13672 14.7266 6.26953 14.8555C6.39844 14.9883 6.63281 14.9883 6.78516 14.8594C6.9375 14.7266 6.9375 14.4766 6.78516 14.3437C6.62891 14.2109 6.39453 14.2148 6.26953 14.3516Z" fill="#8F5633"></path></svg> 