<?xml version="1.0" encoding="UTF-8"?> <svg xmlns="http://www.w3.org/2000/svg" width="45" height="46" viewBox="0 0 45 46" fill="none"><path d="M20.751 1.90619C16.4092 2.45111 13.0694 5.60638 12.1289 10.0624C11.8916 11.1699 11.8125 13.165 11.9444 14.4833C12.4278 19.1327 14.7744 23.5361 17.9209 25.663C19.2041 26.5243 20.417 26.9374 21.9287 27.0165C25.1016 27.1747 26.9912 25.5224 28.292 21.4882C28.4414 21.0224 28.8194 19.6337 29.1358 18.412C29.4522 17.1904 29.8828 15.6523 30.0938 15.0019C30.3047 14.3515 30.5332 13.5781 30.5948 13.288C30.7705 12.4794 30.753 10.291 30.5508 9.37689C30.0674 7.13568 28.8457 5.03509 27.2461 3.68158C26.4551 3.0224 25.1192 2.32806 24.126 2.07318C23.3086 1.86224 21.7266 1.79193 20.751 1.90619ZM23.8184 3.26849C25.5674 3.73431 26.9737 4.77142 28.0284 6.37982C28.96 7.80365 29.4258 9.2099 29.5049 10.8798C29.5664 12.1806 29.4522 12.998 28.9512 14.6327C28.7315 15.3447 28.2393 17.0937 27.8438 18.5175C26.7627 22.499 26.3409 23.5185 25.3741 24.5468C24.1875 25.8212 22.4121 26.1464 20.3994 25.4697C19.125 25.039 18.2989 24.5117 17.1739 23.3954C14.7041 20.9609 13.2539 17.4189 13.1221 13.5429C13.043 11.2665 13.333 9.61419 14.1065 7.98822C14.625 6.89837 15.1348 6.20404 15.9873 5.41302C17.1914 4.29681 18.7823 3.47943 20.3643 3.1806C21.2432 3.01361 23.0274 3.06634 23.8184 3.26849Z" fill="white"></path><path d="M23.5283 9.16585C23.2295 9.32406 23.1328 9.65804 23.2295 10.1678C23.2646 10.3348 23.3789 10.4754 23.5635 10.5633C24.416 11.0116 25.207 9.95687 24.5303 9.28011C24.2402 8.99007 23.915 8.95492 23.5283 9.16585Z" fill="white"></path><path d="M26.8414 11.8379C26.3228 12.0488 26.2086 12.7519 26.6217 13.165C26.9117 13.4463 27.2105 13.4902 27.5885 13.2881C27.8785 13.1386 27.9488 12.998 27.9488 12.5586C27.94 11.9433 27.4215 11.6006 26.8414 11.8379Z" fill="white"></path><path d="M24.3721 14.4746C24.1699 14.5537 23.9062 14.9755 23.9062 15.2216C23.9062 15.4853 24.1611 15.8544 24.4248 15.9687C25.2686 16.3203 25.9629 15.2919 25.3213 14.6415C25.0576 14.3779 24.75 14.3251 24.3721 14.4746Z" fill="white"></path><path d="M35.7719 18.5527C34.2162 18.957 32.7924 20.0381 31.2104 22.0244C30.3139 23.1582 27.8354 26.6123 27.3168 27.4385C25.7699 29.9434 25.6029 33.7051 26.8686 37.3613C27.4311 38.9785 28.2397 40.3936 29.1801 41.3955C30.349 42.6436 31.4037 43.0742 33.3109 43.0742C34.5766 43.0742 35.1654 42.9424 36.2729 42.4238C38.6547 41.3076 40.808 38.8994 42.4955 35.4365C44.7807 30.7695 45.3256 25.9355 43.9106 22.877C42.9613 20.8203 41.4145 19.5371 38.9184 18.7285C38.0131 18.4473 36.5365 18.3594 35.7719 18.5527ZM38.8481 20.0029C41.8539 21.1191 43.3217 23.0967 43.4799 26.2607C43.5942 28.5459 42.8647 31.7012 41.5815 34.5313C39.7797 38.4775 37.1606 41.1406 34.4711 41.7734C33.7592 41.9404 32.3529 41.8965 31.6674 41.6855C30.015 41.167 28.4242 38.7588 27.5893 35.5244C27.2992 34.4082 27.2904 34.3379 27.2904 32.624C27.2904 31.0684 27.3168 30.7783 27.5014 30.1191C27.7211 29.2842 28.1518 28.3174 28.5297 27.7813C31.8256 23.1406 32.7924 21.9014 33.7504 21.0752C34.4799 20.4424 35.016 20.1172 35.7719 19.8535C36.6068 19.5635 37.8109 19.6162 38.8481 20.0029Z" fill="white"></path><path d="M39.6727 31.9121C39.4794 32 39.3563 32.1318 39.2948 32.3428C39.1015 32.9316 39.3651 33.3535 39.9804 33.4326C40.288 33.4766 40.3671 33.4502 40.6044 33.2129C41.2811 32.5361 40.5516 31.5166 39.6727 31.9121Z" fill="white"></path><path d="M36.5977 33.1073C36.1759 33.2743 35.9737 34.0038 36.2374 34.3466C36.5362 34.7421 37.1602 34.8036 37.4854 34.4696C37.7843 34.1796 37.7931 33.5732 37.503 33.3007C37.2657 33.081 36.8614 32.9931 36.5977 33.1073Z" fill="white"></path><path d="M36.5525 36.9395C36.0603 37.4668 36.4295 38.293 37.159 38.293C37.6687 38.2842 37.9675 37.959 37.9675 37.4141C37.9675 36.7637 37.0183 36.4385 36.5525 36.9395Z" fill="white"></path><path d="M5.58065 22.4726C4.82479 22.5956 3.62947 22.9736 3.11971 23.2636C2.04744 23.8788 1.07186 25.1884 0.614825 26.6474C0.307208 27.5966 0.272052 29.5038 0.526935 30.7343C1.35311 34.7421 4.65779 39.2685 8.76229 42.0107C12.5416 44.5331 15.8551 44.8232 18.7818 42.8896C19.5553 42.3886 20.7154 41.2285 21.1988 40.499C21.8492 39.5058 22.0162 38.8554 22.0074 37.414C21.9986 36.3857 21.9722 36.122 21.7613 35.4452C21.3922 34.2236 20.8297 32.9755 19.6695 30.8222C19.0894 29.7324 18.4303 28.5107 18.2105 28.0976C17.9908 27.6845 17.6217 27.0869 17.3844 26.7617C15.9342 24.7841 13.2711 23.2724 10.1422 22.6396C9.0699 22.4286 6.51229 22.332 5.58065 22.4726ZM9.50936 23.747C11.6803 24.1249 13.9303 25.1181 15.2926 26.3134C16.1539 27.0605 16.6549 27.7197 17.2349 28.8447C17.5338 29.4247 18.1402 30.5497 18.5709 31.3495C20.4078 34.707 20.8912 36.0956 20.8121 37.7744C20.7681 38.5829 20.7418 38.706 20.4078 39.3827C19.8365 40.5253 18.5094 41.7558 17.1646 42.3886C14.1236 43.8212 10.5553 42.5292 6.5826 38.5654C3.81404 35.788 2.10018 32.8613 1.60799 30.0751C1.32674 28.4579 1.64315 26.832 2.47811 25.5839C3.16365 24.5644 3.65584 24.204 4.86873 23.8788C6.16951 23.5185 7.91854 23.4658 9.50936 23.747Z" fill="white"></path><path d="M14.1849 27.9219C13.7015 28.1152 13.5609 28.792 13.9212 29.2139C14.097 29.416 14.2025 29.46 14.5452 29.46C14.8704 29.46 14.9935 29.416 15.1253 29.249C15.7142 28.5283 15.0374 27.5791 14.1849 27.9219Z" fill="white"></path><path d="M9.94087 28.3084C9.82661 28.3699 9.67719 28.5193 9.61567 28.6336C9.14106 29.4861 10.3803 30.2947 10.9868 29.5301C11.5405 28.827 10.7231 27.8777 9.94087 28.3084Z" fill="white"></path><path d="M14.1069 31.6659C13.8081 31.9911 13.8081 32.5096 14.1069 32.7997C14.397 33.0985 14.9243 33.0985 15.2671 32.8085C15.6099 32.5096 15.6099 31.9471 15.2671 31.6483C14.9155 31.3495 14.3882 31.3583 14.1069 31.6659Z" fill="white"></path></svg> 