<?xml version="1.0" encoding="UTF-8"?> <svg xmlns="http://www.w3.org/2000/svg" width="20" height="21" viewBox="0 0 20 21" fill="none"><g clip-path="url(#clip0_917_6136)"><path d="M12.1094 0.566408C11.4492 1.01563 10.8203 1.73828 10.3984 2.53125C10.2734 2.76953 10.043 3.33985 9.97656 3.57813C9.96875 3.60938 9.89844 3.58203 9.76172 3.48828C9.50781 3.3125 9.39844 3.31641 9.15625 3.4961C8.23828 4.1836 7.54297 5.13281 7.19531 6.17969L7.08594 6.50391L6.96875 6.41016C6.80469 6.27344 6.60938 6.19531 6.51172 6.22656C6.37891 6.26953 5.98828 6.58203 5.66016 6.90625C5.12891 7.4375 4.69531 8.09375 4.41406 8.80859C4.32812 9.03125 4.25781 9.23438 4.25781 9.26172C4.25781 9.36719 4.20703 9.35938 4.03125 9.23047C3.78516 9.03906 3.66406 9.04688 3.35156 9.27734C2.5 9.91797 1.79297 10.9141 1.44922 11.9688C1.09766 13.0469 1.07422 14.2422 1.38672 15.3242C1.50781 15.7344 1.71094 16.2148 1.89062 16.5156L2.02344 16.7305L1.07422 17.6875C0.0234375 18.75 0 18.7852 0 19.2891C0 19.668 0.0898438 19.8945 0.347656 20.1523C0.605469 20.4102 0.832031 20.5 1.21094 20.5C1.71484 20.5 1.75 20.4766 2.8125 19.4258L3.76953 18.4766L3.94531 18.5898C4.39453 18.875 5.21094 19.1602 5.89844 19.2734C6.40234 19.3594 7.49609 19.3281 7.96875 19.2148C8.73438 19.0391 9.4375 18.7227 10.0508 18.2852C10.4219 18.0195 10.9609 17.4961 11.2227 17.1484C11.4531 16.8359 11.4609 16.7148 11.2656 16.4609L11.1289 16.2813L11.2305 16.2422C11.2891 16.2188 11.3477 16.2031 11.3672 16.2031C11.4492 16.2031 12.1875 15.875 12.4375 15.7305C13.0664 15.3555 13.668 14.8359 14.0703 14.3047C14.3477 13.9453 14.3516 13.8672 14.0977 13.543L13.9883 13.4023L14.2422 13.332C14.5977 13.2344 15.3477 12.8555 15.7578 12.5625C16.3867 12.1172 17.1484 11.2852 17.1484 11.0469C17.1484 10.9883 17.0898 10.8516 17.0156 10.7422C16.8828 10.5508 16.875 10.5 16.9805 10.5C17.1055 10.5 17.8594 10.1758 18.1953 9.97656C18.8398 9.59375 19.4336 9.07422 19.8164 8.55078C20.0898 8.1836 20.0781 8.10938 19.6914 7.64063C19.2734 7.13281 18.6055 6.58203 18.0977 6.32422C18.0039 6.27735 17.9297 6.23047 17.9297 6.21875C17.9297 6.20703 18.0273 6.08203 18.1445 5.94141C19.0273 4.90625 19.4961 3.64844 19.5078 2.31641C19.5117 1.58203 19.4727 1.25781 19.3555 1.14453C19.2461 1.03125 18.8672 0.984377 18.1406 0.996096C16.8203 1.01172 15.5586 1.49219 14.5312 2.37891C14.2969 2.57813 14.2617 2.59766 14.2383 2.53516C14.1914 2.37891 13.7734 1.76172 13.5039 1.44141C13.3477 1.26172 13.0586 0.972658 12.8555 0.804689C12.4531 0.472658 12.3125 0.425783 12.1094 0.566408ZM12.7422 1.5625C13.4609 2.27344 13.9219 3.11719 14.1445 4.13672C14.2617 4.65625 14.2695 5.53125 14.168 6.0586C14.0078 6.85938 13.6484 7.63281 13.1289 8.28125L12.9492 8.50781H12.4766H12.0039L11.9805 7.8125C11.957 7.0586 11.8984 6.72266 11.6797 6.10547C11.457 5.47656 11.1562 4.96094 10.6055 4.26953L10.4922 4.125L10.5781 3.78906C10.7305 3.19141 11.125 2.45313 11.5781 1.91406C11.8086 1.64063 12.2773 1.20313 12.3438 1.20313C12.3633 1.20313 12.5391 1.36719 12.7422 1.5625ZM18.8633 1.65235C18.875 1.66797 18.8867 1.9375 18.8828 2.25C18.875 3.125 18.6992 3.83985 18.293 4.61719C18.125 4.9336 17.6602 5.5625 17.4258 5.78906L17.2695 5.94141L16.9844 5.85938C16.625 5.75 16.4922 5.75 16.3789 5.85938C16.2695 5.96094 16.2578 6.16016 16.3594 6.27344C16.3984 6.32031 16.5898 6.40235 16.8164 6.47266C17.6836 6.73828 18.5273 7.26953 19.0859 7.90235C19.293 8.14453 19.3047 8.16016 19.25 8.24219C19.1289 8.42578 18.6328 8.89844 18.3203 9.13281C17.9102 9.43359 17.1562 9.80469 16.7148 9.92188L16.375 10.0078L16.1055 9.78906C15.7656 9.51172 15.3789 9.26563 15.0039 9.07813C14.7148 8.92969 13.8633 8.625 13.7422 8.625C13.6914 8.625 13.7266 8.55469 13.8867 8.33203C14.2266 7.85547 14.5547 7.125 14.7266 6.45313C14.7656 6.30078 14.7734 6.28906 14.9453 6.26563C15.0469 6.25391 15.2422 6.24219 15.3789 6.24219C15.5938 6.24219 15.6445 6.22656 15.7227 6.14453C15.8516 6.01563 15.8516 5.83985 15.7188 5.70703C15.6211 5.60938 15.6055 5.60938 15.2383 5.625L14.8594 5.64453L14.875 5.26953C14.8945 4.80469 14.8008 4.07422 14.6641 3.58985L14.5586 3.23047L14.7109 3.07031C14.9492 2.82422 15.5742 2.3711 15.9219 2.19141C16.4883 1.89453 17.0742 1.71485 17.7188 1.63281C18.0078 1.59766 18.8203 1.60938 18.8633 1.65235ZM10.1289 4.69922C10.9727 5.67578 11.3828 6.80078 11.3594 8.0586L11.3477 8.59766L10.9766 8.70313C10.3477 8.88281 9.87891 9.10156 9.33984 9.46094C9.14453 9.58984 9.01172 9.65625 9.00391 9.62891C8.99609 9.60156 8.95312 9.44922 8.91016 9.28516C8.74219 8.64844 8.39062 7.96875 7.91016 7.35547L7.62109 6.98438L7.71875 6.64453C7.98438 5.71485 8.50781 4.88281 9.19531 4.28906L9.46484 4.0586L9.67969 4.24219C9.79688 4.34375 10 4.54688 10.1289 4.69922ZM7.00781 7.30469C8.31641 8.61719 8.80469 10.4141 8.33203 12.1719C8.27734 12.3789 8.23047 12.6016 8.23047 12.6602C8.23047 12.7852 8.33984 12.9102 8.45703 12.9219C8.73828 12.9492 8.80859 12.8711 8.94531 12.3555L9.03516 12.0273L9.25 12C9.75391 11.9375 10.5664 12.0391 11.1914 12.2461C12.0156 12.5156 12.9688 13.1523 13.4414 13.7461C13.5859 13.9297 13.5859 13.9336 13.1758 14.3516C12.6289 14.9141 11.8789 15.3711 11.1211 15.6133C10.9141 15.6797 10.7148 15.7344 10.6836 15.7344C10.6523 15.7344 10.4492 15.5938 10.2305 15.4258C9.64453 14.9688 8.78516 14.5469 8.16016 14.4063L7.94141 14.3555L8.14844 14.0664C8.375 13.7539 8.41016 13.5977 8.30078 13.4414C8.21875 13.3281 8.03125 13.2891 7.91406 13.3672C7.86328 13.3984 7.72266 13.5625 7.60547 13.7305C7.21094 14.2813 7.27734 14.2383 6.73438 14.2422H6.26172V13.707C6.25781 12.7813 6.08594 12.0742 5.66406 11.2227C5.47656 10.8398 5.30078 10.5547 5.07812 10.2734C4.90625 10.0508 4.76562 9.84766 4.76562 9.81641C4.76562 9.67578 5.02734 8.96094 5.20703 8.60938C5.40234 8.22656 5.71094 7.78125 6.00391 7.46485C6.19922 7.25 6.55469 6.94531 6.60547 6.94531C6.62891 6.94531 6.80859 7.10938 7.00781 7.30469ZM13.332 9.19141C13.7422 9.26172 14.2109 9.41016 14.5977 9.58203C15.1719 9.84375 15.8711 10.3672 16.2578 10.8203L16.4414 11.0352L16.2109 11.3047C15.6172 11.9922 14.7852 12.5156 13.8555 12.7813L13.5156 12.8789L13.1523 12.5977C12.0742 11.7539 10.7734 11.3164 9.48047 11.3672L9.12109 11.3789L9.13281 10.8906L9.14453 10.4023L9.40625 10.1992C10.0703 9.67969 10.8203 9.33984 11.625 9.19531C12.0391 9.12109 12.9141 9.11719 13.332 9.19141ZM4.29297 10.3281C4.88672 10.9648 5.32422 11.793 5.52734 12.6563C5.60938 13.0078 5.66016 13.707 5.62891 14.0508L5.60547 14.3398L5.27344 14.4297C4.36719 14.6719 3.51953 15.1602 2.81641 15.8398C2.60938 16.0352 2.44141 16.1953 2.4375 16.1914C2.43359 16.1875 2.36719 16.0547 2.28906 15.8984C2.09375 15.5078 1.92969 15.0078 1.85156 14.5469C1.75781 13.9844 1.78906 13.082 1.92578 12.5625C2.19141 11.5547 2.72266 10.668 3.44141 10.043L3.72266 9.80078L3.87109 9.91406C3.94922 9.98047 4.14062 10.168 4.29297 10.3281ZM7.62109 14.9336C8.63281 15.1016 9.67578 15.6641 10.4062 16.4375C10.6523 16.6992 10.6953 16.7695 10.6641 16.8281C10.5742 17 9.88281 17.6289 9.53516 17.8633C8.67188 18.4375 7.79297 18.7031 6.76172 18.7031C5.73828 18.7031 4.82812 18.4258 3.96875 17.8477C3.67969 17.6563 3.125 17.1523 2.92969 16.9023L2.80859 16.7539L3.15234 16.4063C4.36719 15.1719 5.93359 14.6602 7.62109 14.9336ZM2.40234 18.9297C1.95312 19.3867 1.53516 19.7891 1.47656 19.8203C1.22266 19.9531 0.859375 19.8477 0.703125 19.5938C0.617188 19.4492 0.597656 19.1797 0.667969 19.043C0.691406 18.9961 1.08984 18.5781 1.55078 18.1133L2.38672 17.2734L2.80469 17.6836L3.22656 18.0977L2.40234 18.9297Z" fill="#8F5633"></path></g><defs><clipPath id="clip0_917_6136"><rect width="20" height="20" fill="white" transform="translate(0 0.5)"></rect></clipPath></defs></svg> 