<?xml version="1.0" encoding="UTF-8"?> <svg xmlns="http://www.w3.org/2000/svg" width="20" height="21" viewBox="0 0 20 21" fill="none"><g clip-path="url(#clip0_917_6156)"><path d="M5.07815 1.05083C5.02346 1.07426 4.91409 1.13676 4.83596 1.19145C4.70706 1.27739 4.67581 1.2852 4.56643 1.24614C4.39065 1.18364 4.20315 1.19536 3.88674 1.27739C3.56643 1.35942 3.33206 1.4727 3.22268 1.59379C3.17971 1.64067 2.99221 1.7852 2.80081 1.91411C2.60159 2.04692 2.39846 2.2227 2.31253 2.33598C2.17971 2.50786 2.14456 2.53129 1.93362 2.57426C1.71878 2.61723 1.6719 2.64848 1.39846 2.91411C1.05471 3.24614 0.992213 3.37504 1.03128 3.69145C1.05471 3.89458 1.05081 3.9102 0.863307 4.18364C0.757838 4.33598 0.617213 4.53129 0.550807 4.61723C0.382838 4.82817 0.343775 5.00004 0.394557 5.27348C0.433619 5.4727 0.429713 5.5352 0.351588 5.80864C0.269557 6.08208 0.26565 6.15239 0.2969 6.37895C0.332057 6.58989 0.32815 6.64458 0.277369 6.68364C0.246119 6.71098 0.1719 6.80083 0.1094 6.88286C-0.0741933 7.13676 -0.0312245 7.44926 0.2344 7.74614C0.281275 7.79692 0.308619 7.91801 0.324244 8.10942C0.351588 8.43364 0.386744 8.51176 0.757838 9.05473C0.9844 9.39067 1.02737 9.48051 1.05081 9.67192C1.06643 9.79301 1.10159 9.93754 1.13284 9.99223C1.22659 10.168 1.60549 10.5547 1.83206 10.7032C1.9844 10.8047 2.09378 10.9219 2.18753 11.0743C2.2969 11.254 2.39065 11.3438 2.63284 11.504C2.9844 11.7383 3.12893 11.7774 3.4219 11.7227C3.62503 11.6875 3.63674 11.6915 3.84768 11.8243C4.0469 11.9571 4.06253 11.9727 4.06253 12.125C4.06253 12.2657 4.0469 12.2891 3.91409 12.3633C3.63284 12.5235 3.51565 12.7383 3.51565 13.1055C3.51565 13.1915 3.48049 13.379 3.43753 13.5157C3.31253 13.9102 3.33596 14.0704 3.54299 14.293L3.63674 14.3946L3.43362 14.5235C3.20706 14.6719 3.08596 14.8399 3.08596 15.004C3.08596 15.1485 3.17971 15.3477 3.30471 15.4649C3.40628 15.5586 3.63284 16.1993 3.63284 16.3946C3.63284 16.5352 3.70315 16.75 3.78518 16.8438C3.82034 16.8829 3.9219 16.9688 4.01565 17.0274C4.18362 17.1329 4.18753 17.1368 4.19143 17.3829C4.19924 17.6016 4.21878 17.6641 4.39456 17.9532C4.61331 18.3204 4.68362 18.379 4.99221 18.4375C5.16409 18.4727 5.23831 18.5079 5.32034 18.6055C5.37893 18.6758 5.48049 18.754 5.54299 18.7813C5.62112 18.8125 5.70315 18.9024 5.77737 19.0313C5.83987 19.1446 5.93753 19.2657 5.99221 19.3008C6.12503 19.3907 6.37503 19.3829 6.56253 19.2891C6.64846 19.2461 6.72268 19.211 6.7344 19.211C6.74612 19.211 6.77346 19.2852 6.7969 19.375C6.89065 19.7188 7.17581 19.8594 7.53909 19.7383C7.7344 19.6719 7.74221 19.6719 7.82424 19.75C8.09768 20 8.31643 20.043 8.69143 19.9141C8.82815 19.8672 9.01956 19.836 9.17581 19.836C9.40237 19.836 9.91018 19.7696 10.3867 19.6797C10.4844 19.6602 10.5977 19.6641 10.6524 19.6836C10.7032 19.7032 10.8555 19.7188 10.9844 19.7188H11.2227L11.4532 19.4922C11.6563 19.2852 11.6797 19.2461 11.6797 19.1016C11.6797 18.9766 11.6563 18.9258 11.5782 18.8633C11.4219 18.7422 11.3086 18.7618 11.1133 18.9415L10.9414 19.1016L10.7383 19.0586C10.5352 19.0157 10.4805 19.0196 9.84378 19.1368C9.72659 19.1602 9.41018 19.1915 9.14065 19.211C8.85549 19.2266 8.58987 19.2657 8.50393 19.3008C8.3594 19.3633 8.35549 19.3633 8.23049 19.254C8.16409 19.1954 8.06643 19.125 8.01956 19.0977C7.91799 19.0469 7.62112 19.0391 7.48831 19.0899C7.39456 19.125 7.38674 19.1172 7.30471 18.8946C7.16799 18.5118 6.90237 18.4141 6.52346 18.6055C6.41799 18.6602 6.32424 18.7032 6.31643 18.7032C6.30471 18.7032 6.27737 18.6485 6.25003 18.586C6.19534 18.4532 5.96487 18.2344 5.87893 18.2344C5.84768 18.2344 5.7969 18.1836 5.76174 18.1172C5.68753 17.9727 5.51174 17.879 5.25393 17.8477C5.06643 17.8243 5.05471 17.8165 4.93362 17.6094C4.82034 17.4258 4.80862 17.375 4.82815 17.2149C4.86721 16.9297 4.75003 16.7071 4.48049 16.5547C4.27346 16.4375 4.26956 16.4297 4.24612 16.2305C4.21487 15.9688 4.01174 15.3672 3.89065 15.1875L3.7969 15.0469L3.96878 14.9375C4.35549 14.6915 4.44143 14.4102 4.22659 14.1094C4.16409 14.0274 4.08596 13.9336 4.05081 13.9063C3.99612 13.8594 3.99612 13.8399 4.0469 13.6915C4.08206 13.6016 4.11721 13.4024 4.12893 13.2461L4.15237 12.9649L4.33987 12.8477C4.58987 12.6954 4.68753 12.5313 4.68753 12.2657C4.68753 12.0547 4.71878 12.0196 4.80862 12.125C4.97659 12.3282 5.35159 12.3868 5.66409 12.2618C5.83596 12.1915 5.84378 12.1915 6.03518 12.2657C6.21487 12.336 6.28518 12.3438 6.87503 12.3165C7.83206 12.2774 8.16018 12.1563 9.00393 11.5118C9.37893 11.2266 9.38284 11.2266 9.59378 11.3516L9.78128 11.461L9.76956 11.6719C9.76174 11.9024 9.83206 12.0782 10.0899 12.4649C10.2266 12.6641 10.3555 12.7422 10.625 12.7852C10.7578 12.8047 10.8282 12.8477 10.9063 12.9415C10.9649 13.0118 11.0664 13.0899 11.1289 13.1172C11.2071 13.1485 11.2891 13.2383 11.3672 13.375C11.5508 13.6993 11.8282 13.7891 12.1485 13.625C12.2344 13.5821 12.3086 13.5469 12.3203 13.5469C12.3321 13.5469 12.3594 13.6133 12.3828 13.6993C12.4766 14.0547 12.7266 14.1875 13.1016 14.0782C13.3086 14.0157 13.3282 14.0157 13.418 14.0821C13.4883 14.1329 13.5039 14.1719 13.4844 14.2305C13.4492 14.3282 13.4532 14.5391 13.4961 14.8907C13.5196 15.0977 13.5586 15.2032 13.6602 15.3555C13.7891 15.5469 13.793 15.5586 13.7461 15.7422C13.7071 15.9063 13.6446 15.9922 13.2969 16.3477C12.8867 16.7657 12.8125 16.8868 12.8125 17.1602C12.8125 17.2266 12.75 17.3985 12.6758 17.5391C12.5703 17.7383 12.4961 17.8204 12.3672 17.8985C12.1758 18.0118 12.0899 18.1758 12.1485 18.3282C12.1914 18.4415 12.3321 18.5469 12.4453 18.5469C12.5586 18.5469 12.9766 18.2696 13.0782 18.125C13.2461 17.8946 13.4375 17.4375 13.4375 17.2774C13.4375 17.129 13.4649 17.0938 13.8399 16.711C14.2266 16.3125 14.2422 16.2891 14.3321 15.9922C14.4492 15.5938 14.4336 15.3321 14.2774 15.125C14.1289 14.9336 14.043 14.504 14.125 14.379C14.211 14.2461 14.4297 14.1719 14.7422 14.1719C14.8946 14.1719 15.2735 14.129 15.586 14.0782C15.9766 14.0157 16.1836 13.9961 16.2656 14.0196C16.3321 14.0391 16.4805 14.0547 16.5899 14.0547C16.793 14.0547 16.8008 14.0508 17.1406 13.7383C17.3281 13.5625 17.4961 13.379 17.5156 13.3243C17.586 13.1211 17.3672 12.8946 17.1524 12.9415C17.0899 12.9532 16.9219 13.0704 16.7813 13.2032L16.5235 13.4375L16.3242 13.3907C16.1758 13.3555 16.0703 13.3516 15.9063 13.3868C15.3711 13.4883 14.9102 13.5469 14.6446 13.5469C14.4688 13.5508 14.2735 13.5782 14.1446 13.6211L13.9375 13.6954L13.8125 13.586C13.7461 13.5274 13.6524 13.461 13.6055 13.4336C13.5039 13.3829 13.2071 13.375 13.0742 13.4258C12.9805 13.461 12.9727 13.4532 12.8907 13.2305C12.7539 12.8477 12.4883 12.75 12.1094 12.9415C12.0039 12.9961 11.9102 13.0391 11.9024 13.0391C11.8907 13.0391 11.8633 12.9844 11.836 12.9219C11.7813 12.7891 11.5508 12.5704 11.4649 12.5704C11.4336 12.5704 11.3828 12.5196 11.3516 12.4571C11.2774 12.3165 11.1446 12.2305 10.9532 12.1993C10.8711 12.1875 10.7617 12.168 10.7149 12.1563C10.6641 12.1485 10.586 12.0625 10.5117 11.9297C10.4102 11.754 10.3946 11.6954 10.4141 11.5469C10.4532 11.2696 10.3321 11.043 10.0664 10.8907C9.8594 10.7735 9.85549 10.7657 9.83206 10.5665C9.80081 10.3047 9.59768 9.70317 9.47659 9.52348L9.38284 9.38286L9.55471 9.27348C9.94143 9.02739 10.0274 8.74614 9.81253 8.44536C9.75003 8.36333 9.6719 8.26958 9.63674 8.24223C9.58206 8.19536 9.58206 8.17583 9.63284 8.02739C9.66799 7.93754 9.70315 7.73833 9.71487 7.58208L9.73831 7.30083L9.92581 7.18364C10.1914 7.01958 10.2735 6.87114 10.2735 6.55864C10.2735 6.33208 10.2891 6.27739 10.4336 6.0352C10.5235 5.88676 10.6055 5.69536 10.6172 5.60942C10.6328 5.46489 10.6446 5.45708 10.7383 5.47661C11.25 5.59379 11.4297 5.5352 11.5938 5.19926C11.6524 5.07426 11.7305 4.94536 11.7657 4.9102C11.8008 4.87114 11.8633 4.75004 11.9024 4.64067C11.9844 4.40629 12.1758 4.24614 12.5821 4.06254L12.836 3.94926L13.0078 4.01958C13.2422 4.11333 14.0039 4.12114 14.2383 4.03129C14.3985 3.9727 14.4024 3.9727 14.6094 4.10161C14.8633 4.25786 15.0664 4.26567 15.3047 4.13286L15.4649 4.04301L15.6367 4.19926C15.8164 4.36723 16.0156 4.42973 16.2149 4.38676C16.2813 4.37114 16.4219 4.37895 16.5352 4.40629C16.6485 4.42973 16.7735 4.45708 16.8203 4.46489C16.875 4.47661 16.9258 4.53911 16.9688 4.65239C17.0703 4.91801 17.2227 5.03911 17.5313 5.09379C17.6758 5.12114 17.8946 5.18364 18.0156 5.23442L18.2422 5.32426V5.57426C18.2422 5.81254 18.2539 5.84379 18.4453 6.13286C18.668 6.47661 18.8008 6.60551 19.0039 6.67192L19.1406 6.71879L19.1485 6.97661C19.1524 7.12114 19.1563 7.35942 19.1602 7.51176C19.1641 7.6602 19.1875 7.88676 19.2149 8.00786C19.2617 8.2227 19.2578 8.23442 19.1524 8.39848C19.0352 8.58208 19.0196 8.73442 19.0821 9.22661C19.1055 9.43364 19.1446 9.53911 19.2461 9.69145C19.375 9.88286 19.3789 9.89458 19.3321 10.0782C19.293 10.2461 19.2344 10.3243 18.8828 10.6797C18.4727 11.0977 18.3985 11.2188 18.3985 11.5C18.3985 11.625 18.211 12.0079 18.0586 12.1915C17.8594 12.4336 18.0313 12.7149 18.3672 12.6915C18.5781 12.6758 19.0235 11.9493 19.0235 11.6133C19.0235 11.4532 19.0391 11.4297 19.4141 11.0547C19.875 10.5977 19.9688 10.4063 19.9766 9.9102C19.9805 9.64067 19.9688 9.60161 19.8672 9.46879C19.793 9.36723 19.7383 9.23051 19.7071 9.06254C19.6602 8.80864 19.6602 8.80083 19.7696 8.60161C19.8906 8.38676 19.9063 8.25004 19.8438 7.91801C19.8203 7.80083 19.793 7.49614 19.7852 7.23833C19.7617 6.46098 19.6992 6.30473 19.3555 6.13676C19.043 5.98051 18.8828 5.73051 18.8594 5.35161C18.8438 5.0352 18.7656 4.89458 18.5508 4.78911C18.4766 4.75395 18.3203 4.67973 18.2031 4.62114C18.086 4.56254 17.8946 4.50786 17.7813 4.49614C17.5781 4.4727 17.5742 4.46879 17.4922 4.28129C17.4492 4.17583 17.3633 4.05083 17.3008 4.00004C17.1641 3.88286 16.5117 3.72661 16.2774 3.75004C16.125 3.76567 16.0977 3.75395 15.9102 3.57817C15.7227 3.40239 15.6953 3.39067 15.5039 3.39067C15.3594 3.39067 15.2539 3.41801 15.1367 3.48442L14.9727 3.58208L14.8242 3.48051C14.6289 3.3477 14.3633 3.32036 14.1172 3.40629C13.8438 3.50004 13.375 3.48833 13.1446 3.38676C12.8985 3.27739 12.7071 3.30083 12.3164 3.48442C12.0938 3.59379 11.4844 3.96098 11.4844 3.99223C11.4844 3.99614 11.4414 4.0977 11.3907 4.22661L11.2969 4.45708L11.2305 4.32426C11.1914 4.25395 11.0703 4.0977 10.9571 3.97661C10.8047 3.81645 10.7344 3.70317 10.6797 3.52739C10.6172 3.33598 10.5547 3.23833 10.3125 2.98442C10.125 2.78911 9.94143 2.64067 9.7969 2.56645C9.67581 2.50395 9.56643 2.43754 9.55471 2.41801C9.53909 2.39848 9.43753 2.35161 9.32424 2.31254C9.21487 2.27739 9.11721 2.24223 9.1094 2.23833C9.10549 2.23442 9.07424 2.12504 9.03909 2.00004C8.97268 1.73442 8.83596 1.57036 8.63284 1.51567C7.71096 1.26176 7.46096 1.28911 7.46096 1.64067C7.46096 1.81254 7.56643 1.94536 7.70706 1.94536C7.75784 1.94536 7.87503 1.96879 7.97268 2.00004C8.06643 2.03129 8.20706 2.06645 8.28518 2.07817C8.41799 2.10161 8.42581 2.11333 8.47268 2.31645C8.53518 2.58598 8.66018 2.74223 8.89846 2.82817C9.51956 3.06254 9.98831 3.44926 10.1172 3.83989C10.211 4.11723 10.2891 4.24223 10.461 4.38676C10.5625 4.4727 10.7422 4.73833 10.7422 4.80473C10.7422 4.81254 10.668 4.81254 10.5782 4.80473C10.2735 4.7852 10.1094 4.94145 10.0313 5.32036C10.0039 5.46098 9.92581 5.65629 9.82815 5.80864C9.69143 6.0352 9.66799 6.10161 9.65628 6.34379C9.64065 6.58989 9.62893 6.62895 9.55081 6.66411C9.26174 6.79692 9.10159 7.07036 9.10159 7.44145C9.10159 7.52348 9.06643 7.70317 9.02346 7.84379C8.89846 8.25004 8.9219 8.40629 9.12893 8.62895L9.22268 8.73051L9.01956 8.85942C8.61721 9.12114 8.56253 9.42583 8.86331 9.76567C8.92971 9.83989 9.03128 10.0469 9.09768 10.2461C9.16409 10.4336 9.21878 10.5938 9.21878 10.6016C9.21878 10.6055 9.12503 10.6641 9.01565 10.7305C8.90237 10.8008 8.66018 10.9688 8.47659 11.1055C7.83987 11.5899 7.61721 11.668 6.83596 11.6797C6.36721 11.6875 6.23049 11.6758 6.0469 11.6172C5.82424 11.543 5.82034 11.543 5.56643 11.629L5.30862 11.711L5.1719 11.6094C4.99221 11.4727 4.78518 11.4024 4.5469 11.3985C4.37893 11.3985 4.30862 11.3711 4.11721 11.2422C3.84378 11.0547 3.70706 11.0235 3.43362 11.0821C3.2344 11.125 3.22268 11.125 3.01174 10.9922C2.85159 10.8946 2.75784 10.8008 2.66409 10.6407C2.57424 10.4883 2.46878 10.375 2.30471 10.2657C2.17581 10.1797 1.98831 10.0196 1.88674 9.9102C1.72268 9.73442 1.69534 9.67973 1.65628 9.44926C1.61721 9.23051 1.56643 9.12504 1.35159 8.79692C1.21096 8.58598 1.06643 8.37114 1.02737 8.32036C0.988307 8.26176 0.95315 8.10942 0.937525 7.89848C0.914088 7.60942 0.898463 7.55083 0.789088 7.41801C0.718775 7.33208 0.664088 7.25395 0.664088 7.24223C0.664088 7.23051 0.722682 7.14067 0.7969 7.04301C0.964869 6.82426 0.992213 6.69926 0.937525 6.40239C0.898463 6.17973 0.902369 6.13676 0.996119 5.86333C1.09378 5.58598 1.09768 5.55083 1.05471 5.32036L1.00784 5.07426L1.14846 4.88676C1.22659 4.7852 1.37503 4.57426 1.47659 4.42583C1.65628 4.1602 1.66018 4.14458 1.66409 3.8477V3.54692L1.83596 3.37114C1.96096 3.24614 2.0469 3.19536 2.16409 3.17583C2.4219 3.13286 2.56253 3.04692 2.73831 2.82036C2.83596 2.69536 3.02737 2.52739 3.21878 2.39458C3.39846 2.27739 3.58206 2.13676 3.63284 2.08208C3.68753 2.02348 3.83596 1.94926 3.99221 1.90239C4.23049 1.83208 4.28909 1.82817 4.46878 1.87114C4.7344 1.92973 4.89846 1.89848 5.13674 1.74614C5.30862 1.63676 5.34378 1.62895 5.46487 1.66411C5.54299 1.68754 5.7969 1.73442 6.02737 1.76958C6.44534 1.83598 6.45315 1.83598 6.55471 1.76176C6.63284 1.70317 6.66409 1.64458 6.6719 1.52348C6.68753 1.30083 6.59378 1.22661 6.21878 1.16801C6.05471 1.14067 5.80862 1.09379 5.67581 1.06254C5.39846 1.00004 5.21878 0.996138 5.07815 1.05083Z" fill="#8F5633"></path><path d="M7.30469 3.625C7.25391 3.67578 7.22656 3.75391 7.22656 3.85547C7.22656 4.08594 7.35547 4.17188 7.69922 4.17188C7.84375 4.17188 8.00781 4.15234 8.0625 4.12891C8.25781 4.03906 8.28516 3.72656 8.11328 3.60547C8.05469 3.56641 7.92969 3.54688 7.70703 3.54688C7.43359 3.54688 7.37109 3.55859 7.30469 3.625Z" fill="#8F5633"></path><path d="M15.1016 5.34765C15.0039 5.42187 15 5.44531 15 5.77734C15 6.07421 15.0117 6.13671 15.0781 6.20312C15.1797 6.30468 15.3906 6.30468 15.5117 6.20702C15.5977 6.13671 15.6055 6.10156 15.6055 5.79296C15.6055 5.46874 15.6016 5.44921 15.4961 5.35937C15.3633 5.24609 15.2383 5.23827 15.1016 5.34765Z" fill="#8F5633"></path><path d="M6.02729 5.58608C5.77339 5.82826 5.73042 5.92201 5.7851 6.08608C5.87495 6.33998 6.13276 6.35561 6.39448 6.11342C6.61714 5.9103 6.69526 5.74233 6.64057 5.59389C6.5312 5.31264 6.32026 5.31264 6.02729 5.58608Z" fill="#8F5633"></path><path d="M17.0387 7.30859C16.9332 7.42188 16.9293 7.60938 17.027 7.73047C17.0973 7.81641 17.1324 7.82422 17.4606 7.82422C17.7887 7.82422 17.8238 7.81641 17.8942 7.73047C17.9918 7.61328 17.9879 7.44922 17.8863 7.32031C17.8121 7.22266 17.7887 7.21875 17.4645 7.21875C17.1559 7.21875 17.1129 7.22656 17.0387 7.30859Z" fill="#8F5633"></path><path d="M2.07422 7.86719C2.00781 7.95312 1.99219 8.02734 1.99219 8.26172C1.99219 8.59766 2.02344 8.67578 2.1875 8.74219C2.28125 8.78125 2.32812 8.78125 2.42188 8.74219C2.58594 8.67578 2.61719 8.59766 2.61719 8.26172C2.61719 7.89453 2.53516 7.76562 2.30469 7.76562C2.1875 7.76562 2.13672 7.78906 2.07422 7.86719Z" fill="#8F5633"></path><path d="M11.0622 8.79297C10.9372 8.92578 10.945 9.14062 11.0778 9.24609C11.1599 9.3125 11.238 9.32812 11.4489 9.32812C11.5935 9.32812 11.7575 9.30859 11.8122 9.28516C12.0075 9.19531 12.0349 8.88281 11.863 8.76172C11.8044 8.72266 11.6794 8.70312 11.4646 8.70312C11.1833 8.70312 11.1364 8.71484 11.0622 8.79297Z" fill="#8F5633"></path><path d="M14.6602 9.06641C14.4883 9.24219 14.4531 9.30078 14.4531 9.41406C14.4531 9.61328 14.5625 9.73438 14.7461 9.73438C14.8711 9.73438 14.9219 9.70312 15.1211 9.49609C15.375 9.23438 15.4023 9.13281 15.2695 8.96094C15.207 8.88281 15.1563 8.85938 15.0313 8.85938C14.8906 8.85938 14.8477 8.88281 14.6602 9.06641Z" fill="#8F5633"></path><path d="M6.45277 9.70708C6.30824 9.76567 6.23011 10.2891 6.33167 10.5118C6.41371 10.6954 6.64417 10.7461 6.81214 10.6133C6.9098 10.5391 6.91371 10.5157 6.91371 10.1915C6.91371 9.88286 6.90589 9.83989 6.82386 9.76567C6.73792 9.68364 6.57386 9.6563 6.45277 9.70708Z" fill="#8F5633"></path><path d="M6.15625 13.707C6.05859 13.7812 6.05469 13.8047 6.05469 14.1367C6.05469 14.4336 6.06641 14.4961 6.13281 14.5625C6.23438 14.6641 6.44531 14.6641 6.56641 14.5664C6.65234 14.4961 6.66016 14.4609 6.66016 14.1523C6.66016 13.8281 6.65625 13.8086 6.55078 13.7187C6.41797 13.6055 6.29297 13.5976 6.15625 13.707Z" fill="#8F5633"></path><path d="M11.5742 15.0586C11.418 15.0898 11.3672 15.2148 11.3672 15.5664C11.3672 15.9531 11.4258 16.0469 11.6758 16.0469C11.9102 16.0469 11.9922 15.9219 11.9922 15.5547C11.9922 15.3125 11.9805 15.2539 11.9062 15.1719C11.8086 15.0664 11.707 15.0352 11.5742 15.0586Z" fill="#8F5633"></path><path d="M9.16406 17.6133C9.08594 17.6719 9.0625 17.7266 9.0625 17.8398C9.0625 17.9609 9.09375 18.0156 9.28906 18.207C9.46094 18.3789 9.53906 18.4297 9.63281 18.4297C9.88281 18.4297 10.0234 18.1953 9.90625 17.9688C9.875 17.9063 9.76562 17.7813 9.66406 17.6914C9.45703 17.5078 9.32422 17.4883 9.16406 17.6133Z" fill="#8F5633"></path></g><defs><clipPath id="clip0_917_6156"><rect width="20" height="20" fill="white" transform="translate(0 0.5)"></rect></clipPath></defs></svg> 