<?xml version="1.0" encoding="UTF-8"?> <svg xmlns="http://www.w3.org/2000/svg" width="45" height="45" viewBox="0 0 45 45" fill="none"><g clip-path="url(#clip0_401_281)"><path d="M22.3953 2.98071C21.7325 3.19763 20.7081 3.89661 20.3586 4.37867C19.973 4.89688 18.9486 5.53561 18.1171 5.77664C17.2252 6.02972 16.454 5.95741 15.1886 5.52356C14.4052 5.24638 14.1039 5.19817 13.3447 5.24638C12.1516 5.31869 11.1272 5.77664 10.4041 6.54793C9.70515 7.29512 9.40386 7.90974 9.17488 9.05463C8.70488 11.2721 7.69256 12.3326 5.45099 12.9352C4.282 13.2365 3.37814 13.815 2.79967 14.5983C1.7994 15.9722 1.64273 17.7076 2.40197 19.3948C2.76352 20.2263 2.88403 21.082 2.72736 21.9015C2.55864 22.8535 2.18505 23.5646 1.36555 24.4805C0.991955 24.8902 0.594257 25.4325 0.461691 25.6856C-0.12883 26.8667 -0.152932 28.349 0.389383 29.5541C0.835286 30.5062 1.18478 30.928 2.173 31.6511C2.65505 32.0126 3.19737 32.5188 3.37814 32.7839C4.16148 33.9047 4.39046 35.2545 4.06507 36.6886C3.98071 37.0863 3.93251 37.7612 3.96866 38.3155C4.06507 39.9063 4.82431 41.0151 6.29459 41.702C6.95742 42.0153 7.13819 42.0394 8.40359 42.0394C9.77746 42.0274 9.81361 42.0274 15.1042 40.6294C21.0697 39.0507 22.1181 38.7253 24.1789 37.8817C27.8305 36.3873 30.9398 34.4952 34.0129 31.9042C35.9291 30.3013 43.4492 22.6969 44.0518 21.7569C44.3169 21.3351 44.6302 20.7204 44.7507 20.383C44.9918 19.6479 45.0279 18.3824 44.8231 17.6714C44.5218 16.6591 43.4251 15.5624 42.3043 15.1647C39.5686 14.1765 38.5563 13.0557 38.3032 10.7298C38.1465 9.33182 37.7368 8.42796 36.8932 7.63256C35.664 6.46357 34.278 6.10203 32.5667 6.48767C30.2288 7.00589 28.9031 6.47562 27.1074 4.29431C26.3482 3.36635 25.3238 2.89635 23.962 2.84814C23.2992 2.82404 22.7328 2.87224 22.3953 2.98071ZM25.0707 4.43893C25.5889 4.67996 26.0349 5.08971 26.8302 6.05383C28.2162 7.72897 30.4939 8.3918 32.9042 7.82539C34.1696 7.5241 35.2422 7.82539 36.0496 8.72924C36.6281 9.35592 36.8329 9.91029 36.9776 11.0913C37.2788 13.7306 38.6527 15.3093 41.5692 16.3578C43.4492 17.0327 44.0879 18.5753 43.2323 20.3709C42.931 21.0097 42.3284 21.6966 39.1468 24.9625C33.9888 30.2531 32.627 31.4703 29.6503 33.4226C26.8182 35.2906 23.3835 36.8935 20.2743 37.8094C17.6953 38.5566 9.57258 40.6415 8.88565 40.7258C6.99357 40.9427 5.48714 39.9304 5.30637 38.3155C5.27022 38.0263 5.34253 37.2912 5.46304 36.6765C5.93305 34.1939 5.13765 32.1452 3.0648 30.5665C2.13684 29.8554 1.94402 29.6385 1.63068 28.9757C1.10042 27.8308 1.41376 26.3967 2.43813 25.3482C3.64327 24.1069 4.29405 22.3835 4.14943 20.7927C4.10123 20.3589 3.87225 19.443 3.63122 18.756C3.29378 17.7437 3.22147 17.3942 3.28173 16.9965C3.40224 16.2734 3.73968 15.5865 4.19764 15.1286C4.7038 14.6103 4.99303 14.4657 6.17408 14.1524C7.43948 13.8029 8.15051 13.4052 8.93386 12.5737C9.7413 11.7301 10.1631 10.8985 10.4403 9.6331C10.7175 8.35565 10.9705 7.83744 11.5611 7.33128C12.4288 6.59614 13.5375 6.37921 14.4896 6.74076C17.1047 7.75308 19.3101 7.33128 21.2384 5.45125C22.323 4.40277 22.9256 4.11354 23.8897 4.1738C24.2874 4.1979 24.8177 4.30637 25.0707 4.43893Z" fill="white"></path><path d="M21.2625 11.3083C16.0081 12.1639 11.6454 15.3455 9.31952 20.0094C7.01769 24.6251 7.07795 30.1929 9.46413 34.6881C9.83773 35.3991 9.97029 35.5437 10.2475 35.5678C10.6452 35.616 11.0549 35.3027 11.0549 34.9773C11.0549 34.8568 10.8621 34.4109 10.6452 34.0011C10.0908 33.0009 9.42798 30.9883 9.1749 29.5662C8.89771 27.9152 8.99413 25.3482 9.40388 23.7574C10.6331 19.0694 13.6339 15.5383 17.9966 13.6704C21.9374 11.9711 26.4085 12.1157 30.277 14.056C32.7114 15.2732 34.6275 16.9966 36.1822 19.3707C36.5558 19.9371 36.7365 20.1179 37.0017 20.142C38.4358 20.3107 37.5199 18.3102 35.0373 15.8276C32.7596 13.5498 30.3011 12.2121 27.0833 11.477C25.6854 11.1516 22.7087 11.0672 21.2625 11.3083Z" fill="white"></path></g><defs><clipPath id="clip0_401_281"><rect width="45" height="45" fill="white"></rect></clipPath></defs></svg> 