<?xml version="1.0" encoding="UTF-8"?> <svg xmlns="http://www.w3.org/2000/svg" width="20" height="21" viewBox="0 0 20 21" fill="none"><g clip-path="url(#clip0_917_6148)"><path d="M9.9535 1.82489C9.6589 1.9213 9.20363 2.23196 9.0483 2.44621C8.8769 2.67653 8.42162 2.96041 8.05204 3.06753C7.65569 3.18001 7.31289 3.14787 6.75049 2.95505C6.40234 2.83186 6.26843 2.81043 5.93099 2.83186C5.40073 2.864 4.94545 3.06753 4.62408 3.41033C4.31342 3.74241 4.17951 4.01558 4.07775 4.52442C3.86885 5.50996 3.41893 5.9813 2.42268 6.24911C1.90313 6.38302 1.50142 6.64011 1.24432 6.98827C0.799754 7.59887 0.730124 8.37017 1.06756 9.12003C1.22825 9.48961 1.28181 9.8699 1.21218 10.2341C1.13719 10.6573 0.971153 10.9733 0.606931 11.3803C0.440889 11.5625 0.264135 11.8035 0.205216 11.916C-0.0572372 12.4409 -0.0679496 13.0997 0.173079 13.6353C0.371259 14.0584 0.526588 14.2459 0.965796 14.5673C1.18004 14.728 1.42107 14.9529 1.50142 15.0708C1.84957 15.5689 1.95134 16.1688 1.80672 16.8062C1.76923 16.9829 1.7478 17.2829 1.76387 17.5293C1.80672 18.2363 2.14416 18.729 2.79762 19.0344C3.09221 19.1736 3.17255 19.1843 3.73495 19.1843C4.34556 19.179 4.36163 19.179 6.713 18.5577C9.36431 17.856 9.8303 17.7114 10.7462 17.3364C12.3691 16.6723 13.751 15.8313 15.1169 14.6798C15.9685 13.9674 19.3108 10.5876 19.5786 10.1698C19.6964 9.98238 19.8357 9.70922 19.8892 9.55924C19.9964 9.23251 20.0124 8.67011 19.9214 8.3541C19.7875 7.90418 19.3001 7.41676 18.8019 7.24001C17.5861 6.8008 17.1362 6.30267 17.0237 5.26893C16.954 4.64761 16.7719 4.24589 16.397 3.89239C15.8507 3.37283 15.2347 3.21215 14.4741 3.38355C13.435 3.61386 12.8458 3.37819 12.0478 2.40872C11.7103 1.99629 11.2551 1.7874 10.6498 1.76598C10.3552 1.75526 10.1035 1.77669 9.9535 1.82489ZM11.1426 2.47299C11.3729 2.58012 11.5711 2.76223 11.9246 3.19072C12.5405 3.93524 13.5529 4.22983 14.6241 3.97808C15.1865 3.84418 15.6632 3.97808 16.0221 4.3798C16.2792 4.65832 16.3702 4.90471 16.4345 5.42961C16.5684 6.60262 17.179 7.30428 18.4752 7.77027C19.3108 8.07022 19.5946 8.75581 19.2144 9.55389C19.0805 9.83776 18.8126 10.1431 17.3986 11.5946C15.1062 13.946 14.5009 14.4869 13.1779 15.3546C11.9192 16.1849 10.3927 16.8972 9.0108 17.3043C7.86458 17.6364 4.2545 18.563 3.9492 18.6005C3.10828 18.6969 2.43875 18.247 2.35841 17.5293C2.34234 17.4007 2.37448 17.074 2.42804 16.8008C2.63693 15.6974 2.28342 14.7869 1.36215 14.0852C0.949728 13.7692 0.864029 13.6728 0.724768 13.3782C0.489095 12.8694 0.628356 12.232 1.08363 11.766C1.61925 11.2143 1.90849 10.4484 1.84421 9.74135C1.82279 9.54853 1.72102 9.14146 1.6139 8.83615C1.46392 8.38623 1.43179 8.2309 1.45857 8.05415C1.51213 7.73278 1.6621 7.42747 1.86564 7.22394C2.0906 6.99362 2.21915 6.92935 2.74405 6.79009C3.30645 6.63476 3.62247 6.458 3.97062 6.08843C4.32949 5.71349 4.51695 5.34391 4.64015 4.78151C4.76334 4.21376 4.87582 3.98344 5.13827 3.75848C5.52392 3.43175 6.01669 3.33534 6.43983 3.49603C7.60212 3.94595 8.58231 3.75848 9.4393 2.92291C9.92136 2.45692 10.1892 2.32838 10.6177 2.35516C10.7944 2.36587 11.0301 2.41408 11.1426 2.47299Z" fill="#8F5633"></path><path d="M9.45014 5.52609C7.11484 5.90638 5.17589 7.32041 4.14215 9.39326C3.11912 11.4447 3.1459 13.9192 4.20642 15.9171C4.37247 16.2331 4.43138 16.2974 4.55458 16.3081C4.73133 16.3295 4.91344 16.1903 4.91344 16.0457C4.91344 15.9921 4.82774 15.7939 4.73133 15.6118C4.48495 15.1672 4.19035 14.2728 4.07787 13.6407C3.95468 12.9069 3.99753 11.7661 4.17964 11.059C4.72597 8.97548 6.05967 7.40611 7.99861 6.5759C9.75009 5.82068 11.7372 5.88495 13.4566 6.7473C14.5385 7.28828 15.3902 8.05421 16.0811 9.10938C16.2472 9.36112 16.3275 9.44147 16.4453 9.45218C17.0827 9.52717 16.6756 8.63804 15.5723 7.53466C14.56 6.52234 13.4673 5.9278 12.0372 5.60108C11.4159 5.45646 10.0929 5.41896 9.45014 5.52609Z" fill="#8F5633"></path></g><defs><clipPath id="clip0_917_6148"><rect width="20" height="20" fill="white" transform="translate(0 0.5)"></rect></clipPath></defs></svg> 