<?xml version="1.0" encoding="UTF-8"?> <svg xmlns="http://www.w3.org/2000/svg" width="20" height="21" viewBox="0 0 20 21" fill="none"><g clip-path="url(#clip0_917_6132)"><path d="M14.1773 0.566406C12.7593 0.746094 11.6577 1.125 10.7085 1.76562C9.52101 2.56641 8.68116 3.66016 8.23976 4.99609C7.93507 5.90234 7.82569 6.73828 7.86085 7.85156C7.8921 8.83203 8.0171 9.61328 8.31788 10.7422L8.40382 11.0742L8.22413 11.3789C7.97413 11.8008 7.67335 12.4102 7.49757 12.8398L7.35304 13.1992L7.28663 12.9766C6.71632 11.1445 5.47413 8.45312 4.38038 6.67969C3.47804 5.21875 2.36866 3.75 2.05226 3.59766C1.81007 3.48047 1.47804 3.48828 1.21632 3.61719C0.978037 3.73438 0.149912 4.59375 0.0561622 4.81641C-0.0180565 4.99219 -0.0180565 5.35156 0.052256 5.52344C0.0795997 5.59375 0.247568 5.83594 0.419443 6.0625C2.81397 9.21875 5.14991 14.6641 5.79444 18.6133C5.84522 18.9336 5.89991 19.3047 5.91554 19.4336C5.95069 19.7734 6.13429 20.1328 6.35304 20.2852C6.59522 20.4609 6.73194 20.5 7.04835 20.5C7.36085 20.5 7.50147 20.4609 7.73976 20.2891C7.98976 20.1133 8.09132 19.8828 8.3296 18.9453C8.85304 16.918 9.56788 14.7852 10.189 13.3828C10.4976 12.6953 10.8296 12.0859 10.9273 12.0352C10.9624 12.0195 11.189 11.9922 11.4233 11.9805C12.8882 11.8945 14.5054 11.4062 15.4858 10.7422C15.8648 10.4844 16.3843 9.99219 16.6343 9.65234C17.1343 8.96484 17.3296 8.45703 18.0054 6.04297C18.2202 5.27344 18.4585 4.47656 18.5366 4.26562C18.8296 3.48438 19.2241 2.80859 19.7007 2.26953C19.978 1.96094 20.021 1.84766 19.9898 1.52734C19.9663 1.29688 19.8491 1.11719 19.6499 1.01562C19.4702 0.925781 18.5132 0.738281 17.6538 0.621094C16.8101 0.511719 14.8726 0.480469 14.1773 0.566406ZM16.853 1.25391C17.564 1.30859 19.1421 1.55078 19.2632 1.625C19.2788 1.63672 19.1773 1.78125 19.0405 1.95312C18.5405 2.57031 18.1694 3.19531 17.9155 3.84766C17.8374 4.03906 17.5796 4.90234 17.3413 5.76172C16.6929 8.07422 16.5444 8.48828 16.1499 9.08203C15.9155 9.43359 15.4429 9.91016 15.0952 10.1445C14.1616 10.7734 12.8062 11.168 11.1577 11.293C10.4819 11.3438 10.5015 11.332 10.2437 11.7266C9.46632 12.9219 8.3296 16.0156 7.59522 18.9414C7.5171 19.2539 7.43507 19.543 7.41163 19.5859C7.26319 19.8789 6.83351 19.8789 6.68116 19.582C6.65772 19.5352 6.61085 19.2891 6.5796 19.0352C6.10694 15.4297 4.09132 10.2852 1.7671 6.73828C1.54054 6.39453 1.20851 5.91797 1.02882 5.67578C0.849131 5.4375 0.700693 5.20703 0.700693 5.16797C0.700693 5.12891 0.888193 4.89844 1.12257 4.65625C1.44679 4.31641 1.56397 4.21875 1.6421 4.21875C1.72413 4.21875 1.81007 4.30078 2.09522 4.65625C4.18897 7.29297 6.07569 11.0352 6.88819 14.1836C7.04054 14.7695 7.09132 14.8438 7.34522 14.8438C7.53272 14.8438 7.63429 14.75 7.69288 14.5234C8.00147 13.3281 8.48194 12.2617 9.23194 11.1406C10.9546 8.53906 13.1655 6.3125 15.8491 4.47266C16.3999 4.09766 16.4819 3.9375 16.2515 3.70703C16.0562 3.51172 15.9468 3.54297 15.353 3.94531C14.0601 4.82422 13.0952 5.61719 11.9351 6.75391C10.8726 7.80078 9.97413 8.83203 9.22022 9.875L8.92335 10.2852L8.81788 9.85547C8.24366 7.47266 8.48976 5.53516 9.57179 3.90234C9.89991 3.40625 10.6304 2.68359 11.1499 2.33594C12.5483 1.40234 14.3491 1.05859 16.853 1.25391Z" fill="#8F5633"></path></g><defs><clipPath id="clip0_917_6132"><rect width="20" height="20" fill="white" transform="translate(0 0.5)"></rect></clipPath></defs></svg> 